<?xml version="1.0" encoding="utf-8"?>
<!-- Generator: Adobe Illustrator 19.0.0, SVG Export Plug-In . SVG Version: 6.00 Build 0)  -->
<svg version="1.1" id="Livello_1" xmlns="http://www.w3.org/2000/svg" xmlns:xlink="http://www.w3.org/1999/xlink" x="0px" y="0px"
	 viewBox="-259 375.9 95.7 49.1" style="enable-background:new -259 375.9 95.7 49.1;" xml:space="preserve">
<style type="text/css">
	.st0{fill:#FFFFFF;stroke:#000000;stroke-width:0.25;stroke-miterlimit:10;}
</style>
<path class="st0" d="M-165.4,377.4c-0.4-0.2-0.7-0.7-1-1.1c-2.1,0-4.3,0-6.4,0c0,0.2,0,0.5,0,0.7c0,0.3-0.2,0.5-0.5,0.5
	c-0.2,0-0.5,0-0.7,0c-18.8,0-37.6,0-56.4,0c-0.1,0-0.3,0-0.4,0c-0.5,0-0.8-0.2-0.8-0.7c0-0.2-0.1-0.3-0.2-0.5c-1.7,0-3.5,0-5.2,0
	c0,0.2,0,0.5,0,0.7c0,0.3-0.1,0.5-0.4,0.5c-1.1,0-1.7,0.9-2.5,1.5c-0.4,0.3-0.5,0.7-0.5,1.2c0,1,0.1,2.1,0,3.1c-0.1,1.1,0.3,2,1,2.8
	c0.3,0.3,0.6,0.7,0.7,1.1c0.1,0.3,0.1,0.6-0.4,0.6c-0.7,0-1.3,0-2-0.1c-0.6-0.1-1.1,0-1.7,0.2c-1.1,0.3-1.4,1.9-0.5,2.8
	c0.7,0.7,1.2,1.6,1.6,2.5c0.7,1.7,0.8,4.1-0.8,5.5c-0.8,0.8-1.7,1.5-2.6,2.1c-2.5,1.5-4.9,3.1-7,5.1c-1.7,1.6-3.3,3.2-4.3,5.3
	c-0.3,0.6-0.6,1.2-1.1,1.8c0,0.7,0,1.3,0,2c1.1,1,2.2,1.9,3.3,2.9c2.1,2,4.5,3.6,7,5c0.8,0.4,1.5,0.9,2.3,1.3c0.5,0.3,1.1,0.4,1.6,0
	c0.6-0.5,1-1,1.1-1.8c0-0.6,0.3-1.2,0.4-1.9c0.1-0.6,0.5-1,0.9-1.4c0.8-0.6,1.7-1.2,2.6-1.6c0.5-0.2,0.8-0.6,0.8-1.1
	c0.1-1.2,0.3-2.3,0.8-3.4c0.1-0.3,0.3-0.6,0.5-0.8c0.9-0.8,2-1.4,3.1-1.9c0.4-0.2,0.7-0.5,0.8-1c0.1-0.8,0.2-1.5,0.4-2.3
	c0.6-1.8,1-2.7,3.1-2.6c0.4,0,0.8,0,1.2,0c0.3,0,0.6-0.2,0.7-0.5c0.1-0.3-0.1-0.5-0.3-0.7c-0.2-0.1-0.5-0.2-0.4-0.5
	c0.4,0,0.7,0,1.1,0c1.1,0,2.1,0.1,3.1,0.6c1.5,0.8,3.2,0.8,4.9,0.5c2.2-0.5,3.9-1.8,5.1-3.7c0.9-1.4,2.1-2,3.8-2c2.1,0,4.2,0,6.3,0
	c1.2,0,1.6-0.4,1.9-1.4c0.2-0.8,0.2-0.8,1-0.8c0.3,0,0.6,0,0.9,0c11.1,0,22.3,0,33.4,0c1.3,0,1.3,0,1.4-1.3c0-5.4,0-10.7,0-16.1
	C-164.8,378.2-164.8,377.8-165.4,377.4z M-220.4,402.6c-2.2-0.1-4-1-5.1-2.9c-0.6-1-0.5-1.1,0.6-1.1c0.4,0,0.8,0,1.2,0
	c1.1,0,1.1,0,0.9-1c-0.2-0.7-0.1-1.4,0-2.2c0.4-1.6,1.4-2.7,2.8-3.4c0.3-0.1,0.6-0.1,0.9-0.2c0.7-0.1,0.8-0.1,0.7-0.8
	c0-0.6,0.3-0.4,0.6-0.3c2.2,0.9,4,3.3,3.9,5.8C-214,399.8-216.9,402.7-220.4,402.6z M-171.2,388.5c-0.7,0.1-1.5,0-2.2,0c0,0,0,0,0,0
	c-0.6,0-1.2,0-1.8,0c-0.3,0-0.7,0-1,0.2c-0.8,0.6-2.3,0.7-3.2,0c-0.2-0.2-0.5-0.2-0.8-0.2c-1.2,0-2.3,0-3.5,0c-0.4,0-0.7,0-1,0.4
	c-0.1,0.2-0.3,0.2-0.5,0.2c-0.6,0-1.2,0-1.8,0c-0.2,0-0.4,0-0.5-0.1c-0.4-0.7-1-0.5-1.6-0.5c-0.9,0-1.8,0-2.7,0
	c-0.5,0-1-0.1-1.3,0.4c-0.1,0.2-0.4,0.1-0.6,0.2c-0.5,0-1.1,0-1.6,0c-0.5,0-0.7-0.3-0.9-0.6c-0.2-0.3-0.8,0.1-1.1-0.3
	c-0.3-0.5-0.3-2.3,0.1-2.7c0.1-0.1,0.3-0.2,0.4-0.2c0.2,0,0.4,0,0.5-0.1c0.8-1,1.8-0.4,2.7-0.5c0.1,0,0.3,0,0.4,0.1
	c0.4,0.7,1.1,0.5,1.7,0.5c0.8,0,1.7,0,2.5,0c0.5,0,1.1,0.2,1.5-0.5c0.1-0.2,0.4-0.1,0.6-0.1c0.5,0,1.1,0,1.6,0c0.2,0,0.5,0,0.6,0.1
	c0.4,0.7,1,0.5,1.6,0.5c0.8,0,1.6,0,2.4,0c0.6,0,1.1,0.1,1.6-0.5c0.3-0.4,1-0.1,1.6-0.1c0.5,0,1-0.1,1.3,0.4
	c0.1,0.2,0.5,0.1,0.8,0.1c1,0,1.9,0,2.9,0c0.7,0,1.1,0.3,1.4,0.9c0.2,0.4,0.4,0.9,0.5,1.3C-170.3,388.2-170.5,388.5-171.2,388.5z"/>
</svg>
