<?xml version="1.0" encoding="UTF-8"?>
<svg width="23px" height="21px" viewBox="0 0 23 21" version="1.1" xmlns="http://www.w3.org/2000/svg" xmlns:xlink="http://www.w3.org/1999/xlink">
    <title>explosion-solid</title>
    <g id="Page-1" stroke="none" stroke-width="1" fill="none" fill-rule="evenodd">
        <g id="explosion-solid" transform="translate(0, 0.9555)" fill="#FFFFFF" fill-rule="nonzero">
            <path d="M19.5139282,0.443106778 C19.7756242,0.0251743686 20.3146398,-0.123250225 20.7521018,0.111104397 C21.1895638,0.345459019 21.3692356,0.872756919 21.1661283,1.32193661 L15.8111252,13.2271514 C15.8970552,13.3169874 15.9790793,13.4107292 16.0571975,13.5044711 L19.8537424,11.3679381 C20.263863,11.1374894 20.7755373,11.2468549 21.0606687,11.6179163 C21.3458002,11.9889778 21.3067411,12.5162757 20.9747387,12.8482781 L17.5765967,16.2464201 L14.7838707,16.2464201 C14.2682906,14.7895156 12.8816924,13.7466375 11.2490219,13.7466375 C9.61635133,13.7466375 8.22584724,14.7895156 7.71417298,16.2464201 L4.60116242,16.2464201 L1.65220009,14.2075349 C1.27332678,13.9458389 1.14052583,13.4419765 1.34363317,13.0240441 C1.54674051,12.6061117 2.02326157,12.4030043 2.46462944,12.5397112 L6.26117432,13.7271079 C6.37835163,13.5747774 6.49943486,13.4263528 6.6283299,13.2857401 L4.19494774,9.23140511 C3.9566872,8.83690816 4.04261723,8.32913981 4.39414917,8.03229063 C4.7456811,7.73544144 5.26126127,7.73934735 5.60888729,8.03619654 L9.60853951,11.4694918 C9.66712817,11.4538681 9.72571682,11.4382445 9.78430548,11.4265267 L10.3155093,5.85279264 C10.3623802,5.37236566 10.764689,5.00521009 11.2490219,5.00521009 C11.7333548,5.00521009 12.1356635,5.37236566 12.1825344,5.85279264 L12.7098323,11.3952795 L19.5139282,0.443106778 Z M2.49978264,17.5002174 L2.49978264,17.5002174 L19.9982611,17.5002174 L19.9982611,17.5002174 L21.2481524,17.5002174 C21.9394985,17.5002174 22.4980437,18.0587625 22.4980437,18.7501087 C22.4980437,19.4414548 21.9394985,20 21.2481524,20 L1.24989132,20 C0.558545183,20 0,19.4414548 0,18.7501087 C0,18.0587625 0.558545183,17.5002174 1.24989132,17.5002174 L2.49978264,17.5002174 Z M11.2490219,0.00173890637 C11.7685079,0.00173890637 12.1864404,0.419671316 12.1864404,0.939157395 L12.1864404,2.81399437 C12.1864404,3.33348045 11.7685079,3.75141286 11.2490219,3.75141286 C10.7295358,3.75141286 10.3116034,3.33348045 10.3116034,2.81399437 L10.3116034,0.939157395 C10.3116034,0.419671316 10.7295358,0.00173890637 11.2490219,0.00173890637 Z" id="Shape"></path>
        </g>
    </g>
</svg>