<svg width="91" height="55" xmlns="http://www.w3.org/2000/svg" xmlns:xlink="http://www.w3.org/1999/xlink" xml:space="preserve" overflow="hidden"><defs><clipPath id="clip0"><rect x="594" y="332" width="91" height="55"/></clipPath></defs><g clip-path="url(#clip0)" transform="translate(-594 -332)"><path d="M657.353 337.371C657.353 335.481 656.06 334.387 654.369 334.685 653.573 334.785 652.877 335.183 652.28 335.68 651.186 336.774 650.092 337.868 648.998 338.962 648.401 339.559 648.302 340.155 648.501 340.951 648.7 341.548 648.998 342.045 649.396 342.443 650.689 343.736 651.982 343.835 653.275 342.542 654.17 341.647 655.165 340.653 656.06 339.758 656.855 339.061 657.253 338.266 657.353 337.371ZM650.987 346.123C651.584 346.222 652.28 346.322 652.877 346.421 654.966 346.72 657.054 347.118 659.143 347.416 659.441 347.515 659.938 347.615 659.839 347.018 659.74 346.023 659.74 345.128 659.64 344.134 659.64 343.438 659.342 343.338 658.646 343.537 657.452 343.935 656.159 344.233 654.966 344.631 653.673 345.029 652.28 345.327 650.987 346.123ZM641.738 339.161C641.837 339.161 641.837 339.26 641.937 339.26 643.627 337.47 645.318 335.68 646.91 333.89 647.208 333.591 647.009 333.392 646.711 333.293 645.716 332.995 644.721 332.597 643.727 332.298 643.329 332.199 643.23 332.398 643.13 332.696 642.732 334.884 642.235 337.072 641.738 339.161Z" stroke="#000000" stroke-width="0.248644" stroke-miterlimit="10" fill="#FF0000"/><path d="M656.458 370.49C656.358 366.611 656.557 362.732 656.458 358.854 656.458 356.566 655.861 354.378 654.568 352.488 652.28 349.007 648.998 347.316 644.821 347.217 643.926 347.217 643.826 347.018 644.025 346.222 644.324 344.929 644.721 343.637 645.02 342.344 645.219 341.349 645.517 340.454 645.716 339.459 645.617 339.459 645.617 339.36 645.517 339.36 644.324 340.653 643.13 341.846 641.937 343.139 640.843 344.333 640.843 344.333 640.246 342.94 640.047 342.542 639.948 342.542 639.649 342.841 639.251 343.338 638.754 343.736 638.356 344.333 637.958 344.83 637.561 344.83 637.163 344.333 636.268 343.338 635.372 342.344 634.477 341.349 633.383 340.155 632.389 338.962 631.295 337.769 631.195 338.067 631.195 338.266 631.295 338.465 631.792 340.653 632.389 342.741 632.886 344.929 633.184 346.123 632.986 346.222 631.792 346.123 631.494 346.123 631.195 345.924 630.897 346.023 630.996 346.123 630.996 346.222 630.996 346.322 631.096 346.62 631.593 346.819 631.394 347.217 631.195 347.615 630.698 347.416 630.3 347.416 629.206 347.316 628.013 347.118 626.919 346.919 625.924 346.819 624.929 346.62 623.935 346.521 623.935 346.62 623.835 346.62 623.835 346.72 624.134 347.118 624.532 347.515 624.83 347.814 625.327 348.311 625.327 348.609 624.631 349.007 621.25 351.096 619.26 354.179 619.061 358.157 618.863 362.633 618.962 367.108 619.061 371.584 619.061 373.374 620.255 374.767 621.946 375.363 623.139 375.761 624.333 376.159 625.526 376.557 626.222 376.756 626.421 377.154 626.421 377.85 626.421 379.64 626.521 381.43 626.521 383.221 626.521 385.11 628.212 387 630.4 387 635.372 386.901 640.246 387 645.219 387 646.014 387 646.611 386.801 647.208 386.304 648.203 385.508 648.799 384.414 648.799 383.121 648.799 381.43 648.799 379.74 648.799 377.949 648.799 377.253 648.998 376.756 649.794 376.557 650.888 376.259 651.982 375.861 653.076 375.463 655.463 374.468 656.557 373.076 656.458 370.49ZM633.383 366.611C633.881 367.009 634.378 367.606 634.776 368.103 635.472 368.998 635.671 369.893 635.174 370.888 634.676 371.882 633.881 372.38 632.588 372.38 632.09 372.38 631.494 372.081 631.096 371.684 630.599 371.186 630.101 370.788 629.604 370.291 629.206 369.893 628.908 369.893 628.51 370.291 628.013 370.788 627.515 371.286 627.018 371.783 625.825 372.877 624.333 372.778 623.338 371.783 622.244 370.689 622.244 369.197 623.338 368.004 623.736 367.506 624.233 367.108 624.731 366.611 625.128 366.213 625.228 365.915 624.731 365.517 624.233 365.119 623.835 364.622 623.338 364.125 622.244 362.931 622.244 361.439 623.239 360.445 624.333 359.351 625.825 359.351 627.018 360.544 627.515 361.042 627.913 361.439 628.41 361.937 628.808 362.335 629.107 362.335 629.405 361.937 629.803 361.439 630.3 361.042 630.698 360.644 631.991 359.45 633.383 359.45 634.477 360.644 635.571 361.738 635.571 363.13 634.378 364.423 633.98 364.821 633.682 365.219 633.184 365.617 632.886 365.816 632.886 366.213 633.383 366.611ZM638.854 356.268C638.456 355.87 638.257 355.87 637.859 356.268 637.362 357.063 636.765 357.759 636.168 358.555 636.069 358.754 635.87 358.953 635.571 358.854 635.273 358.754 635.372 358.456 635.372 358.257 635.372 357.461 635.273 356.665 635.273 355.969 635.273 355.472 635.074 355.273 634.577 355.472 632.787 355.87 631.096 356.268 629.306 356.665 629.206 356.665 629.107 356.765 628.908 356.765 628.709 356.765 628.51 356.864 628.41 356.665 628.311 356.467 628.51 356.268 628.609 356.168 629.405 355.571 630.3 354.975 631.096 354.378 631.891 353.781 632.687 353.184 633.483 352.488 633.085 352.289 632.787 352.488 632.488 352.488 632.19 352.488 631.792 352.687 631.693 352.389 631.593 351.991 631.991 351.892 632.289 351.792 632.588 351.593 633.284 351.494 633.184 351.096 633.184 350.698 632.588 350.599 632.19 350.4 630.897 349.703 629.703 349.107 628.41 348.41 628.311 348.311 628.212 348.311 628.112 348.212 628.013 348.112 627.814 348.013 627.913 347.814 628.013 347.615 628.212 347.615 628.41 347.714 630.3 348.41 632.389 348.609 634.278 349.107 634.378 349.107 634.577 349.206 634.776 349.107 634.477 348.808 634.179 348.51 633.781 348.112 633.582 347.913 633.383 347.714 633.483 347.416 633.682 347.217 633.881 347.316 634.08 347.316 634.179 347.316 634.278 347.316 634.278 347.416 634.875 347.615 635.074 347.416 634.875 346.819 634.378 345.526 633.98 344.233 633.582 342.94 633.483 342.642 633.184 342.344 633.483 342.145 633.781 341.946 633.98 342.344 634.179 342.542 635.372 343.736 636.467 345.029 637.66 346.222 638.058 346.72 638.356 346.72 638.754 346.123 638.854 345.825 639.052 345.526 639.351 345.626 639.749 345.725 639.55 346.123 639.649 346.322 639.649 346.521 639.649 346.819 639.848 346.919 640.047 347.018 640.146 346.72 640.345 346.521 641.042 345.626 641.738 344.83 642.533 343.935 642.732 343.736 642.832 343.438 643.13 343.537 643.429 343.736 643.23 344.034 643.031 344.333 642.335 345.825 641.837 347.316 641.24 348.808 641.042 349.306 641.141 349.504 641.738 349.405 642.434 349.306 643.23 349.206 643.926 349.107 644.224 349.107 644.721 348.808 644.821 349.206 644.92 349.604 644.423 349.703 644.125 349.803 643.528 350.002 643.031 350.201 642.434 350.4 641.937 350.599 641.738 350.797 642.335 351.096 642.931 351.394 643.429 351.792 644.025 352.09 644.224 352.19 644.523 352.289 644.423 352.687 644.324 352.986 643.926 352.886 643.727 352.787 643.031 352.687 642.335 352.588 641.638 352.488 641.539 352.886 641.837 353.085 641.937 353.184 643.23 354.875 644.523 356.467 645.816 358.157 645.915 358.356 646.213 358.555 646.014 358.754 645.816 359.052 645.517 358.754 645.318 358.655 643.727 357.461 642.136 356.467 640.544 355.373 640.345 355.273 640.246 355.074 640.047 355.074 639.749 355.174 639.948 355.472 639.848 355.671 639.749 356.069 640.146 356.665 639.649 356.765 639.251 357.163 639.052 356.566 638.854 356.268ZM652.479 370.888C651.982 371.882 651.186 372.38 649.893 372.38 649.396 372.38 648.899 372.181 648.401 371.783 647.904 371.385 647.407 370.888 646.91 370.391 646.412 369.794 646.014 369.893 645.517 370.391 645.119 370.888 644.622 371.286 644.224 371.684 643.13 372.678 641.638 372.678 640.644 371.684 639.55 370.689 639.55 369.098 640.445 368.004 640.942 367.506 641.439 367.009 641.937 366.512 642.434 366.114 642.434 365.716 641.937 365.318 641.34 364.821 640.843 364.224 640.345 363.727 639.45 362.633 639.55 361.241 640.544 360.246 641.539 359.251 642.931 359.152 644.025 360.047 644.622 360.544 645.119 361.042 645.617 361.638 646.014 362.136 646.412 362.136 646.81 361.638 647.208 361.141 647.705 360.743 648.103 360.345 649.297 359.251 650.788 359.351 651.882 360.445 652.877 361.439 652.877 363.031 651.783 364.125 651.385 364.523 650.987 365.02 650.49 365.418 649.993 365.816 650.092 366.114 650.49 366.512 650.987 367.009 651.485 367.407 651.882 368.004 652.678 368.899 652.877 369.893 652.479 370.888Z" stroke="#000000" stroke-width="0.248644" stroke-miterlimit="10" fill="#FF0000"/></g></svg>