<?xml version="1.0" encoding="UTF-8"?>
<svg width="14.9487394px" height="20px" viewBox="0 0 14.9487394 20" version="1.1" xmlns="http://www.w3.org/2000/svg" xmlns:xlink="http://www.w3.org/1999/xlink">
    <title>head-shot</title>
    <g id="Page-1" stroke="none" stroke-width="1" fill="none" fill-rule="evenodd">
        <g id="head-shot" fill="#FFFFFF" fill-rule="nonzero">
            <path d="M14.0353509,1.86312352 C14.0353509,1.17254105 13.5628471,0.772730149 12.9449575,0.881769486 C12.654186,0.918115932 12.3997608,1.06350172 12.1816822,1.24523394 C11.7818713,1.64504485 11.3820604,2.04485575 10.9822495,2.44466666 C10.7641708,2.66274533 10.7278243,2.88082401 10.8005172,3.17159557 C10.8732101,3.38967425 10.9822495,3.57140648 11.1276352,3.71679226 C11.600139,4.18929606 12.0726428,4.2256425 12.5451466,3.75313871 C12.8722646,3.4260207 13.2357291,3.06255624 13.5628471,2.73543822 C13.8536187,2.4810131 13.9990045,2.19024154 14.0353509,1.86312352 Z M11.7091784,5.06161076 C11.9272571,5.0979572 12.1816822,5.13430365 12.3997608,5.1706501 C13.1630362,5.27968943 13.9263116,5.42507522 14.6895869,5.53411455 C14.7986263,5.570461 14.9803585,5.60680745 14.9440121,5.38872877 C14.9076656,5.02526431 14.9076656,4.6981463 14.8713192,4.33468184 C14.8713192,4.08025672 14.7622798,4.04391027 14.5078547,4.11660317 C14.0716974,4.26198895 13.5991936,4.37102829 13.1630362,4.51641407 C12.6905324,4.66179985 12.1816822,4.77083919 11.7091784,5.06161076 Z M8.32895891,2.51735955 C8.36530536,2.51735955 8.36530536,2.553706 8.4016518,2.553706 C9.01954138,1.89946997 9.63743096,1.24523394 10.2189741,0.59099792 C10.3280134,0.481958582 10.2553205,0.40926569 10.1462812,0.372919244 C9.78281675,0.263879907 9.41935229,0.118494124 9.05588783,0.00945478601 C8.91050205,-0.0268916598 8.8741556,0.0458012319 8.83780915,0.154840569 C8.69242337,0.954462378 8.51069114,1.75408419 8.32895891,2.51735955 Z" id="Shape"></path>
            <path d="M13.7082329,13.96649 C13.6718865,12.5489786 13.7445793,11.1314672 13.7082329,9.71395583 C13.7082329,8.87798757 13.4901542,8.07836576 13.0176504,7.38778329 C12.1816822,6.11565769 10.9822495,5.49776811 9.45569873,5.46142166 C9.12858072,5.46142166 9.09223428,5.38872877 9.16492717,5.0979572 C9.2739665,4.62545341 9.41935229,4.15294961 9.52839163,3.68044582 C9.60108452,3.31698136 9.71012385,2.98986335 9.78281675,2.62639889 C9.7464703,2.62639889 9.7464703,2.59005244 9.71012385,2.59005244 C9.2739665,3.06255624 8.83780915,3.49871359 8.4016518,3.97121738 C8.0018409,4.40737473 8.0018409,4.40737473 7.78376223,3.89852449 C7.71106933,3.75313871 7.67472289,3.75313871 7.56568355,3.86217805 C7.42029777,4.04391027 7.23856554,4.18929606 7.09317975,4.40737473 C6.94779397,4.58910696 6.80240819,4.58910696 6.6570224,4.40737473 C6.32990439,4.04391027 6.00278638,3.68044582 5.67566837,3.31698136 C5.27585746,2.88082401 4.912393,2.44466666 4.5125821,2.00850931 C4.47623565,2.11754864 4.47623565,2.19024154 4.5125821,2.26293443 C4.69431433,3.06255624 4.912393,3.8258316 5.09412523,4.62545341 C5.20316457,5.06161076 5.13047168,5.0979572 4.69431433,5.06161076 C4.58527499,5.06161076 4.47623565,4.98891787 4.36719632,5.02526431 C4.40354276,5.06161076 4.40354276,5.0979572 4.40354276,5.13430365 C4.43988921,5.24334299 4.62162144,5.31603588 4.54892855,5.46142166 C4.47623565,5.60680745 4.29450342,5.53411455 4.14911764,5.53411455 C3.74930674,5.49776811 3.31314939,5.42507522 2.91333848,5.35238233 C2.54987402,5.31603588 2.18640957,5.24334299 1.82294511,5.20699654 C1.82294511,5.24334299 1.78659866,5.24334299 1.78659866,5.27968943 C1.895638,5.42507522 2.04102378,5.570461 2.15006312,5.67950034 C2.33179535,5.86123257 2.33179535,5.9702719 2.07737023,6.11565769 C0.841591069,6.87893305 0.114662152,8.00567287 0.0419692606,9.45953071 C-0.0307236311,11.0951208 0.00562281474,12.7307108 0.0419692606,14.3663009 C0.0419692606,15.0205369 0.478126611,15.5293872 1.09601619,15.7474658 C1.53217354,15.8928516 1.96833089,16.0382374 2.40448824,16.1836232 C2.65891336,16.2563161 2.73160625,16.4017019 2.73160625,16.656127 C2.73160625,17.310363 2.7679527,17.964599 2.7679527,18.6188351 C2.7679527,19.3094175 3.38584228,20 4.18546409,20 C6.00278638,19.9636536 7.78376223,20 9.60108452,20 C9.89185608,20 10.1099348,19.9273071 10.3280134,19.7455749 C10.6914779,19.4548033 10.9095566,19.0549924 10.9095566,18.5824886 C10.9095566,17.964599 10.9095566,17.3467095 10.9095566,16.6924734 C10.9095566,16.4380483 10.9822495,16.2563161 11.273021,16.1836232 C11.6728319,16.0745838 12.0726428,15.9291981 12.4724537,15.7838123 C13.3447684,15.4203478 13.7445793,14.9114976 13.7082329,13.96649 Z M5.27585746,12.5489786 C5.45758969,12.6943644 5.63932192,12.9124431 5.7847077,13.0941753 C6.03913282,13.4212933 6.11182572,13.7484113 5.93009349,14.1118758 C5.74836126,14.4753402 5.45758969,14.6570725 4.9850859,14.6570725 C4.80335367,14.6570725 4.58527499,14.5480331 4.43988921,14.4026473 C4.25815698,14.2209151 4.07642475,14.0755293 3.89469252,13.8937971 C3.74930674,13.7484113 3.6402674,13.7484113 3.49488162,13.8937971 C3.31314939,14.0755293 3.13141716,14.2572616 2.94968493,14.4389938 C2.51352758,14.8388047 1.96833089,14.8024582 1.60486643,14.4389938 C1.20505553,14.0391829 1.20505553,13.4939862 1.60486643,13.0578288 C1.75025222,12.8760966 1.93198444,12.7307108 2.11371667,12.5489786 C2.25910246,12.4035928 2.2954489,12.2945535 2.11371667,12.1491677 C1.93198444,12.0037819 1.78659866,11.8220497 1.60486643,11.6403175 C1.20505553,11.2041601 1.20505553,10.6589634 1.56851999,10.295499 C1.96833089,9.89568806 2.51352758,9.89568806 2.94968493,10.3318454 C3.13141716,10.5135776 3.27680294,10.6589634 3.45853517,10.8406956 C3.60392095,10.9860814 3.71296029,10.9860814 3.82199963,10.8406956 C3.96738541,10.6589634 4.14911764,10.5135776 4.29450342,10.3681919 C4.76700722,9.9320345 5.27585746,9.9320345 5.67566837,10.3681919 C6.07547927,10.7680028 6.07547927,11.276853 5.63932192,11.7493568 C5.49393614,11.8947426 5.3848968,12.0401284 5.20316457,12.1855141 C5.09412523,12.258207 5.09412523,12.4035928 5.27585746,12.5489786 Z M7.27491198,8.76894823 C7.1295262,8.62356245 7.05683331,8.62356245 6.91144753,8.76894823 C6.7297153,9.0597198 6.51163662,9.31414492 6.29355795,9.60491649 C6.2572115,9.67760938 6.18451861,9.75030227 6.07547927,9.71395583 C5.96643993,9.67760938 6.00278638,9.56857004 6.00278638,9.49587715 C6.00278638,9.20510558 5.96643993,8.91433402 5.96643993,8.6599089 C5.96643993,8.47817667 5.89374704,8.40548378 5.71201481,8.47817667 C5.05777879,8.62356245 4.43988921,8.76894823 3.78565318,8.91433402 C3.74930674,8.91433402 3.71296029,8.95068046 3.6402674,8.95068046 C3.56757451,8.95068046 3.49488162,8.98702691 3.45853517,8.91433402 C3.42218872,8.84164113 3.49488162,8.76894823 3.53122806,8.73260179 C3.82199963,8.51452311 4.14911764,8.29644444 4.43988921,8.07836576 C4.73066077,7.86028709 5.02143234,7.64220841 5.31220391,7.38778329 C5.16681812,7.3150904 5.05777879,7.38778329 4.94873945,7.38778329 C4.83970011,7.38778329 4.69431433,7.46047618 4.65796788,7.35143685 C4.62162144,7.20605106 4.76700722,7.16970462 4.87604656,7.13335817 C4.9850859,7.06066528 5.23951102,7.02431883 5.20316457,6.87893305 C5.20316457,6.73354727 4.9850859,6.69720082 4.83970011,6.62450793 C4.36719632,6.37008281 3.93103897,6.15200413 3.45853517,5.89757901 C3.42218872,5.86123257 3.38584228,5.86123257 3.34949583,5.82488612 C3.31314939,5.78853968 3.24045649,5.75219323 3.27680294,5.67950034 C3.31314939,5.60680745 3.38584228,5.60680745 3.45853517,5.64315389 C4.14911764,5.89757901 4.912393,5.9702719 5.60297547,6.15200413 C5.63932192,6.15200413 5.71201481,6.18835058 5.7847077,6.15200413 C5.67566837,6.0429648 5.56662903,5.93392546 5.42124325,5.78853968 C5.34855035,5.71584678 5.27585746,5.64315389 5.31220391,5.53411455 C5.3848968,5.46142166 5.45758969,5.49776811 5.53028258,5.49776811 C5.56662903,5.49776811 5.60297547,5.49776811 5.60297547,5.53411455 C5.82105415,5.60680745 5.89374704,5.53411455 5.82105415,5.31603588 C5.63932192,4.84353208 5.49393614,4.37102829 5.34855035,3.89852449 C5.31220391,3.78948515 5.20316457,3.68044582 5.31220391,3.60775292 C5.42124325,3.53506003 5.49393614,3.68044582 5.56662903,3.75313871 C6.00278638,4.18929606 6.40259728,4.66179985 6.83875463,5.0979572 C6.98414042,5.27968943 7.09317975,5.27968943 7.23856554,5.06161076 C7.27491198,4.95257142 7.34760488,4.84353208 7.45664421,4.87987853 C7.60203,4.91622497 7.5293371,5.06161076 7.56568355,5.13430365 C7.56568355,5.20699654 7.56568355,5.31603588 7.63837644,5.35238233 C7.71106933,5.38872877 7.74741578,5.27968943 7.82010867,5.20699654 C8.07453379,4.87987853 8.32895891,4.58910696 8.61973048,4.26198895 C8.69242337,4.18929606 8.72876982,4.08025672 8.83780915,4.11660317 C8.94684849,4.18929606 8.8741556,4.2983354 8.80146271,4.40737473 C8.54703759,4.95257142 8.36530536,5.49776811 8.14722668,6.0429648 C8.07453379,6.22469703 8.11088024,6.29738992 8.32895891,6.26104347 C8.58338403,6.22469703 8.8741556,6.18835058 9.12858072,6.15200413 C9.23762006,6.15200413 9.41935229,6.0429648 9.45569873,6.18835058 C9.49204518,6.33373636 9.31031295,6.37008281 9.20127361,6.40642925 C8.98319494,6.47912215 8.80146271,6.55181504 8.58338403,6.62450793 C8.4016518,6.69720082 8.32895891,6.76989371 8.54703759,6.87893305 C8.76511626,6.98797239 8.94684849,7.13335817 9.16492717,7.24239751 C9.23762006,7.27874395 9.3466594,7.3150904 9.31031295,7.46047618 C9.2739665,7.56951552 9.12858072,7.53316908 9.05588783,7.49682263 C8.80146271,7.46047618 8.54703759,7.42412974 8.29261247,7.38778329 C8.25626602,7.53316908 8.36530536,7.60586197 8.4016518,7.64220841 C8.8741556,8.26009799 9.3466594,8.84164113 9.81916319,9.45953071 C9.85550964,9.5322236 9.96454898,9.60491649 9.89185608,9.67760938 C9.81916319,9.78664872 9.71012385,9.67760938 9.63743096,9.64126293 C9.05588783,9.20510558 8.4743447,8.84164113 7.89280156,8.44183022 C7.82010867,8.40548378 7.78376223,8.33279088 7.71106933,8.33279088 C7.60203,8.36913733 7.67472289,8.47817667 7.63837644,8.55086956 C7.60203,8.69625534 7.74741578,8.91433402 7.56568355,8.95068046 C7.42029777,9.09606625 7.34760488,8.87798757 7.27491198,8.76894823 Z M12.2543751,14.1118758 C12.0726428,14.4753402 11.7818713,14.6570725 11.3093675,14.6570725 C11.1276352,14.6570725 10.945903,14.5843796 10.7641708,14.4389938 C10.5824386,14.293608 10.4007063,14.1118758 10.2189741,13.9301435 C10.0372419,13.7120649 9.89185608,13.7484113 9.71012385,13.9301435 C9.56473807,14.1118758 9.38300584,14.2572616 9.23762006,14.4026473 C8.83780915,14.7661118 8.29261247,14.7661118 7.92914801,14.4026473 C7.5293371,14.0391829 7.5293371,13.4576397 7.85645512,13.0578288 C8.03818735,12.8760966 8.21991958,12.6943644 8.4016518,12.5126322 C8.58338403,12.3672464 8.58338403,12.2218606 8.4016518,12.0764748 C8.18357313,11.8947426 8.0018409,11.6766639 7.82010867,11.4949317 C7.49299066,11.0951208 7.5293371,10.5862705 7.89280156,10.2228061 C8.25626602,9.85934161 8.76511626,9.82299516 9.16492717,10.1501132 C9.38300584,10.3318454 9.56473807,10.5135776 9.7464703,10.7316563 C9.89185608,10.9133885 10.0372419,10.9133885 10.1826277,10.7316563 C10.3280134,10.5499241 10.5097457,10.4045383 10.6551314,10.2591525 C11.0912888,9.85934161 11.6364855,9.89568806 12.0362964,10.295499 C12.3997608,10.6589634 12.3997608,11.2405066 11.9999499,11.6403175 C11.8545642,11.7857032 11.7091784,11.9674355 11.5274461,12.1128213 C11.3457139,12.258207 11.3820604,12.3672464 11.5274461,12.5126322 C11.7091784,12.6943644 11.8909106,12.8397502 12.0362964,13.0578288 C12.327068,13.3849469 12.3997608,13.7484113 12.2543751,14.1118758 Z" id="Shape"></path>
        </g>
    </g>
</svg>