<?xml version="1.0" encoding="utf-8"?>
<!-- Generator: Adobe Illustrator 19.0.0, SVG Export Plug-In . SVG Version: 6.00 Build 0)  -->
<svg version="1.1" id="Livello_1" xmlns="http://www.w3.org/2000/svg" xmlns:xlink="http://www.w3.org/1999/xlink" x="0px" y="0px"
	 viewBox="-259 369.7 91.3 55.3" style="enable-background:new -259 369.7 91.3 55.3;" xml:space="preserve">
<style type="text/css">
	.st0{fill:#FFFFFF;stroke:#000000;stroke-width:0.25;stroke-miterlimit:10;}
</style>
<g>
	<g>
		<path class="st0" d="M-195.4,375.1c0-1.9-1.3-3-3-2.7c-0.8,0.1-1.5,0.5-2.1,1c-1.1,1.1-2.2,2.2-3.3,3.3c-0.6,0.6-0.7,1.2-0.5,2
			c0.2,0.6,0.5,1.1,0.9,1.5c1.3,1.3,2.6,1.4,3.9,0.1c0.9-0.9,1.9-1.9,2.8-2.8C-195.9,376.8-195.5,376-195.4,375.1z M-201.8,383.9
			c0.6,0.1,1.3,0.2,1.9,0.3c2.1,0.3,4.2,0.7,6.3,1c0.3,0.1,0.8,0.2,0.7-0.4c-0.1-1-0.1-1.9-0.2-2.9c0-0.7-0.3-0.8-1-0.6
			c-1.2,0.4-2.5,0.7-3.7,1.1C-199.1,382.8-200.5,383.1-201.8,383.9z M-211.1,376.9c0.1,0,0.1,0.1,0.2,0.1c1.7-1.8,3.4-3.6,5-5.4
			c0.3-0.3,0.1-0.5-0.2-0.6c-1-0.3-2-0.7-3-1c-0.4-0.1-0.5,0.1-0.6,0.4C-210.1,372.6-210.6,374.8-211.1,376.9z"/>
	</g>
	<path class="st0" d="M-196.3,408.4c-0.1-3.9,0.1-7.8,0-11.7c0-2.3-0.6-4.5-1.9-6.4c-2.3-3.5-5.6-5.2-9.8-5.3c-0.9,0-1-0.2-0.8-1
		c0.3-1.3,0.7-2.6,1-3.9c0.2-1,0.5-1.9,0.7-2.9c-0.1,0-0.1-0.1-0.2-0.1c-1.2,1.3-2.4,2.5-3.6,3.8c-1.1,1.2-1.1,1.2-1.7-0.2
		c-0.2-0.4-0.3-0.4-0.6-0.1c-0.4,0.5-0.9,0.9-1.3,1.5c-0.4,0.5-0.8,0.5-1.2,0c-0.9-1-1.8-2-2.7-3c-1.1-1.2-2.1-2.4-3.2-3.6
		c-0.1,0.3-0.1,0.5,0,0.7c0.5,2.2,1.1,4.3,1.6,6.5c0.3,1.2,0.1,1.3-1.1,1.2c-0.3,0-0.6-0.2-0.9-0.1c0.1,0.1,0.1,0.2,0.1,0.3
		c0.1,0.3,0.6,0.5,0.4,0.9c-0.2,0.4-0.7,0.2-1.1,0.2c-1.1-0.1-2.3-0.3-3.4-0.5c-1-0.1-2-0.3-3-0.4c0,0.1-0.1,0.1-0.1,0.2
		c0.3,0.4,0.7,0.8,1,1.1c0.5,0.5,0.5,0.8-0.2,1.2c-3.4,2.1-5.4,5.2-5.6,9.2c-0.2,4.5-0.1,9,0,13.5c0,1.8,1.2,3.2,2.9,3.8
		c1.2,0.4,2.4,0.8,3.6,1.2c0.7,0.2,0.9,0.6,0.9,1.3c0,1.8,0.1,3.6,0.1,5.4c0,1.9,1.7,3.8,3.9,3.8c5-0.1,9.9,0,14.9,0
		c0.8,0,1.4-0.2,2-0.7c1-0.8,1.6-1.9,1.6-3.2c0-1.7,0-3.4,0-5.2c0-0.7,0.2-1.2,1-1.4c1.1-0.3,2.2-0.7,3.3-1.1
		C-197.3,412.4-196.2,411-196.3,408.4z M-219.5,404.5c0.5,0.4,1,1,1.4,1.5c0.7,0.9,0.9,1.8,0.4,2.8c-0.5,1-1.3,1.5-2.6,1.5
		c-0.5,0-1.1-0.3-1.5-0.7c-0.5-0.5-1-0.9-1.5-1.4c-0.4-0.4-0.7-0.4-1.1,0c-0.5,0.5-1,1-1.5,1.5c-1.2,1.1-2.7,1-3.7,0
		c-1.1-1.1-1.1-2.6,0-3.8c0.4-0.5,0.9-0.9,1.4-1.4c0.4-0.4,0.5-0.7,0-1.1c-0.5-0.4-0.9-0.9-1.4-1.4c-1.1-1.2-1.1-2.7-0.1-3.7
		c1.1-1.1,2.6-1.1,3.8,0.1c0.5,0.5,0.9,0.9,1.4,1.4c0.4,0.4,0.7,0.4,1,0c0.4-0.5,0.9-0.9,1.3-1.3c1.3-1.2,2.7-1.2,3.8,0
		c1.1,1.1,1.1,2.5-0.1,3.8c-0.4,0.4-0.7,0.8-1.2,1.2C-220,403.7-220,404.1-219.5,404.5z M-214,394.1c-0.4-0.4-0.6-0.4-1,0
		c-0.5,0.8-1.1,1.5-1.7,2.3c-0.1,0.2-0.3,0.4-0.6,0.3c-0.3-0.1-0.2-0.4-0.2-0.6c0-0.8-0.1-1.6-0.1-2.3c0-0.5-0.2-0.7-0.7-0.5
		c-1.8,0.4-3.5,0.8-5.3,1.2c-0.1,0-0.2,0.1-0.4,0.1c-0.2,0-0.4,0.1-0.5-0.1c-0.1-0.2,0.1-0.4,0.2-0.5c0.8-0.6,1.7-1.2,2.5-1.8
		c0.8-0.6,1.6-1.2,2.4-1.9c-0.4-0.2-0.7,0-1,0c-0.3,0-0.7,0.2-0.8-0.1c-0.1-0.4,0.3-0.5,0.6-0.6c0.3-0.2,1-0.3,0.9-0.7
		c0-0.4-0.6-0.5-1-0.7c-1.3-0.7-2.5-1.3-3.8-2c-0.1-0.1-0.2-0.1-0.3-0.2c-0.1-0.1-0.3-0.2-0.2-0.4c0.1-0.2,0.3-0.2,0.5-0.1
		c1.9,0.7,4,0.9,5.9,1.4c0.1,0,0.3,0.1,0.5,0c-0.3-0.3-0.6-0.6-1-1c-0.2-0.2-0.4-0.4-0.3-0.7c0.2-0.2,0.4-0.1,0.6-0.1
		c0.1,0,0.2,0,0.2,0.1c0.6,0.2,0.8,0,0.6-0.6c-0.5-1.3-0.9-2.6-1.3-3.9c-0.1-0.3-0.4-0.6-0.1-0.8c0.3-0.2,0.5,0.2,0.7,0.4
		c1.2,1.2,2.3,2.5,3.5,3.7c0.4,0.5,0.7,0.5,1.1-0.1c0.1-0.3,0.3-0.6,0.6-0.5c0.4,0.1,0.2,0.5,0.3,0.7c0,0.2,0,0.5,0.2,0.6
		c0.2,0.1,0.3-0.2,0.5-0.4c0.7-0.9,1.4-1.7,2.2-2.6c0.2-0.2,0.3-0.5,0.6-0.4c0.3,0.2,0.1,0.5-0.1,0.8c-0.7,1.5-1.2,3-1.8,4.5
		c-0.2,0.5-0.1,0.7,0.5,0.6c0.7-0.1,1.5-0.2,2.2-0.3c0.3,0,0.8-0.3,0.9,0.1c0.1,0.4-0.4,0.5-0.7,0.6c-0.6,0.2-1.1,0.4-1.7,0.6
		c-0.5,0.2-0.7,0.4-0.1,0.7c0.6,0.3,1.1,0.7,1.7,1c0.2,0.1,0.5,0.2,0.4,0.6c-0.1,0.3-0.5,0.2-0.7,0.1c-0.7-0.1-1.4-0.2-2.1-0.3
		c-0.1,0.4,0.2,0.6,0.3,0.7c1.3,1.7,2.6,3.3,3.9,5c0.1,0.2,0.4,0.4,0.2,0.6c-0.2,0.3-0.5,0-0.7-0.1c-1.6-1.2-3.2-2.2-4.8-3.3
		c-0.2-0.1-0.3-0.3-0.5-0.3c-0.3,0.1-0.1,0.4-0.2,0.6c-0.1,0.4,0.3,1-0.2,1.1C-213.6,395-213.8,394.4-214,394.1z M-200.3,408.8
		c-0.5,1-1.3,1.5-2.6,1.5c-0.5,0-1-0.2-1.5-0.6c-0.5-0.4-1-0.9-1.5-1.4c-0.5-0.6-0.9-0.5-1.4,0c-0.4,0.5-0.9,0.9-1.3,1.3
		c-1.1,1-2.6,1-3.6,0c-1.1-1-1.1-2.6-0.2-3.7c0.5-0.5,1-1,1.5-1.5c0.5-0.4,0.5-0.8,0-1.2c-0.6-0.5-1.1-1.1-1.6-1.6
		c-0.9-1.1-0.8-2.5,0.2-3.5c1-1,2.4-1.1,3.5-0.2c0.6,0.5,1.1,1,1.6,1.6c0.4,0.5,0.8,0.5,1.2,0c0.4-0.5,0.9-0.9,1.3-1.3
		c1.2-1.1,2.7-1,3.8,0.1c1,1,1,2.6-0.1,3.7c-0.4,0.4-0.8,0.9-1.3,1.3c-0.5,0.4-0.4,0.7,0,1.1c0.5,0.5,1,0.9,1.4,1.5
		C-200.1,406.8-199.9,407.8-200.3,408.8z"/>
</g>
</svg>
