<?xml version="1.0" encoding="UTF-8"?>
<svg width="92.8px" height="48.1638259px" viewBox="0 0 92.8 48.1638259" version="1.1" xmlns="http://www.w3.org/2000/svg" xmlns:xlink="http://www.w3.org/1999/xlink">
    <title>pistols</title>
    <g id="Page-1" stroke="none" stroke-width="1" fill="none" fill-rule="evenodd">
        <g id="pistols" fill="#FFFFFF" fill-rule="nonzero">
            <path d="M92.1,1.1 C91.7,0.9 91.4,0.4 91.1,0 C89,0 86.8,0 84.7,0 C84.7,0.2 84.7,0.5 84.7,0.7 C84.7,1 84.5,1.2 84.2,1.2 C84,1.2 83.7,1.2 83.5,1.2 C64.7,1.2 45.9,1.2 27.1,1.2 C27,1.2 26.8,1.2 26.7,1.2 C26.2,1.2 25.9,1 25.9,0.5 C25.9,0.3 25.8,0.2 25.7,0 C24,0 22.2,0 20.5,0 C20.5,0.2 20.5,0.5 20.5,0.7 C20.5,1 20.4,1.2 20.1,1.2 C19,1.2 18.4,2.1 17.6,2.7 C17.2,3 17.1,3.4 17.1,3.9 C17.1,4.9 17.2,6 17.1,7 C17,8.1 17.4,9 18.1,9.8 C18.4,10.1 18.7,10.5 18.8,10.9 C18.9,11.2 18.9,11.5 18.4,11.5 C17.7,11.5 17.1,11.5 16.4,11.4 C15.8,11.3 15.3,11.4 14.7,11.6 C13.6,11.9 13.3,13.5 14.2,14.4 C14.9,15.1 15.4,16 15.8,16.9 C16.5,18.6 16.6,21 15,22.4 C14.2,23.2 13.3,23.9 12.4,24.5 C9.9,26 7.5,27.6 5.4,29.6 C3.7,31.2 2.1,32.8 1.1,34.9 C0.8,35.5 0.5,36.1 0,36.7 C0,37.4 0,38 0,38.7 C1.1,39.7 2.2,40.6 3.3,41.6 C5.4,43.6 7.8,45.2 10.3,46.6 C11.1,47 11.8,47.5 12.6,47.9 C13.1,48.2 13.7,48.3 14.2,47.9 C14.8,47.4 15.2,46.9 15.3,46.1 C15.3,45.5 15.6,44.9 15.7,44.2 C15.8,43.6 16.2,43.2 16.6,42.8 C17.4,42.2 18.3,41.6 19.2,41.2 C19.7,41 20,40.6 20,40.1 C20.1,38.9 20.3,37.8 20.8,36.7 C20.9,36.4 21.1,36.1 21.3,35.9 C22.2,35.1 23.3,34.5 24.4,34 C24.8,33.8 25.1,33.5 25.2,33 C25.3,32.2 25.4,31.5 25.6,30.7 C26.2,28.9 26.6,28 28.7,28.1 C29.1,28.1 29.5,28.1 29.9,28.1 C30.2,28.1 30.5,27.9 30.6,27.6 C30.7,27.3 30.5,27.1 30.3,26.9 C30.1,26.8 29.8,26.7 29.9,26.4 C30.3,26.4 30.6,26.4 31,26.4 C32.1,26.4 33.1,26.5 34.1,27 C35.6,27.8 37.3,27.8 39,27.5 C41.2,27 42.9,25.7 44.1,23.8 C45,22.4 46.2,21.8 47.9,21.8 C50,21.8 52.1,21.8 54.2,21.8 C55.4,21.8 55.8,21.4 56.1,20.4 C56.3,19.6 56.3,19.6 57.1,19.6 C57.4,19.6 57.7,19.6 58,19.6 C69.1,19.6 80.3,19.6 91.4,19.6 C92.7,19.6 92.7,19.6 92.8,18.3 C92.8,12.9 92.8,7.6 92.8,2.2 C92.7,1.9 92.7,1.5 92.1,1.1 Z M37.1,26.3 C34.9,26.2 33.1,25.3 32,23.4 C31.4,22.4 31.5,22.3 32.6,22.3 C33,22.3 33.4,22.3 33.8,22.3 C34.9,22.3 34.9,22.3 34.7,21.3 C34.5,20.6 34.6,19.9 34.7,19.1 C35.1,17.5 36.1,16.4 37.5,15.7 C37.8,15.6 38.1,15.6 38.4,15.5 C39.1,15.4 39.2,15.4 39.1,14.7 C39.1,14.1 39.4,14.3 39.7,14.4 C41.9,15.3 43.7,17.7 43.6,20.2 C43.5,23.5 40.6,26.4 37.1,26.3 Z M86.3,12.2 C85.6,12.3 84.8,12.2 84.1,12.2 C84.1,12.2 84.1,12.2 84.1,12.2 C83.5,12.2 82.9,12.2 82.3,12.2 C82,12.2 81.6,12.2 81.3,12.4 C80.5,13 79,13.1 78.1,12.4 C77.9,12.2 77.6,12.2 77.3,12.2 C76.1,12.2 75,12.2 73.8,12.2 C73.4,12.2 73.1,12.2 72.8,12.6 C72.7,12.8 72.5,12.8 72.3,12.8 C71.7,12.8 71.1,12.8 70.5,12.8 C70.3,12.8 70.1,12.8 70,12.7 C69.6,12 69,12.2 68.4,12.2 C67.5,12.2 66.6,12.2 65.7,12.2 C65.2,12.2 64.7,12.1 64.4,12.6 C64.3,12.8 64,12.7 63.8,12.8 C63.3,12.8 62.7,12.8 62.2,12.8 C61.7,12.8 61.5,12.5 61.3,12.2 C61.1,11.9 60.5,12.3 60.2,11.9 C59.9,11.4 59.9,9.6 60.3,9.2 C60.4,9.1 60.6,9 60.7,9 C60.9,9 61.1,9 61.2,8.9 C62,7.9 63,8.5 63.9,8.4 C64,8.4 64.2,8.4 64.3,8.5 C64.7,9.2 65.4,9 66,9 C66.8,9 67.7,9 68.5,9 C69,9 69.6,9.2 70,8.5 C70.1,8.3 70.4,8.4 70.6,8.4 C71.1,8.4 71.7,8.4 72.2,8.4 C72.4,8.4 72.7,8.4 72.8,8.5 C73.2,9.2 73.8,9 74.4,9 C75.2,9 76,9 76.8,9 C77.4,9 77.9,9.1 78.4,8.5 C78.7,8.1 79.4,8.4 80,8.4 C80.5,8.4 81,8.3 81.3,8.8 C81.4,9 81.8,8.9 82.1,8.9 C83.1,8.9 84,8.9 85,8.9 C85.7,8.9 86.1,9.2 86.4,9.8 C86.6,10.2 86.8,10.7 86.9,11.1 C87.2,11.9 87,12.2 86.3,12.2 Z" id="Shape"></path>
        </g>
    </g>
</svg>