<?xml version="1.0" encoding="UTF-8"?>
<svg width="131.326252px" height="55.109475px" viewBox="0 0 131.326252 55.109475" version="1.1" xmlns="http://www.w3.org/2000/svg" xmlns:xlink="http://www.w3.org/1999/xlink">
    <title>pistols-charged</title>
    <g id="Page-1" stroke="none" stroke-width="1" fill="none" fill-rule="evenodd">
        <g id="pistols-charged" transform="translate(-0, 0)" fill="#FFFFFF" fill-rule="nonzero">
            <path d="M93.3408669,7.7 C92.8408669,7.4 92.4408669,7 92.1408669,6.6 C91.8408669,6.2 91.4408669,6.1 90.9408669,6.1 C89.4408669,6.1 87.9408669,6.1 86.4408669,6.1 C85.6408669,6.1 85.5408669,6.2 85.4408669,7 C85.3408669,7.4 85.2408669,7.5 84.8408669,7.5 C84.6408669,7.5 84.3408669,7.5 84.1408669,7.5 C65.2408669,7.5 46.3408669,7.5 27.3408669,7.5 C27.1408669,7.5 26.9408669,7.5 26.7408669,7.5 C26.3408669,7.5 26.1408669,7.4 26.0408669,6.9 C25.9408669,6.1 25.8408669,6.1 25.0408669,6.1 C23.9408669,6.1 22.7408669,6.1 21.6408669,6.1 C20.8408669,6.1 20.8408669,6.2 20.6408669,7 C20.5408669,7.2 20.5408669,7.5 20.2408669,7.5 C19.2408669,7.5 18.6408669,8.3 17.9408669,8.8 C17.2408669,9.3 17.0408669,9.9 17.0408669,10.7 C17.0408669,11.7 17.0408669,12.7 17.0408669,13.7 C17.0408669,14.4 17.1408669,15 17.6408669,15.6 C18.0408669,16 18.4408669,16.5 18.6408669,17 C18.9408669,17.6 18.8408669,17.8 18.1408669,17.8 C17.1408669,17.8 16.1408669,17.6 15.1408669,17.8 C14.7408669,17.9 14.2408669,18 14.0408669,18.4 C13.4408669,19.2 13.5408669,20 14.3408669,20.9 C15.3408669,22 15.9408669,23.2 16.2408669,24.6 C16.5408669,26.3 16.2408669,27.9 14.9408669,29.1 C13.9408669,30 12.8408669,30.8 11.7408669,31.5 C9.64086692,32.8 7.54086692,34.2 5.74086692,35.9 C3.44086692,38 1.54086692,40.4 0.240866917,43.2 C-0.259133083,44.3 0.0408669162,45.5 0.940866917,46.2 C1.84086692,47 2.74086692,47.8 3.64086692,48.6 C5.04086692,49.8 6.44086692,51 7.94086692,52 C9.44086692,53 11.0408669,53.8 12.6408669,54.7 C13.7408669,55.3 14.1408669,55.3 14.9408669,54.3 C15.2408669,54 15.3408669,53.7 15.4408669,53.3 C15.6408669,52.6 15.7408669,51.9 15.9408669,51.2 C16.0408669,50.8 16.1408669,50.4 16.4408669,50.1 C17.0408669,49.7 17.5408669,49.2 18.2408669,48.8 C20.8408669,47.6 20.2408669,47.7 20.7408669,45.3 C20.9408669,44 21.4408669,42.7 22.7408669,42 C23.4408669,41.6 24.1408669,41.2 24.9408669,40.8 C25.4408669,40.5 25.7408669,40.2 25.8408669,39.6 C25.9408669,38.6 26.1408669,37.5 26.4408669,36.6 C26.8408669,35.5 27.5408669,35 28.6408669,35 C29.0408669,35 29.5408669,35 29.9408669,35 C30.3408669,35 30.8408669,35.1 31.1408669,34.6 C31.4408669,34.1 30.8408669,33.9 30.5408669,33.4 C31.9408669,33.4 33.2408669,33.3 34.5408669,34 C36.7408669,35.1 39.0408669,35 41.2408669,34 C42.7408669,33.3 43.7408669,32.2 44.6408669,30.9 C45.5408669,29.6 46.7408669,28.8 48.3408669,28.9 C50.3408669,29 52.4408669,28.9 54.4408669,28.9 C56.0408669,28.9 56.3408669,28.7 56.7408669,27.1 C56.8408669,26.7 56.9408669,26.6 57.3408669,26.6 C57.6408669,26.6 57.9408669,26.6 58.1408669,26.6 C69.4408669,26.6 80.6408669,26.6 91.9408669,26.6 C92.2408669,26.6 92.5408669,26.6 92.8408669,26.6 C93.3408669,26.6 93.6408669,26.3 93.6408669,25.8 C93.6408669,25.5 93.6408669,25.2 93.6408669,24.9 C93.7408669,19.6 93.4408669,14.3 93.7408669,9 C93.7408669,8.4 93.7408669,7.9 93.3408669,7.7 Z M39.7408669,32.5 C39.0408669,32.7 38.3408669,32.9 37.8408669,32.9 C35.1408669,32.8 33.3408669,31.7 32.0408669,29.7 C31.6408669,29 31.8408669,28.7 32.5408669,28.7 C33.1408669,28.7 33.7408669,28.7 34.4408669,28.7 C34.9408669,28.7 35.1408669,28.5 35.0408669,28 C35.0408669,27.9 35.0408669,27.8 34.9408669,27.7 C34.2408669,25.1 36.2408669,22.2 38.9408669,21.8 C39.2408669,21.8 39.5408669,21.7 39.5408669,21.2 C39.5408669,20.5 39.6408669,20.5 40.2408669,20.7 C41.7408669,21.4 42.8408669,22.6 43.5408669,24.1 C44.9408669,27.6 43.0408669,31.3 39.7408669,32.5 Z M87.2408669,18.6 C86.1408669,18.6 85.0408669,18.6 83.9408669,18.6 C83.5408669,18.6 83.1408669,18.6 82.7408669,18.7 C82.6408669,18.7 82.3408669,18.7 82.3408669,18.8 C81.7408669,19.9 80.7408669,19.2 79.9408669,19.4 C79.7408669,19.5 79.3408669,19.4 79.2408669,19.2 C78.9408669,18.6 78.5408669,18.7 78.0408669,18.7 C77.1408669,18.7 76.1408669,18.7 75.2408669,18.7 C74.7408669,18.7 74.2408669,18.8 73.7408669,19.1 C72.9408669,19.5 72.0408669,19.5 71.1408669,19.4 C71.0408669,19.4 70.9408669,19.4 70.9408669,19.3 C70.5408669,18.5 69.8408669,18.7 69.1408669,18.7 C68.2408669,18.7 67.4408669,18.7 66.5408669,18.7 C66.1408669,18.7 65.7408669,18.7 65.3408669,19.1 C64.8408669,19.7 62.8408669,19.5 62.3408669,18.9 C62.2408669,18.8 62.1408669,18.7 61.9408669,18.7 C61.1408669,18.8 61.0408669,18.2 60.9408669,17.7 C60.8408669,17.2 60.8408669,16.7 61.0408669,16.3 C61.1408669,15.9 61.3408669,15.5 61.8408669,15.5 C61.9408669,15.5 62.1408669,15.5 62.2408669,15.4 C63.2408669,14.9 63.2408669,14.9 64.0408669,14.9 C64.6408669,14.9 65.2408669,14.8 65.6408669,15.4 C65.7408669,15.6 66.1408669,15.5 66.3408669,15.5 C67.4408669,15.5 68.4408669,15.5 69.5408669,15.5 C70.0408669,15.5 70.5408669,15.6 70.9408669,15.1 C71.0408669,15 71.2408669,14.9 71.4408669,15 C72.3408669,15.1 73.3408669,14.6 74.1408669,15.5 C74.2408669,15.6 74.5408669,15.6 74.7408669,15.6 C75.9408669,15.6 77.0408669,15.6 78.2408669,15.6 C78.5408669,15.6 78.9408669,15.6 79.1408669,15.3 C79.3408669,15 79.6408669,15 79.9408669,15.1 C80.8408669,15.2 81.7408669,14.8 82.4408669,15.6 C82.5408669,15.7 82.9408669,15.7 83.1408669,15.7 C84.0408669,15.7 85.0408669,15.7 85.9408669,15.7 C86.6408669,15.7 87.0408669,16 87.3408669,16.6 C87.5408669,17.1 87.7408669,17.6 87.9408669,18.1 C87.9408669,18.4 87.8408669,18.6 87.2408669,18.6 Z" id="Shape"></path>
            <path d="M113.840867,0.1 C115.940867,0.6 117.840867,1.3 119.740867,2.3 C122.340867,3.7 124.640867,5.6 126.640867,7.8 C127.940867,9.3 129.140867,10.9 130.040867,12.7 C131.340867,15.5 131.740867,18.4 130.840867,21.3 C130.340867,22.9 129.540867,24.3 128.640867,25.6 C126.440867,28.7 123.540867,31.1 120.240867,33.1 C117.140867,35 113.940867,36.5 110.440867,37.5 C110.340867,37.5 110.240867,37.5 110.140867,37.6 C109.340867,37.8 109.140867,37.6 109.340867,36.8 C109.740867,35.4 110.240867,34 110.740867,32.6 C111.240867,31.1 111.340867,31.1 109.740867,31.2 C107.340867,31.4 104.840867,31.6 102.440867,31.8 C101.140867,31.9 99.8408669,32 98.5408669,32.1 C98.2408669,32.1 97.9408669,32.2 97.6408669,31.9 C97.4408669,31.6 97.6408669,31.3 97.8408669,31.1 C98.5408669,30 99.2408669,28.9 99.9408669,27.8 C100.540867,26.9 101.040867,26 101.640867,25 C101.040867,24.7 100.440867,24.5 99.9408669,24.4 C99.0408669,24.2 98.1408669,24 97.2408669,23.7 C96.5408669,23.5 96.4408669,23.2 96.8408669,22.6 C97.9408669,21.2 99.1408669,19.9 100.340867,18.5 C100.940867,17.8 100.940867,17.8 100.440867,17 C99.7408669,15.9 99.0408669,14.9 98.3408669,13.8 C97.7408669,12.9 97.8408669,12.7 98.8408669,12.3 C100.940867,11.5 103.140867,10.8 105.140867,9.8 C105.340867,9.7 105.640867,9.8 105.840867,9.6 C105.940867,9.3 105.640867,9.1 105.540867,8.9 C104.440867,6.9 103.340867,5 102.240867,3 C102.140867,2.9 102.040867,2.8 102.040867,2.6 C101.940867,2.4 101.840867,2.1 102.040867,1.9 C102.240867,1.7 102.440867,1.7 102.740867,1.8 C103.740867,2.1 104.840867,2.4 105.840867,2.7 C108.540867,3.5 111.140867,4.2 113.840867,5 C113.940867,5 114.140867,5.1 114.240867,5 C113.540867,3.7 112.640867,2.4 111.940867,1.1 C111.740867,0.8 111.540867,0.5 111.640867,0 C112.340867,0.1 113.040867,0.1 113.840867,0.1 Z" id="Path"></path>
        </g>
    </g>
</svg>