<?xml version="1.0" encoding="utf-8"?>
<!-- Generator: Adobe Illustrator 19.0.0, SVG Export Plug-In . SVG Version: 6.00 Build 0)  -->
<svg version="1.1" id="Livello_1" xmlns="http://www.w3.org/2000/svg" xmlns:xlink="http://www.w3.org/1999/xlink" x="0px" y="0px"
	 viewBox="-239 369.7 132 55.3" style="enable-background:new -239 369.7 132 55.3;" xml:space="preserve">
<style type="text/css">
	.st0{fill:#FFFFFF;stroke:#000000;stroke-width:0.25;stroke-miterlimit:10;}
</style>
<g>
	<path class="st0" d="M-145.3,377.5c-0.5-0.3-0.9-0.7-1.2-1.1c-0.3-0.4-0.7-0.5-1.2-0.5c-1.5,0-3,0-4.5,0c-0.8,0-0.9,0.1-1,0.9
		c-0.1,0.4-0.2,0.5-0.6,0.5c-0.2,0-0.5,0-0.7,0c-18.9,0-37.8,0-56.8,0c-0.2,0-0.4,0-0.6,0c-0.4,0-0.6-0.1-0.7-0.6
		c-0.1-0.8-0.2-0.8-1-0.8c-1.1,0-2.3,0-3.4,0c-0.8,0-0.8,0.1-1,0.9c-0.1,0.2-0.1,0.5-0.4,0.5c-1,0-1.6,0.8-2.3,1.3
		c-0.7,0.5-0.9,1.1-0.9,1.9c0,1,0,2,0,3c0,0.7,0.1,1.3,0.6,1.9c0.4,0.4,0.8,0.9,1,1.4c0.3,0.6,0.2,0.8-0.5,0.8c-1,0-2-0.2-3,0
		c-0.4,0.1-0.9,0.2-1.1,0.6c-0.6,0.8-0.5,1.6,0.3,2.5c1,1.1,1.6,2.3,1.9,3.7c0.3,1.7,0,3.3-1.3,4.5c-1,0.9-2.1,1.7-3.2,2.4
		c-2.1,1.3-4.2,2.7-6,4.4c-2.3,2.1-4.2,4.5-5.5,7.3c-0.5,1.1-0.2,2.3,0.7,3c0.9,0.8,1.8,1.6,2.7,2.4c1.4,1.2,2.8,2.4,4.3,3.4
		c1.5,1,3.1,1.8,4.7,2.7c1.1,0.6,1.5,0.6,2.3-0.4c0.3-0.3,0.4-0.6,0.5-1c0.2-0.7,0.3-1.4,0.5-2.1c0.1-0.4,0.2-0.8,0.5-1.1
		c0.6-0.4,1.1-0.9,1.8-1.3c2.6-1.2,2-1.1,2.5-3.5c0.2-1.3,0.7-2.6,2-3.3c0.7-0.4,1.4-0.8,2.2-1.2c0.5-0.3,0.8-0.6,0.9-1.2
		c0.1-1,0.3-2.1,0.6-3c0.4-1.1,1.1-1.6,2.2-1.6c0.4,0,0.9,0,1.3,0c0.4,0,0.9,0.1,1.2-0.4c0.3-0.5-0.3-0.7-0.6-1.2
		c1.4,0,2.7-0.1,4,0.6c2.2,1.1,4.5,1,6.7,0c1.5-0.7,2.5-1.8,3.4-3.1c0.9-1.3,2.1-2.1,3.7-2c2,0.1,4.1,0,6.1,0c1.6,0,1.9-0.2,2.3-1.8
		c0.1-0.4,0.2-0.5,0.6-0.5c0.3,0,0.6,0,0.8,0c11.3,0,22.5,0,33.8,0c0.3,0,0.6,0,0.9,0c0.5,0,0.8-0.3,0.8-0.8c0-0.3,0-0.6,0-0.9
		c0.1-5.3-0.2-10.6,0.1-15.9C-144.9,378.2-144.9,377.7-145.3,377.5z M-198.9,402.3c-0.7,0.2-1.4,0.4-1.9,0.4
		c-2.7-0.1-4.5-1.2-5.8-3.2c-0.4-0.7-0.2-1,0.5-1c0.6,0,1.2,0,1.9,0c0.5,0,0.7-0.2,0.6-0.7c0-0.1,0-0.2-0.1-0.3
		c-0.7-2.6,1.3-5.5,4-5.9c0.3,0,0.6-0.1,0.6-0.6c0-0.7,0.1-0.7,0.7-0.5c1.5,0.7,2.6,1.9,3.3,3.4
		C-193.7,397.4-195.6,401.1-198.9,402.3z M-151.4,388.4c-1.1,0-2.2,0-3.3,0c-0.4,0-0.8,0-1.2,0.1c-0.1,0-0.4,0-0.4,0.1
		c-0.6,1.1-1.6,0.4-2.4,0.6c-0.2,0.1-0.6,0-0.7-0.2c-0.3-0.6-0.7-0.5-1.2-0.5c-0.9,0-1.9,0-2.8,0c-0.5,0-1,0.1-1.5,0.4
		c-0.8,0.4-1.7,0.4-2.6,0.3c-0.1,0-0.2,0-0.2-0.1c-0.4-0.8-1.1-0.6-1.8-0.6c-0.9,0-1.7,0-2.6,0c-0.4,0-0.8,0-1.2,0.4
		c-0.5,0.6-2.5,0.4-3-0.2c-0.1-0.1-0.2-0.2-0.4-0.2c-0.8,0.1-0.9-0.5-1-1c-0.1-0.5-0.1-1,0.1-1.4c0.1-0.4,0.3-0.8,0.8-0.8
		c0.1,0,0.3,0,0.4-0.1c1-0.5,1-0.5,1.8-0.5c0.6,0,1.2-0.1,1.6,0.5c0.1,0.2,0.5,0.1,0.7,0.1c1.1,0,2.1,0,3.2,0c0.5,0,1,0.1,1.4-0.4
		c0.1-0.1,0.3-0.2,0.5-0.1c0.9,0.1,1.9-0.4,2.7,0.5c0.1,0.1,0.4,0.1,0.6,0.1c1.2,0,2.3,0,3.5,0c0.3,0,0.7,0,0.9-0.3
		c0.2-0.3,0.5-0.3,0.8-0.2c0.9,0.1,1.8-0.3,2.5,0.5c0.1,0.1,0.5,0.1,0.7,0.1c0.9,0,1.9,0,2.8,0c0.7,0,1.1,0.3,1.4,0.9
		c0.2,0.5,0.4,1,0.6,1.5C-150.7,388.2-150.8,388.4-151.4,388.4z"/>
	<path class="st0" d="M-124.8,369.9c2.1,0.5,4,1.2,5.9,2.2c2.6,1.4,4.9,3.3,6.9,5.5c1.3,1.5,2.5,3.1,3.4,4.9
		c1.3,2.8,1.7,5.7,0.8,8.6c-0.5,1.6-1.3,3-2.2,4.3c-2.2,3.1-5.1,5.5-8.4,7.5c-3.1,1.9-6.3,3.4-9.8,4.4c-0.1,0-0.2,0-0.3,0.1
		c-0.8,0.2-1,0-0.8-0.8c0.4-1.4,0.9-2.8,1.4-4.2c0.5-1.5,0.6-1.5-1-1.4c-2.4,0.2-4.9,0.4-7.3,0.6c-1.3,0.1-2.6,0.2-3.9,0.3
		c-0.3,0-0.6,0.1-0.9-0.2c-0.2-0.3,0-0.6,0.2-0.8c0.7-1.1,1.4-2.2,2.1-3.3c0.6-0.9,1.1-1.8,1.7-2.8c-0.6-0.3-1.2-0.5-1.7-0.6
		c-0.9-0.2-1.8-0.4-2.7-0.7c-0.7-0.2-0.8-0.5-0.4-1.1c1.1-1.4,2.3-2.7,3.5-4.1c0.6-0.7,0.6-0.7,0.1-1.5c-0.7-1.1-1.4-2.1-2.1-3.2
		c-0.6-0.9-0.5-1.1,0.5-1.5c2.1-0.8,4.3-1.5,6.3-2.5c0.2-0.1,0.5,0,0.7-0.2c0.1-0.3-0.2-0.5-0.3-0.7c-1.1-2-2.2-3.9-3.3-5.9
		c-0.1-0.1-0.2-0.2-0.2-0.4c-0.1-0.2-0.2-0.5,0-0.7c0.2-0.2,0.4-0.2,0.7-0.1c1,0.3,2.1,0.6,3.1,0.9c2.7,0.8,5.3,1.5,8,2.3
		c0.1,0,0.3,0.1,0.4,0c-0.7-1.3-1.6-2.6-2.3-3.9c-0.2-0.3-0.4-0.6-0.3-1.1C-126.3,369.9-125.6,369.9-124.8,369.9z"/>
</g>
</svg>
