<?xml version="1.0" encoding="UTF-8"?>
<svg width="88.1015625px" height="55.0639053px" viewBox="0 0 88.1015625 55.0639053" version="1.1" xmlns="http://www.w3.org/2000/svg" xmlns:xlink="http://www.w3.org/1999/xlink">
    <title>rockets</title>
    <g id="Page-1" stroke="none" stroke-width="1" fill="none" fill-rule="evenodd">
        <g id="rockets" fill="#FFFFFF" fill-rule="nonzero">
            <path d="M88,10.0639053 C88,9.36390533 88,9.36390533 87.3,9.16390533 C87,9.06390533 86.6,9.06390533 86.4,8.76390533 C86.1,8.36390533 85.7,8.16390533 85.3,8.06390533 C82.9,7.26390533 80.5,6.56390533 78.1,5.76390533 C77.6,5.56390533 77.2,5.46390533 76.7,5.26390533 C79.2,5.16390533 81.7,5.16390533 84.2,5.26390533 C85.5,5.26390533 86.6,5.06390533 87.7,4.36390533 C88,4.16390533 88.1,4.06390533 88.1,3.76390533 C88.1,3.26390533 88.1,2.66390533 88.1,2.16390533 C88.1,0.763905325 88.2,0.863905325 86.8,0.863905325 C79.8,0.863905325 72.9,0.863905325 65.9,0.863905325 C65.6,0.863905325 65.2,0.963905325 65,0.763905325 C64.6,0.463905325 64.2,0.563905325 63.8,0.563905325 C61.1,0.563905325 58.5,0.563905325 55.8,0.563905325 C55.5,0.563905325 55.1,0.663905325 54.8,0.363905325 C54.5,0.0639053254 54.2,0.0639053254 53.9,0.0639053254 C51.2,0.0639053254 48.5,0.0639053254 45.8,0.0639053254 C45.4,0.0639053254 44.8,-0.236094675 44.6,0.463905325 C44.6,0.463905325 44.4,0.463905325 44.3,0.463905325 C44.1,0.463905325 43.9,0.463905325 43.6,0.463905325 C32.2,0.463905325 20.9,0.463905325 9.5,0.463905325 C8.5,0.463905325 8.5,0.463905325 8.4,1.36390533 C8.4,1.66390533 8.3,1.86390533 7.9,1.86390533 C7.6,1.86390533 7.4,1.86390533 7.1,1.86390533 C6.8,1.86390533 6.6,1.96390533 6.5,2.26390533 C6.4,2.76390533 6.1,2.76390533 5.8,2.76390533 C4.7,2.76390533 3.7,2.76390533 2.6,2.76390533 C2.1,2.76390533 1.7,2.86390533 1.4,3.26390533 C0.9,3.76390533 0.4,4.16390533 0,4.66390533 L0,13.3639053 C0.2,13.5639053 0.5,13.7639053 0.7,13.9639053 C1.4,14.7639053 2.1,15.2639053 3.3,15.2639053 C4.9,15.1639053 6.6,15.2639053 8.2,15.2639053 C8.8,15.2639053 8.8,15.2639053 8.8,15.8639053 C8.8,16.6639053 8.7,17.5639053 8.8,18.3639053 C8.9,19.7639053 8.9,19.7639053 10.3,19.7639053 C10.8,19.7639053 11.2,19.6639053 11.7,19.8639053 C11.6,19.9639053 11.6,20.0639053 11.5,20.1639053 C10.6,20.7639053 10.6,20.8639053 11.2,21.7639053 C11.8,22.8639053 12.5,23.8639053 13.1,24.8639053 C13.8,26.1639053 13.7,26.7639053 12.8,27.7639053 C12,28.6639053 11.2,29.6639053 10.4,30.5639053 C8.9,32.3639053 7.3,34.1639053 5.8,35.9639053 C4.5,37.4639053 3.2,39.0639053 1.8,40.5639053 C1.6,40.7639053 1.4,41.0639053 1.6,41.3639053 C1.7,41.5639053 1.6,41.6639053 1.5,41.7639053 C1.3,41.9639053 1.2,42.2639053 1,42.4639053 C0.7,42.7639053 0.8,43.0639053 1.1,43.3639053 C1.8,43.8639053 2.5,44.4639053 3.2,44.8639053 C4.8,45.8639053 6.3,46.9639053 7.8,48.0639053 C10.6,50.2639053 13.4,52.3639053 16.1,54.5639053 C16.5,54.8639053 16.9,55.0639053 17.5,55.0639053 C24.1,55.0639053 30.8,55.0639053 37.4,55.0639053 C37.5,55.0639053 37.7,55.0639053 37.8,55.0639053 C38.2,55.0639053 38.4,54.9639053 38.6,54.6639053 C38.8,54.2639053 39.1,53.8639053 39.3,53.5639053 C41.1,50.6639053 43,47.7639053 44.8,44.8639053 C46.6,42.0639053 48.3,39.2639053 50.1,36.4639053 C50.4,36.0639053 50.5,35.5639053 50.5,35.0639053 C50.5,32.9639053 50.5,30.9639053 50.5,28.8639053 C50.5,28.4639053 50.6,28.1639053 51,27.9639053 C51.6,27.6639053 52.1,27.4639053 52.6,27.0639053 C53,26.7639053 53.4,26.6639053 53.9,26.6639053 C57.6,26.6639053 61.3,26.6639053 65,26.6639053 C65.3,26.6639053 65.5,26.6639053 65.8,26.6639053 C66.2,26.6639053 66.5,26.4639053 66.5,25.9639053 C66.5,25.5639053 66.6,25.3639053 66.8,25.0639053 C67,24.7639053 67,24.4639053 67,24.1639053 C67,23.5639053 67,22.9639053 67,22.3639053 C67,22.0639053 67,21.8639053 66.9,21.6639053 C66.5,21.1639053 66.5,20.5639053 66.5,19.9639053 C66.5,18.8639053 66.5,17.7639053 66.5,16.5639053 C66.5,15.6639053 66.4,15.6639053 65.5,15.6639053 C65.3,15.6639053 65.1,15.6639053 64.9,15.6639053 C60.7,15.6639053 56.5,15.6639053 52.3,15.6639053 C51.6,15.6639053 51,15.4639053 50.3,15.0639053 C55.3,14.8639053 60.4,15.0639053 65.4,14.8639053 C72.3,14.6639053 79.1,14.8639053 86,14.8639053 C86.3,14.8639053 86.6,14.8639053 86.8,14.8639053 C87.4,14.7639053 87.5,14.6639053 87.5,14.0639053 C88,12.6639053 88,11.3639053 88,10.0639053 Z M47.6,33.7639053 C47.5,34.5639053 47.5,35.4639053 47.6,36.2639053 C47.6,36.7639053 47.5,37.2639053 47.2,37.6639053 C45.5,40.3639053 43.8,42.9639053 42.2,45.6639053 C40.8,47.8639053 39.4,50.1639053 38,52.3639053 C37.7,52.7639053 37.4,52.9639053 36.9,52.9639053 C33.8,52.9639053 30.6,52.9639053 27.5,52.9639053 C27.5,52.9639053 27.5,52.9639053 27.5,52.9639053 C24.4,52.9639053 21.3,52.9639053 18.2,52.9639053 C17.2,52.9639053 16.9,52.6639053 16.7,51.6639053 C16.6,50.8639053 16.5,50.0639053 16.4,49.3639053 C16,47.3639053 16.4,45.5639053 18,44.1639053 C18.8,43.4639053 19.3,42.5639053 19.6,41.5639053 C19.9,40.4639053 20.6,39.5639053 21.6,38.9639053 C22.3,38.5639053 22.8,37.9639053 23,37.1639053 C23.2,36.0639053 23.9,35.3639053 24.8,34.8639053 C25.5,34.4639053 26,33.8639053 26.5,33.2639053 C27,32.6639053 27,31.8639053 26.8,31.0639053 C26.6,30.0639053 26.5,28.9639053 26.5,27.8639053 C26.5,26.9639053 26.9,26.2639053 27.2,25.4639053 C27.3,25.1639053 27.6,25.0639053 27.9,25.2639053 C28.4,25.5639053 28.8,25.7639053 29.3,26.0639053 C29.6,26.2639053 29.6,26.4639053 29.6,26.7639053 C29.6,27.2639053 29.6,27.7639053 29.6,28.2639053 C29.6,28.9639053 29.7,29.5639053 29.9,30.1639053 C30.1,30.8639053 30.6,31.2639053 31.2,31.6639053 C31.4,31.7639053 31.6,31.7639053 31.8,31.5639053 C32,31.3639053 31.8,31.1639053 31.7,30.9639053 C30.8,29.6639053 30.7,28.1639053 31.6,26.7639053 C31.8,26.3639053 32.2,25.9639053 32.2,25.4639053 C32.2,25.1639053 32.4,25.0639053 32.6,25.0639053 C32.8,25.0639053 33,25.0639053 33.2,25.0639053 C37.3,25.0639053 41.5,25.0639053 45.6,25.0639053 C45.8,25.0639053 45.9,25.0639053 46.1,25.0639053 C46.4,25.0639053 46.6,25.2639053 46.6,25.5639053 C46.6,26.3639053 46.6,27.2639053 46.6,28.0639053 C46.6,28.6639053 46.6,29.1639053 46.5,29.7639053 C46.5,30.1639053 46.6,30.3639053 47.1,30.3639053 C47.8,30.4639053 48,30.7639053 48,31.4639053 C47.7,32.3639053 47.7,33.0639053 47.6,33.7639053 Z" id="Shape"></path>
        </g>
    </g>
</svg>