<?xml version="1.0" encoding="utf-8"?>
<!-- Generator: Adobe Illustrator 19.0.0, SVG Export Plug-In . SVG Version: 6.00 Build 0)  -->
<svg version="1.1" id="Livello_1" xmlns="http://www.w3.org/2000/svg" xmlns:xlink="http://www.w3.org/1999/xlink" x="0px" y="0px"
	 viewBox="-259 369.7 91.3 55.3" style="enable-background:new -259 369.7 91.3 55.3;" xml:space="preserve">
<style type="text/css">
	.st0{fill:#FFFFFF;stroke:#000000;stroke-width:0.25;stroke-miterlimit:10;}
</style>
<g>
</g>
<path class="st0" d="M-169.4,380c0-0.7,0-0.7-0.7-0.9c-0.3-0.1-0.7-0.1-0.9-0.4c-0.3-0.4-0.7-0.6-1.1-0.7c-2.4-0.8-4.8-1.5-7.2-2.3
	c-0.5-0.2-0.9-0.3-1.4-0.5c2.5-0.1,5-0.1,7.5,0c1.3,0,2.4-0.2,3.5-0.9c0.3-0.2,0.4-0.3,0.4-0.6c0-0.5,0-1.1,0-1.6
	c0-1.4,0.1-1.3-1.3-1.3c-7,0-13.9,0-20.9,0c-0.3,0-0.7,0.1-0.9-0.1c-0.4-0.3-0.8-0.2-1.2-0.2c-2.7,0-5.3,0-8,0c-0.3,0-0.7,0.1-1-0.2
	c-0.3-0.3-0.6-0.3-0.9-0.3c-2.7,0-5.4,0-8.1,0c-0.4,0-1-0.3-1.2,0.4c0,0-0.2,0-0.3,0c-0.2,0-0.4,0-0.7,0c-11.4,0-22.7,0-34.1,0
	c-1,0-1,0-1.1,0.9c0,0.3-0.1,0.5-0.5,0.5c-0.3,0-0.5,0-0.8,0c-0.3,0-0.5,0.1-0.6,0.4c-0.1,0.5-0.4,0.5-0.7,0.5c-1.1,0-2.1,0-3.2,0
	c-0.5,0-0.9,0.1-1.2,0.5c-0.5,0.5-1,0.9-1.4,1.4v8.7c0.2,0.2,0.5,0.4,0.7,0.6c0.7,0.8,1.4,1.3,2.6,1.3c1.6-0.1,3.3,0,4.9,0
	c0.6,0,0.6,0,0.6,0.6c0,0.8-0.1,1.7,0,2.5c0.1,1.4,0.1,1.4,1.5,1.4c0.5,0,0.9-0.1,1.4,0.1c-0.1,0.1-0.1,0.2-0.2,0.3
	c-0.9,0.6-0.9,0.7-0.3,1.6c0.6,1.1,1.3,2.1,1.9,3.1c0.7,1.3,0.6,1.9-0.3,2.9c-0.8,0.9-1.6,1.9-2.4,2.8c-1.5,1.8-3.1,3.6-4.6,5.4
	c-1.3,1.5-2.6,3.1-4,4.6c-0.2,0.2-0.4,0.5-0.2,0.8c0.1,0.2,0,0.3-0.1,0.4c-0.2,0.2-0.3,0.5-0.5,0.7c-0.3,0.3-0.2,0.6,0.1,0.9
	c0.7,0.5,1.4,1.1,2.1,1.5c1.6,1,3.1,2.1,4.6,3.2c2.8,2.2,5.6,4.3,8.3,6.5c0.4,0.3,0.8,0.5,1.4,0.5c6.6,0,13.3,0,19.9,0
	c0.1,0,0.3,0,0.4,0c0.4,0,0.6-0.1,0.8-0.4c0.2-0.4,0.5-0.8,0.7-1.1c1.8-2.9,3.7-5.8,5.5-8.7c1.8-2.8,3.5-5.6,5.3-8.4
	c0.3-0.4,0.4-0.9,0.4-1.4c0-2.1,0-4.1,0-6.2c0-0.4,0.1-0.7,0.5-0.9c0.6-0.3,1.1-0.5,1.6-0.9c0.4-0.3,0.8-0.4,1.3-0.4
	c3.7,0,7.4,0,11.1,0c0.3,0,0.5,0,0.8,0c0.4,0,0.7-0.2,0.7-0.7c0-0.4,0.1-0.6,0.3-0.9c0.2-0.3,0.2-0.6,0.2-0.9c0-0.6,0-1.2,0-1.8
	c0-0.3,0-0.5-0.1-0.7c-0.4-0.5-0.4-1.1-0.4-1.7c0-1.1,0-2.2,0-3.4c0-0.9-0.1-0.9-1-0.9c-0.2,0-0.4,0-0.6,0c-4.2,0-8.4,0-12.6,0
	c-0.7,0-1.3-0.2-2-0.6c5-0.2,10.1,0,15.1-0.2c6.9-0.2,13.7,0,20.6,0c0.3,0,0.6,0,0.8,0c0.6-0.1,0.7-0.2,0.7-0.8
	C-169.4,382.6-169.4,381.3-169.4,380z M-209.8,403.7c-0.1,0.8-0.1,1.7,0,2.5c0,0.5-0.1,1-0.4,1.4c-1.7,2.7-3.4,5.3-5,8
	c-1.4,2.2-2.8,4.5-4.2,6.7c-0.3,0.4-0.6,0.6-1.1,0.6c-3.1,0-6.3,0-9.4,0c0,0,0,0,0,0c-3.1,0-6.2,0-9.3,0c-1,0-1.3-0.3-1.5-1.3
	c-0.1-0.8-0.2-1.6-0.3-2.3c-0.4-2,0-3.8,1.6-5.2c0.8-0.7,1.3-1.6,1.6-2.6c0.3-1.1,1-2,2-2.6c0.7-0.4,1.2-1,1.4-1.8
	c0.2-1.1,0.9-1.8,1.8-2.3c0.7-0.4,1.2-1,1.7-1.6c0.5-0.6,0.5-1.4,0.3-2.2c-0.2-1-0.3-2.1-0.3-3.2c0-0.9,0.4-1.6,0.7-2.4
	c0.1-0.3,0.4-0.4,0.7-0.2c0.5,0.3,0.9,0.5,1.4,0.8c0.3,0.2,0.3,0.4,0.3,0.7c0,0.5,0,1,0,1.5c0,0.7,0.1,1.3,0.3,1.9
	c0.2,0.7,0.7,1.1,1.3,1.5c0.2,0.1,0.4,0.1,0.6-0.1c0.2-0.2,0-0.4-0.1-0.6c-0.9-1.3-1-2.8-0.1-4.2c0.2-0.4,0.6-0.8,0.6-1.3
	c0-0.3,0.2-0.4,0.4-0.4c0.2,0,0.4,0,0.6,0c4.1,0,8.3,0,12.4,0c0.2,0,0.3,0,0.5,0c0.3,0,0.5,0.2,0.5,0.5c0,0.8,0,1.7,0,2.5
	c0,0.6,0,1.1-0.1,1.7c0,0.4,0.1,0.6,0.6,0.6c0.7,0.1,0.9,0.4,0.9,1.1C-209.7,402.3-209.7,403-209.8,403.7z"/>
</svg>
