<?xml version="1.0" encoding="UTF-8"?>
<svg width="131.855339px" height="55px" viewBox="0 0 131.855339 55" version="1.1" xmlns="http://www.w3.org/2000/svg" xmlns:xlink="http://www.w3.org/1999/xlink">
    <title>shocks-charged</title>
    <g id="Page-1" stroke="none" stroke-width="1" fill="none" fill-rule="evenodd">
        <g id="shocks-charged" fill="#FFFFFF" fill-rule="nonzero">
            <path d="M96.7,14 C93.7,13.3 90.8,12.6 87.8,12.3 C87.8,12.3 87.8,12.2 87.8,12.2 C89.9,10.6 92,9 94.1,7.4 C95,6.7 96,6.1 96.9,5.4 C97.3,5.1 97.3,4.8 96.8,4.6 C96.4,4.4 95.9,4.3 95.4,4.2 C93.6,3.7 91.9,3.2 90.1,2.7 C88.8,2.3 87.6,2 86.3,1.7 C85.8,1.6 85.6,1.4 85.6,0.9 C85.6,0 85.5,0 84.6,0 C81.9,0 79.2,0 76.5,0 C76,0 75.6,0.1 75.5,0.6 C75.2,1.5 74.6,1.7 73.8,1.7 C70.1,1.6 66.4,1.7 62.7,1.7 C62.3,1.7 61.8,1.6 61.5,1.9 C61,2.3 60.5,2.3 59.9,2.3 C51.8,2.3 43.7,2.3 35.7,2.3 C32.3,2.3 28.9,2.3 25.5,2.3 C24.6,2.3 24.6,2.2 24.5,1.4 C24.4,0.2 24.3,0.1 23.1,0.1 C20.9,0.1 18.7,0.1 16.5,0.1 C16.1,0.1 15.9,0.3 15.7,0.6 C15.5,1.1 15.3,1.5 15,2 C12.9,5.3 10.8,8.7 8.6,12 C8.4,12.3 8.2,12.5 8.2,12.8 C8.1,14.1 8.1,15.4 8.2,16.6 C8.2,17 8.5,17.3 9,17.2 C11,17 13,17.2 15,17.1 C15.8,17.1 16.2,17.4 16.5,18.1 C16.8,18.8 16.8,19.6 16.4,20.3 C15.9,21.2 15.1,21.8 14.3,22.4 C12.6,23.6 10.8,24.5 9.2,25.8 C7.5,27.2 5.9,28.5 4.2,29.9 C2.7,31.2 1.4,32.6 0.6,34.5 C0.5,34.8 0.2,35.2 0,35.5 C0,36.8 0,38.1 0,39.5 C0.3,39.9 0.5,40.4 1.2,40.2 C1.5,40.1 1.6,40.4 1.8,40.6 C2.1,40.9 2.4,41.2 2.7,41.5 C3.4,42.1 3.6,43.4 3.1,44.1 C1.9,45.7 2.6,48 3.8,49.3 C4.6,50.2 5.6,51 6.4,52 C8.3,54.1 10.6,54.9 13.3,55 C16.9,55 20.6,55 24.2,55 C25.6,55 27,54.6 28.1,53.8 C28.9,53.2 29.7,52.8 30.6,52.3 C31,52.1 31.4,52.2 31.7,52.4 C32.7,53.1 32.8,53.1 33.6,52.1 C33.9,51.8 34.1,51.4 34.6,51.4 C35.8,51.3 36.3,50.3 36.7,49.5 C37,48.9 37.2,48.4 37.6,47.9 C41,43.5 44.3,39 47.8,34.6 C48.4,33.8 48.6,33.1 48.2,32.1 C48,31.7 47.9,31.3 47.7,30.8 C47.6,30.3 47.7,30.1 48.2,30.1 C48.8,30.1 49.3,30.1 49.9,30.1 C50.3,30.1 50.4,30.3 50.5,30.6 C50.7,31.5 50.7,31.5 51.5,31.5 C52.9,31.5 54.2,31.5 55.6,31.5 C55.9,31.5 56.3,31.5 56.5,31.3 C56.9,30.8 57.4,30.9 57.9,30.9 C58.6,30.9 59.2,30.9 59.9,30.9 C65.9,30.9 71.9,30.9 77.9,30.9 C78.3,30.9 78.8,30.8 79.2,31.2 C79.5,31.6 80,31.6 80.4,31.6 C81,31.6 81.5,31.6 82.1,31.6 C84.9,31.7 87.6,31.5 90.3,30.6 C92.3,29.9 94.4,29.5 96.4,28.9 C96.7,28.8 97,28.7 97.1,28.4 C97.2,28.1 96.9,27.9 96.6,27.8 C94.5,26.2 92.3,24.6 90.2,23 C89.3,22.3 88.4,21.7 87.4,20.8 C88.7,20.9 89.8,20.6 90.9,20.4 C92.8,20 94.7,19.6 96.6,19.2 C97.7,19 97.8,18.9 97.8,17.7 C97.8,17.1 97.8,16.5 97.8,15.9 C97.8,14.3 97.7,14.2 96.7,14 Z M26.8,48.1 C26.7,48.8 26.7,49.5 26.3,50.1 C26.1,50.4 25.8,50.6 25.4,50.6 C24.8,50.7 24.2,50.8 23.7,50.8 C22,50.8 20.3,50.8 18.6,50.8 C17.1,50.8 15.6,50.8 14,50.8 C13.1,50.8 12.1,50.7 11.2,50.6 C10.5,50.6 10,50.1 9.5,49.6 C8.5,48.6 7.6,47.6 6.6,46.6 C6.3,46.3 6,46 6.1,45.6 C6.3,45.1 6.8,45.3 7.2,45.3 C7.6,45.3 8,45.5 8.3,45.8 C8.8,46.3 9.3,46.7 9.6,47.2 C10,47.7 10.4,47.9 11.1,48 C12.7,48.1 14.2,48 15.7,48 C17.7,47.9 19.7,48 21.7,48 C22.4,48 22.8,47.8 23.3,47.2 C24.4,45.7 24.4,45.7 25.8,46.9 C26.3,47.4 26.9,47.6 26.8,48.1 Z M35.5,27.4 C34.6,28.6 33.6,29.9 32.7,31.1 C29.9,34.8 27.1,38.5 24.2,42.3 C23.7,42.9 23.2,43.5 22.8,44.2 C22.5,44.6 22.2,44.7 21.7,44.7 C20.8,44.7 19.9,44.7 19,44.7 C19,44.7 19,44.7 19,44.7 C18.1,44.7 17.2,44.7 16.3,44.7 C15.6,44.7 15.5,44.6 15.5,43.8 C15.5,41.6 15.9,39.5 17,37.5 C18.2,35.2 20,33.5 21.7,31.6 C23.9,29.1 26.1,26.7 28.3,24.2 C28.6,23.8 29,23.5 29.3,23.1 C29.7,22.7 30.1,22.4 30.7,22.4 C31.7,22.3 32.3,22.6 32.8,23.6 C33.1,24.3 33.6,25 34,25.7 C34.3,26.2 34.6,26.4 35.2,26.5 C36,26.5 36,26.7 35.5,27.4 Z M46.5,22.3 C46.5,23.1 46.4,23.2 45.6,23.2 C42.1,23.2 38.7,23.2 35.2,23.2 C34.6,23.2 33.7,22.4 33.7,21.7 C33.7,21.4 33.9,21.3 34.2,21.3 C35,21.3 35.7,21.3 36.5,21.3 C36.9,21.3 37.3,21.4 37.6,21.2 C37.6,19.4 37.6,17.7 37.6,16 C37.6,14.8 38.6,13.8 39.8,13.8 C41,13.8 42.2,13.8 43.3,13.8 C44.5,13.8 44.5,13.8 44.5,15 C44.5,15.8 44.5,16.6 44.5,17.4 C44.5,17.9 44.7,18.2 45.2,18.1 C45.3,18.1 45.5,18.1 45.6,18.1 C46.4,18.1 46.5,18.2 46.5,19 C46.5,20.1 46.5,21.2 46.5,22.3 Z" id="Shape"></path>
            <path d="M109.1,9.1 C108.2,7.3 107.3,5.8 106.4,4.2 C106.1,3.8 105.9,3.3 105.7,2.8 C105.5,2.3 105.7,2.1 106.2,2.2 C106.8,2.3 107.5,2.5 108.1,2.7 C110.5,3.4 113,4.1 115.4,4.8 C115.7,4.9 116,5.1 116.3,4.8 C116.1,4.1 115.5,3.6 115.2,3 C115,2.5 114.6,2.1 114.3,1.6 C114.1,1.3 113.9,1.1 114.1,0.7 C114.3,0.4 114.6,0.5 114.9,0.6 C117.7,0.8 120.2,1.8 122.5,3.2 C126,5.4 128.9,8.2 130.7,12 C132.1,14.9 132.3,17.9 130.9,20.9 C129.6,23.6 127.6,25.9 125.3,27.8 C121.7,30.7 117.7,32.8 113.2,34.1 C113,34.2 112.8,34.2 112.6,34.3 C112.2,34.4 112,34.1 112.1,33.8 C112.2,33.4 112.3,32.9 112.5,32.5 C112.9,31.2 113.4,29.9 113.8,28.6 C113.4,28.4 113,28.4 112.7,28.5 C110,28.8 107.4,28.9 104.7,29.1 C104,29.1 103.3,29.3 102.5,29.3 C101.6,29.3 101.4,29 101.9,28.3 C102.9,26.7 103.9,25.1 104.9,23.5 C105,23.4 105.1,23.2 105.2,23 C104.8,22.7 104.3,22.6 103.8,22.5 C103,22.3 102.3,22.1 101.5,21.9 C100.6,21.6 100.6,21.4 101.1,20.7 C102.1,19.5 103.1,18.3 104.1,17.1 C104.5,16.7 104.5,16.4 104.2,15.9 C103.6,15 102.9,14.1 102.3,13.1 C101.7,12.2 101.8,12 102.7,11.7 C104.6,11 106.5,10.3 108.4,9.5 C108.7,9.3 108.9,9.2 109.1,9.1 Z" id="Path"></path>
        </g>
    </g>
</svg>