<?xml version="1.0" encoding="UTF-8"?>
<svg width="98.6px" height="55.0444444px" viewBox="0 0 98.6 55.0444444" version="1.1" xmlns="http://www.w3.org/2000/svg" xmlns:xlink="http://www.w3.org/1999/xlink">
    <title>shocks</title>
    <g id="Page-1" stroke="none" stroke-width="1" fill="none" fill-rule="evenodd">
        <g id="shocks" transform="translate(0, 0)" fill="#FFFFFF" fill-rule="nonzero">
            <path d="M98.6,15.3 C98.6,14.7 98.4,14.4 97.8,14.3 C96.1,13.9 94.3,13.6 92.6,13.2 C91.2,12.9 89.9,12.5 88.5,12.6 C88.7,12.3 88.9,12.2 89,12 C91.8,9.9 94.5,7.8 97.3,5.7 C97.5,5.5 98,5.4 97.8,5 C97.7,4.6 97.3,4.7 97,4.6 C93.9,3.7 90.8,2.9 87.7,1.9 C87.2,1.8 86.5,2 86.3,1.5 C86.1,1.1 86.2,0.5 86.1,-5.68434189e-14 C82.8,-5.68434189e-14 79.6,-5.68434189e-14 76.3,-5.68434189e-14 C75.6,1.8 75.6,1.8 73.7,1.8 C70.1,1.8 66.5,1.8 62.9,1.8 C62.5,1.8 62.1,1.7 61.8,1.9 C61.3,2.4 60.6,2.3 60,2.3 C48.7,2.3 37.4,2.3 26.1,2.3 C25.9,2.3 25.6,2.3 25.4,2.3 C24.7,2.3 24.4,2 24.5,1.4 C24.6,0.5 24.2,0.1 23.3,-5.68434189e-14 C20.9,-5.68434189e-14 18.5,-5.68434189e-14 16,-5.68434189e-14 C15.9,0.6 15.6,1.2 15.2,1.7 C13.5,4.4 11.8,7 10.1,9.6 C8.2,12.6 8.2,12.5 8.3,16.1 C8.3,17.1 8.5,17.3 9.5,17.2 C11.3,17.1 13.1,17.1 14.8,17 C16.3,17 17.3,18.5 16.7,19.9 C16.4,20.7 15.9,21.3 15.2,21.8 C11.7,24.1 8.3,26.4 5.1,29.1 C2.8,31 1,33.2 0,36 C0,37 0,38.1 0,39.1 C0.2,39.5 0.2,40.1 0.7,40.2 C1.6,40.2 2,40.8 2.5,41.3 C3.6,42.4 3.7,43.2 3,44.6 C2.9,44.9 2.7,45.1 2.7,45.4 C2.5,47.1 3.1,48.5 4.2,49.7 C4.8,50.3 5.4,50.9 6,51.5 C7.8,53.7 10.1,54.9 13,55 C16.9,55 20.9,55.1 24.8,55 C26.3,55 27.9,54.6 29.1,53.4 C29.7,52.8 30.6,52.5 31.4,52.2 C31.8,52 32.2,52.6 32.6,52.9 C32.9,53.1 33.2,53.1 33.5,52.8 C33.7,52.5 34,52.3 34.2,52 C34.5,51.6 34.9,51.3 35.3,51.5 C35.7,51.6 35.8,51.4 36,51.2 C36.7,50.5 36.9,49.4 37.5,48.7 C40.8,44.3 44,39.9 47.5,35.6 C48.7,34.1 49,32.9 48.2,31.2 C48,30.8 47.7,30.3 48.5,30.1 C49.7,29.8 51,30.1 51.1,30.6 C51.1,30.6 51.1,30.7 51.1,30.7 C51,31.4 51.4,31.6 52,31.6 C53.2,31.6 54.4,31.6 55.5,31.6 C56.2,31.6 56.9,31.7 57.4,31 C57.6,30.7 58,30.8 58.3,30.8 C65.1,30.8 71.8,30.8 78.6,30.8 C78.9,30.8 79.3,30.7 79.5,31 C80.1,31.6 80.8,31.6 81.5,31.6 C82.9,31.6 84.4,31.6 85.8,31.6 C86.6,31.6 87.5,31.5 88.3,31.3 C91.2,30.5 94,29.7 96.9,28.9 C97.2,28.8 97.6,28.8 97.7,28.5 C97.8,28.1 97.4,27.9 97.2,27.7 C94.9,26 92.6,24.3 90.3,22.5 C89.6,21.9 88.8,21.5 88.1,20.7 C91.3,20.4 94.4,19.4 97.5,18.9 C98.2,18.8 98.5,18.4 98.4,17.7 C98.5,16.8 98.5,16.1 98.6,15.3 Z M27.2,48.9 C27.2,49 27.1,49.1 27.1,49.2 C26.8,51 26.4,51.4 24.5,51.4 C22.6,51.4 20.8,51.4 18.5,51.4 C16.7,51.3 14.5,51.5 12.2,51.3 C11.3,51.2 10.6,50.9 10,50.3 C8.9,49.2 7.9,48.1 6.9,47 C6.7,46.8 6.4,46.5 6.6,46.2 C6.8,45.9 7.1,46 7.3,46 C8.6,45.8 9.3,46.9 9.9,47.7 C10.5,48.5 11.2,48.8 12.2,48.7 C15.7,48.5 19.1,48.5 22.6,48.5 C23.4,48.5 23.7,48 24.1,47.5 C25,46.3 25,46.3 26.1,47.3 C26.3,47.5 26.5,47.6 26.7,47.8 C27.2,48.1 27.4,48.5 27.2,48.9 Z M36,27.7 C34.9,29.2 33.7,30.6 32.6,32.1 C29.6,36.1 26.5,40.1 23.5,44.2 C23,44.9 22.5,45.2 21.7,45.1 C20.9,45 20.2,45.1 19.4,45.1 C18.5,45.1 17.6,45.1 16.7,45.1 C16.1,45.1 15.9,44.9 15.9,44.3 C15.9,41.8 16.4,39.6 17.7,37.4 C19,35.3 20.8,33.7 22.3,31.8 C23.9,29.8 25.7,28.1 27.3,26.1 C28.1,25.1 28.9,24.2 29.8,23.3 C30.8,22.4 32.2,22.6 32.9,23.7 C33.4,24.5 33.9,25.2 34.3,26 C34.6,26.5 34.9,26.8 35.5,26.7 C35.7,26.7 36,26.6 36.1,26.9 C36.4,27.3 36.2,27.5 36,27.7 Z M47,22.5 C47,23.1 46.8,23.4 46.1,23.4 C42.6,23.4 39.2,23.4 35.7,23.4 C34.6,23.4 34.6,22.4 34.1,21.9 C34.1,21.8 34.2,21.8 34.2,21.7 C35.3,21.7 36.3,21.7 37.4,21.7 C37.9,21.7 38.2,21.7 38,20.9 C37.8,19.2 37.9,17.5 37.9,15.8 C37.9,15 39.2,14 40,14 C41.4,14 42.7,14 44.1,14 C44.7,14 44.9,14.2 44.9,14.8 C44.8,15.7 44.9,16.6 44.9,17.5 C44.9,18.1 45,18.3 45.7,18.3 C46.9,18.2 47.1,18.3 47.1,19.5 C47,20.6 47,21.6 47,22.5 Z" id="Shape"></path>
        </g>
    </g>
</svg>