<?xml version="1.0" encoding="utf-8"?>
<!-- Generator: Adobe Illustrator 19.0.0, SVG Export Plug-In . SVG Version: 6.00 Build 0)  -->
<svg version="1.1" id="Livello_1" xmlns="http://www.w3.org/2000/svg" xmlns:xlink="http://www.w3.org/1999/xlink" x="0px" y="0px"
	 viewBox="-239 369.7 132 55.3" style="enable-background:new -239 369.7 132 55.3;" xml:space="preserve">
<style type="text/css">
	.st0{fill:#FFFFFF;stroke:#000000;stroke-width:0.25;stroke-miterlimit:10;}
</style>
<g>
	<path class="st0" d="M-142.2,384.1c-3-0.7-5.9-1.4-8.9-1.7c0,0,0-0.1,0-0.1c2.1-1.6,4.2-3.2,6.3-4.8c0.9-0.7,1.9-1.3,2.8-2
		c0.4-0.3,0.4-0.6-0.1-0.8c-0.4-0.2-0.9-0.3-1.4-0.4c-1.8-0.5-3.5-1-5.3-1.5c-1.3-0.4-2.5-0.7-3.8-1c-0.5-0.1-0.7-0.3-0.7-0.8
		c0-0.9-0.1-0.9-1-0.9c-2.7,0-5.4,0-8.1,0c-0.5,0-0.9,0.1-1,0.6c-0.3,0.9-0.9,1.1-1.7,1.1c-3.7-0.1-7.4,0-11.1,0
		c-0.4,0-0.9-0.1-1.2,0.2c-0.5,0.4-1,0.4-1.6,0.4c-8.1,0-16.2,0-24.2,0c-3.4,0-6.8,0-10.2,0c-0.9,0-0.9-0.1-1-0.9
		c-0.1-1.2-0.2-1.3-1.4-1.3c-2.2,0-4.4,0-6.6,0c-0.4,0-0.6,0.2-0.8,0.5c-0.2,0.5-0.4,0.9-0.7,1.4c-2.1,3.3-4.2,6.7-6.4,10
		c-0.2,0.3-0.4,0.5-0.4,0.8c-0.1,1.3-0.1,2.6,0,3.8c0,0.4,0.3,0.7,0.8,0.6c2-0.2,4,0,6-0.1c0.8,0,1.2,0.3,1.5,1
		c0.3,0.7,0.3,1.5-0.1,2.2c-0.5,0.9-1.3,1.5-2.1,2.1c-1.7,1.2-3.5,2.1-5.1,3.4c-1.7,1.4-3.3,2.7-5,4.1c-1.5,1.3-2.8,2.7-3.6,4.6
		c-0.1,0.3-0.4,0.7-0.6,1c0,1.3,0,2.6,0,4c0.3,0.4,0.5,0.9,1.2,0.7c0.3-0.1,0.4,0.2,0.6,0.4c0.3,0.3,0.6,0.6,0.9,0.9
		c0.7,0.6,0.9,1.9,0.4,2.6c-1.2,1.6-0.5,3.9,0.7,5.2c0.8,0.9,1.8,1.7,2.6,2.7c1.9,2.1,4.2,2.9,6.9,3c3.6,0,7.3,0,10.9,0
		c1.4,0,2.8-0.4,3.9-1.2c0.8-0.6,1.6-1,2.5-1.5c0.4-0.2,0.8-0.1,1.1,0.1c1,0.7,1.1,0.7,1.9-0.3c0.3-0.3,0.5-0.7,1-0.7
		c1.2-0.1,1.7-1.1,2.1-1.9c0.3-0.6,0.5-1.1,0.9-1.6c3.4-4.4,6.7-8.9,10.2-13.3c0.6-0.8,0.8-1.5,0.4-2.5c-0.2-0.4-0.3-0.8-0.5-1.3
		c-0.1-0.5,0-0.7,0.5-0.7c0.6,0,1.1,0,1.7,0c0.4,0,0.5,0.2,0.6,0.5c0.2,0.9,0.2,0.9,1,0.9c1.4,0,2.7,0,4.1,0c0.3,0,0.7,0,0.9-0.2
		c0.4-0.5,0.9-0.4,1.4-0.4c0.7,0,1.3,0,2,0c6,0,12,0,18,0c0.4,0,0.9-0.1,1.3,0.3c0.3,0.4,0.8,0.4,1.2,0.4c0.6,0,1.1,0,1.7,0
		c2.8,0.1,5.5-0.1,8.2-1c2-0.7,4.1-1.1,6.1-1.7c0.3-0.1,0.6-0.2,0.7-0.5c0.1-0.3-0.2-0.5-0.5-0.6c-2.1-1.6-4.3-3.2-6.4-4.8
		c-0.9-0.7-1.8-1.3-2.8-2.2c1.3,0.1,2.4-0.2,3.5-0.4c1.9-0.4,3.8-0.8,5.7-1.2c1.1-0.2,1.2-0.3,1.2-1.5c0-0.6,0-1.2,0-1.8
		C-141.1,384.4-141.2,384.3-142.2,384.1z M-212.1,418.2c-0.1,0.7-0.1,1.4-0.5,2c-0.2,0.3-0.5,0.5-0.9,0.5c-0.6,0.1-1.2,0.2-1.7,0.2
		c-1.7,0-3.4,0-5.1,0c-1.5,0-3,0-4.6,0c-0.9,0-1.9-0.1-2.8-0.2c-0.7,0-1.2-0.5-1.7-1c-1-1-1.9-2-2.9-3c-0.3-0.3-0.6-0.6-0.5-1
		c0.2-0.5,0.7-0.3,1.1-0.3c0.4,0,0.8,0.2,1.1,0.5c0.5,0.5,1,0.9,1.3,1.4c0.4,0.5,0.8,0.7,1.5,0.8c1.6,0.1,3.1,0,4.6,0c2-0.1,4,0,6,0
		c0.7,0,1.1-0.2,1.6-0.8c1.1-1.5,1.1-1.5,2.5-0.3C-212.6,417.5-212,417.7-212.1,418.2z M-203.4,397.5c-0.9,1.2-1.9,2.5-2.8,3.7
		c-2.8,3.7-5.6,7.4-8.5,11.2c-0.5,0.6-1,1.2-1.4,1.9c-0.3,0.4-0.6,0.5-1.1,0.5c-0.9,0-1.8,0-2.7,0c0,0,0,0,0,0c-0.9,0-1.8,0-2.7,0
		c-0.7,0-0.8-0.1-0.8-0.9c0-2.2,0.4-4.3,1.5-6.3c1.2-2.3,3-4,4.7-5.9c2.2-2.5,4.4-4.9,6.6-7.4c0.3-0.4,0.7-0.7,1-1.1
		c0.4-0.4,0.8-0.7,1.4-0.7c1-0.1,1.6,0.2,2.1,1.2c0.3,0.7,0.8,1.4,1.2,2.1c0.3,0.5,0.6,0.7,1.2,0.8
		C-202.9,396.6-202.9,396.8-203.4,397.5z M-192.4,392.4c0,0.8-0.1,0.9-0.9,0.9c-3.5,0-6.9,0-10.4,0c-0.6,0-1.5-0.8-1.5-1.5
		c0-0.3,0.2-0.4,0.5-0.4c0.8,0,1.5,0,2.3,0c0.4,0,0.8,0.1,1.1-0.1c0-1.8,0-3.5,0-5.2c0-1.2,1-2.2,2.2-2.2c1.2,0,2.4,0,3.5,0
		c1.2,0,1.2,0,1.2,1.2c0,0.8,0,1.6,0,2.4c0,0.5,0.2,0.8,0.7,0.7c0.1,0,0.3,0,0.4,0c0.8,0,0.9,0.1,0.9,0.9
		C-192.4,390.2-192.4,391.3-192.4,392.4z"/>
	<path class="st0" d="M-129.8,379.2c-0.9-1.8-1.8-3.3-2.7-4.9c-0.3-0.4-0.5-0.9-0.7-1.4c-0.2-0.5,0-0.7,0.5-0.6
		c0.6,0.1,1.3,0.3,1.9,0.5c2.4,0.7,4.9,1.4,7.3,2.1c0.3,0.1,0.6,0.3,0.9,0c-0.2-0.7-0.8-1.2-1.1-1.8c-0.2-0.5-0.6-0.9-0.9-1.4
		c-0.2-0.3-0.4-0.5-0.2-0.9c0.2-0.3,0.5-0.2,0.8-0.1c2.8,0.2,5.3,1.2,7.6,2.6c3.5,2.2,6.4,5,8.2,8.8c1.4,2.9,1.6,5.9,0.2,8.9
		c-1.3,2.7-3.3,5-5.6,6.9c-3.6,2.9-7.6,5-12.1,6.3c-0.2,0.1-0.4,0.1-0.6,0.2c-0.4,0.1-0.6-0.2-0.5-0.5c0.1-0.4,0.2-0.9,0.4-1.3
		c0.4-1.3,0.9-2.6,1.3-3.9c-0.4-0.2-0.8-0.2-1.1-0.1c-2.7,0.3-5.3,0.4-8,0.6c-0.7,0-1.4,0.2-2.2,0.2c-0.9,0-1.1-0.3-0.6-1
		c1-1.6,2-3.2,3-4.8c0.1-0.1,0.2-0.3,0.3-0.5c-0.4-0.3-0.9-0.4-1.4-0.5c-0.8-0.2-1.5-0.4-2.3-0.6c-0.9-0.3-0.9-0.5-0.4-1.2
		c1-1.2,2-2.4,3-3.6c0.4-0.4,0.4-0.7,0.1-1.2c-0.6-0.9-1.3-1.8-1.9-2.8c-0.6-0.9-0.5-1.1,0.4-1.4c1.9-0.7,3.8-1.4,5.7-2.2
		C-130.2,379.4-130,379.3-129.8,379.2z"/>
</g>
</svg>
