<?xml version="1.0" encoding="UTF-8"?>
<svg width="117.426509px" height="55.2904261px" viewBox="0 0 117.426509 55.2904261" version="1.1" xmlns="http://www.w3.org/2000/svg" xmlns:xlink="http://www.w3.org/1999/xlink">
    <title>shotgun</title>
    <g id="Page-1" stroke="none" stroke-width="1" fill="none" fill-rule="evenodd">
        <g id="shotgun" fill="#FFFFFF" fill-rule="nonzero">
            <path d="M117.420259,4.4 C117.420259,4 117.520259,3.5 116.920259,3.3 C116.220259,3.1 116.120259,2.5 116.020259,1.9 C115.920259,1.5 116.020259,1.1 116.020259,0.7 C116.020259,0.2 115.820259,0 115.320259,0 C114.320259,0 113.220259,0 112.220259,0 C111.120259,0 110.020259,0 108.920259,0 C108.020259,0 107.920259,0 107.920259,0.9 C107.920259,1.2 107.920259,1.5 107.920259,1.8 C107.920259,2.2 107.820259,2.3 107.420259,2.4 C106.720259,2.5 106.020259,2.6 105.220259,2.7 C103.620259,2.9 102.120259,3.2 100.520259,3.2 C92.2202592,3.2 83.8202592,3.2 75.5202592,3.2 C73.2202592,3.2 70.9202592,2.7 68.6202592,2.5 C68.2202592,2.5 67.7202592,2.4 67.6202592,1.8 C67.6202592,1.6 67.4202592,1.5 67.1202592,1.5 C66.8202592,1.4 66.5202592,1.3 66.2202592,1.3 C65.7202592,1.3 65.4202592,1.1 65.4202592,0.6 C65.4202592,0.3 65.3202592,0.2 65.0202592,0.2 C63.7202592,0.2 62.5202592,0.2 61.2202592,0.2 C61.0202592,0.2 60.8202592,0.4 60.8202592,0.6 C60.8202592,0.8 60.8202592,1 60.8202592,1.2 C60.8202592,1.6 60.6202592,1.8 60.2202592,1.8 C60.0202592,1.8 59.7202592,1.8 59.5202592,1.8 C59.2202592,1.8 59.0202592,2 59.0202592,2.2 C59.0202592,3 58.5202592,3 58.0202592,3 C55.9202592,3 53.7202592,3 51.6202592,3.3 C49.1202592,3.6 46.8202592,4.4 44.7202592,5.5 C41.7202592,7.1 38.9202592,9.1 36.4202592,11.4 C36.1202592,11.7 35.9202592,12 35.9202592,12.5 C35.9202592,13.2 35.8202592,13.2 35.1202592,13.3 C34.9202592,13.3 34.8202592,13.3 34.6202592,13.3 C33.6202592,13.3 32.7202592,13.5 32.4202592,14.6 C32.3202592,14.9 32.1202592,15.1 32.0202592,15.4 C31.5202592,16.2 31.3202592,17.1 30.3202592,17.5 C30.2202592,17.6 30.1202592,17.8 30.0202592,17.9 C29.4202592,18.6 28.9202592,19.2 28.3202592,19.9 C27.2202592,21.3 25.9202592,22.6 24.9202592,24 C24.6202592,24.4 24.5202592,24.8 24.6202592,25.3 C25.0202592,26.9 24.3202592,28.2 23.3202592,29.4 C21.7202592,31.2 20.2202592,33 18.2202592,34.4 C16.1202592,35.9 13.9202592,37.1 11.3202592,37.8 C10.4202592,38 9.52025918,37.9 8.72025918,37.5 C7.72025918,36.9 6.52025918,37.2 5.82025918,38.1 C5.22025918,38.8 4.72025918,39.6 4.22025918,40.3 C3.02025918,42 1.72025918,43.7 0.520259177,45.4 C-0.479740823,46.8 0.0202591775,48.3 1.52025918,48.9 C2.62025918,49.3 3.72025918,49.8 4.82025918,50.3 C8.82025918,51.9 12.8202592,53.5 16.7202592,55.1 C17.5202592,55.4 17.7202592,55.4 18.3202592,54.7 C19.6202592,53.2 20.9202592,51.8 22.3202592,50.3 C23.1202592,49.5 23.7202592,48.6 24.2202592,47.7 C24.6202592,46.9 25.0202592,46 25.6202592,45.3 C26.8202592,43.8 28.1202592,42.4 29.3202592,40.9 C30.2202592,39.8 31.4202592,39 32.3202592,37.9 C33.5202592,36.4 35.0202592,35.4 36.5202592,34.4 C36.9202592,34.1 37.4202592,34.1 37.9202592,34.2 C40.5202592,35 42.3202592,36.6 43.3202592,39 C43.7202592,40 43.8202592,40.1 44.9202592,39.9 C46.4202592,39.7 47.9202592,39.6 49.4202592,39.4 C51.9202592,39 54.3202592,38.5 56.6202592,37.5 C58.0202592,36.9 59.4202592,36.1 60.5202592,35 C62.6202592,33 64.5202592,30.8 66.4202592,28.6 C67.2202592,27.7 68.0202592,27.2 69.2202592,27.2 C79.3202592,27.3 89.4202592,27.2 99.5202592,27.2 C101.420259,27.2 103.320259,27 105.220259,26.4 C106.220259,26.1 107.220259,25.7 107.820259,24.9 C108.520259,24 109.220259,23.1 109.120259,21.8 C109.120259,21.6 109.220259,21.3 109.220259,21.1 C109.420259,20.2 109.420259,20.2 110.320259,20.2 C112.320259,20.2 114.220259,20.2 116.220259,20.2 C117.220259,20.2 117.320259,20.1 117.320259,19.1 C117.320259,16.6 117.320259,14.1 117.320259,11.7 C117.420259,9.4 117.420259,6.9 117.420259,4.4 Z M57.0202592,36.1 C55.3202592,37 53.5202592,37.6 51.7202592,37.9 C50.6202592,38.1 49.5202592,37.9 48.5202592,37.2 C47.9202592,36.8 47.4202592,36.4 46.9202592,35.9 C45.8202592,34.7 45.9202592,32.5 47.1202592,31.4 C48.6202592,30 50.1202592,28.8 51.9202592,27.9 C53.5202592,27.2 55.2202592,26.8 56.2202592,26.7 C58.5202592,26.6 59.5202592,27.6 60.0202592,29 C61.2202592,32.1 59.5202592,34.9 57.0202592,36.1 Z" id="XMLID_9_"></path>
        </g>
    </g>
</svg>