<?xml version="1.0" encoding="utf-8"?>
<!-- Generator: Adobe Illustrator 19.0.0, SVG Export Plug-In . SVG Version: 6.00 Build 0)  -->
<svg version="1.1" id="Livello_1" xmlns="http://www.w3.org/2000/svg" xmlns:xlink="http://www.w3.org/1999/xlink" x="0px" y="0px"
	 viewBox="-246 369.7 117.4 55.3" style="enable-background:new -246 369.7 117.4 55.3;" xml:space="preserve">
<style type="text/css">
	.st0{fill:#FFFFFF;stroke:#000000;stroke-width:0.25;stroke-miterlimit:10;}
</style>
<path id="XMLID_9_" class="st0" d="M-128.6,374.1c0-0.4,0.1-0.9-0.5-1.1c-0.7-0.2-0.8-0.8-0.9-1.4c-0.1-0.4,0-0.8,0-1.2
	c0-0.5-0.2-0.7-0.7-0.7c-1,0-2.1,0-3.1,0c-1.1,0-2.2,0-3.3,0c-0.9,0-1,0-1,0.9c0,0.3,0,0.6,0,0.9c0,0.4-0.1,0.5-0.5,0.6
	c-0.7,0.1-1.4,0.2-2.2,0.3c-1.6,0.2-3.1,0.5-4.7,0.5c-8.3,0-16.7,0-25,0c-2.3,0-4.6-0.5-6.9-0.7c-0.4,0-0.9-0.1-1-0.7
	c0-0.2-0.2-0.3-0.5-0.3c-0.3-0.1-0.6-0.2-0.9-0.2c-0.5,0-0.8-0.2-0.8-0.7c0-0.3-0.1-0.4-0.4-0.4c-1.3,0-2.5,0-3.8,0
	c-0.2,0-0.4,0.2-0.4,0.4c0,0.2,0,0.4,0,0.6c0,0.4-0.2,0.6-0.6,0.6c-0.2,0-0.5,0-0.7,0c-0.3,0-0.5,0.2-0.5,0.4c0,0.8-0.5,0.8-1,0.8
	c-2.1,0-4.3,0-6.4,0.3c-2.5,0.3-4.8,1.1-6.9,2.2c-3,1.6-5.8,3.6-8.3,5.9c-0.3,0.3-0.5,0.6-0.5,1.1c0,0.7-0.1,0.7-0.8,0.8
	c-0.2,0-0.3,0-0.5,0c-1,0-1.9,0.2-2.2,1.3c-0.1,0.3-0.3,0.5-0.4,0.8c-0.5,0.8-0.7,1.7-1.7,2.1c-0.1,0.1-0.2,0.3-0.3,0.4
	c-0.6,0.7-1.1,1.3-1.7,2c-1.1,1.4-2.4,2.7-3.4,4.1c-0.3,0.4-0.4,0.8-0.3,1.3c0.4,1.6-0.3,2.9-1.3,4.1c-1.6,1.8-3.1,3.6-5.1,5
	c-2.1,1.5-4.3,2.7-6.9,3.4c-0.9,0.2-1.8,0.1-2.6-0.3c-1-0.6-2.2-0.3-2.9,0.6c-0.6,0.7-1.1,1.5-1.6,2.2c-1.2,1.7-2.5,3.4-3.7,5.1
	c-1,1.4-0.5,2.9,1,3.5c1.1,0.4,2.2,0.9,3.3,1.4c4,1.6,8,3.2,11.9,4.8c0.8,0.3,1,0.3,1.6-0.4c1.3-1.5,2.6-2.9,4-4.4
	c0.8-0.8,1.4-1.7,1.9-2.6c0.4-0.8,0.8-1.7,1.4-2.4c1.2-1.5,2.5-2.9,3.7-4.4c0.9-1.1,2.1-1.9,3-3c1.2-1.5,2.7-2.5,4.2-3.5
	c0.4-0.3,0.9-0.3,1.4-0.2c2.6,0.8,4.4,2.4,5.4,4.8c0.4,1,0.5,1.1,1.6,0.9c1.5-0.2,3-0.3,4.5-0.5c2.5-0.4,4.9-0.9,7.2-1.9
	c1.4-0.6,2.8-1.4,3.9-2.5c2.1-2,4-4.2,5.9-6.4c0.8-0.9,1.6-1.4,2.8-1.4c10.1,0.1,20.2,0,30.3,0c1.9,0,3.8-0.2,5.7-0.8
	c1-0.3,2-0.7,2.6-1.5c0.7-0.9,1.4-1.8,1.3-3.1c0-0.2,0.1-0.5,0.1-0.7c0.2-0.9,0.2-0.9,1.1-0.9c2,0,3.9,0,5.9,0c1,0,1.1-0.1,1.1-1.1
	c0-2.5,0-5,0-7.4C-128.6,379.1-128.6,376.6-128.6,374.1z M-189,405.8c-1.7,0.9-3.5,1.5-5.3,1.8c-1.1,0.2-2.2,0-3.2-0.7
	c-0.6-0.4-1.1-0.8-1.6-1.3c-1.1-1.2-1-3.4,0.2-4.5c1.5-1.4,3-2.6,4.8-3.5c1.6-0.7,3.3-1.1,4.3-1.2c2.3-0.1,3.3,0.9,3.8,2.3
	C-184.8,401.8-186.5,404.6-189,405.8z"/>
</svg>
