<?xml version="1.0" encoding="UTF-8"?>
<svg width="91.7px" height="48.7909944px" viewBox="0 0 91.7 48.7909944" version="1.1" xmlns="http://www.w3.org/2000/svg" xmlns:xlink="http://www.w3.org/1999/xlink">
    <title>smg</title>
    <g id="Page-1" stroke="none" stroke-width="1" fill="none" fill-rule="evenodd">
        <g id="smg" fill="#FFFFFF" fill-rule="nonzero">
            <path d="M91.5,6.7 C91.5,5.5 91.5,5.4 90.3,5.4 C81.1,5.4 71.9,5.4 62.7,5.4 C61.8,5.4 61,5.5 60.5,6.3 C60.4,6.4 60.3,6.6 60,6.4 C60,5.7 60,5 60,4.3 C60,3.8 59.8,3.5 59.4,3.1 C58.7,2.4 57.9,2.6 57.2,2.6 C56.4,2.6 56.3,2.5 56.3,1.7 C56.3,1.1 56.6,0.6 56.2,0 C55.6,0 55,0 54.5,0 C54.1,1.1 54.1,1.1 52.9,1.1 C45,1.1 37,1.1 29.1,1.1 C28.2,1.1 27.9,0.9 27.7,0 C27.2,0 26.6,0 26.1,0 C26.1,0.5 26.3,1.2 25.4,1.2 C25.1,1.2 25.1,1.5 25.3,1.7 C25.5,2 25.9,2.2 26.1,2.6 C25.7,2.6 25.4,2.6 25.1,2.6 C19.6,2.6 14.1,2.6 8.6,2.6 C7.4,2.6 6.7,3.3 6.7,4.5 C6.7,6.2 6.7,7.8 6.7,9.5 C6.7,9.9 6.7,10.2 6.7,10.6 C6.7,11 6.4,11 6.1,11 C5.8,11 5.7,10.9 5.7,10.6 C5.6,9.4 5.5,8.1 5.4,6.9 C5.3,5.2 5.3,5.2 3.7,5.2 C3.6,5.2 3.5,5.2 3.3,5.2 C2.3,5.2 2.1,5.4 2.1,6.4 C2.1,9.8 2.1,13.3 2.1,16.7 C2.1,17 2.1,17.3 2,17.6 C1.4,18.9 0.8,20.2 0,21.3 C0,21.7 0,22.2 0,22.6 C0.7,22.9 1.4,23.9 2.2,22.7 C2.2,22.7 2.3,22.6 2.3,22.6 C3.3,22.7 3.6,21.9 3.9,21.3 C4.7,19.6 6,18 5.7,15.9 C5.6,15.6 5.6,15.2 6.1,15.2 C6.5,15.2 6.8,15.4 6.8,15.9 C6.8,16.5 7.1,16.7 7.7,16.8 C8.8,16.9 9.9,16.9 10.9,17.2 C12.7,17.8 14.5,18.6 16,19.8 C17.8,21.3 18.3,22.9 17.7,25 C16.9,27.5 16.1,30 15.3,32.5 C14.6,34.7 13.9,36.9 13.2,39.2 C12.9,40 13,40.1 13.8,40.3 C14.2,40.4 14.7,40.5 15.1,40.7 C24.1,43.4 33,46 42,48.7 C42.6,48.9 42.9,48.8 43.1,48.1 C44,45.7 44.9,43.3 45.8,40.9 C47.9,35.3 49.9,29.6 52.1,24 C53.3,20.8 55.6,18.8 59.1,18.3 C59.8,18.2 60.1,17.9 60.1,17.2 C60.1,15.6 59.9,13.9 60.3,12.2 C60.7,12.4 60.8,12.7 61.1,13 C61.3,13.3 61.6,13.4 62,13.4 C71.6,13.4 81.2,13.4 90.8,13.4 C91.5,13.4 91.7,13.1 91.7,12.5 C91.5,10.5 91.5,8.6 91.5,6.7 Z M38.7,23.9 C37.8,26.3 36.9,28.7 36,31.1 C34.8,34.3 33.6,37.6 32.4,40.8 C32,41.8 31.9,41.9 30.8,41.6 C28.9,41 27.1,40.5 25.2,39.9 C24.3,39.6 24.3,39.6 24.6,38.7 C25.6,36 26.6,33.4 27.6,30.7 C27.8,30.2 28.1,29.8 28.6,29.5 C29.4,29 29.5,28.7 29,27.9 C28.1,26.5 28.2,24.7 29.8,23.8 C30.1,23.6 30.5,23.4 30.6,23 C30.7,22.7 31.1,22.7 31.4,22.7 C32.5,22.7 33.7,22.7 34.8,22.7 C34.8,22.7 34.8,22.7 34.8,22.7 C35.8,22.7 36.9,22.7 37.9,22.7 C39,22.8 39,22.9 38.7,23.9 Z M40.8,18.1 C40.4,19.2 39.9,20.3 39.5,21.4 C39.4,21.8 39.1,21.8 38.8,21.8 C35.8,21.8 32.8,21.8 29.9,21.8 C29.2,21.8 28.9,21.4 29.1,20.7 C29.4,19.7 29.8,18.8 30.1,17.9 C30.3,17.4 30.7,17.3 31.1,17.3 C32.6,17.3 34.1,17.3 35.6,17.3 C37.1,17.3 38.6,17.3 40.1,17.3 C40.8,17.3 41,17.5 40.8,18.1 Z" id="Shape"></path>
        </g>
    </g>
</svg>