<?xml version="1.0" encoding="UTF-8"?>
<svg width="91.4px" height="54.4764047px" viewBox="0 0 91.4 54.4764047" version="1.1" xmlns="http://www.w3.org/2000/svg" xmlns:xlink="http://www.w3.org/1999/xlink">
    <title>sniper</title>
    <g id="Page-1" stroke="none" stroke-width="1" fill="none" fill-rule="evenodd">
        <g id="sniper" fill="#FFFFFF" fill-rule="nonzero">
            <path d="M90.3,17.6 C89.9,17.6 89.7,17.3 89.7,16.9 C89.7,16.6 89.7,16.3 89.7,16 C89.7,15.6 89.8,15.3 90.3,15.4 C90.9,15.4 91,15.1 91,14.6 C91,14.4 91,14.1 91,13.9 C91.1,13.2 90.8,13 90.1,13 C88.8,13 87.6,13 86.3,13 C85.6,13 85.3,12.8 85.4,12.1 C85.5,11.5 85.2,11.2 84.6,11.3 C84.3,11.3 84.1,11.3 83.8,11.3 C70.1,11.3 56.4,11.3 42.7,11.3 C42.4,11.3 42.2,11.3 41.9,11.3 C41.7,11.3 41.5,11.3 41.4,11 C41.3,10.5 41,10.5 40.6,10.5 C40.1,10.6 40,10.3 40,9.9 C40,9.1 40,8.2 40,7.4 C40,4.9 40,2.5 40,0 C39.3,0 38.5,0 37.8,0 C37.7,0.2 37.6,0.5 37.6,0.7 C36.9,3.6 36.2,6.6 35.6,9.5 C35.5,10.1 35.2,10.4 34.6,10.3 C34,10.2 33.5,10.3 32.9,10.3 C32.6,10.3 32.3,10.3 32.2,10.6 C32.1,11.2 31.7,11.1 31.3,11.1 C27.5,11.1 23.7,11.1 20,11.1 C19,11.1 19,11.1 19,12.1 C19,12.7 18.7,12.8 18.2,12.8 C16.6,12.8 15.1,12.8 13.5,12.8 C12.7,12.8 11.9,12.8 11.2,12.8 C10.9,12.8 10.6,13 10.5,13.3 C10.4,13.6 10.5,13.9 10.8,14.1 C11.3,14.4 11.8,14.8 12.5,14.8 C13.6,14.8 13.8,15.1 13.2,16 C12.5,17 11.8,18.1 11.7,19.4 C11.7,19.8 11.4,20 10.9,20 C9.5,20 8.1,20.2 6.7,20.2 C5.7,20.2 5.1,20.8 5.1,21.8 C5.1,22.4 5.1,23.1 5.1,23.7 C5.1,24.1 5.2,24.5 5.5,24.9 C6,25.6 6.6,26.1 7.5,26.2 C8.4,26.3 8.6,26.7 8.8,27.6 C8.9,28.4 8.6,29.1 8.2,29.7 C6.3,32.4 4.5,35.2 2.6,37.9 C1.7,39.3 0.4,40.6 0,42.3 C0,43.3 0,44.4 0,45.4 C0.1,45.9 0.3,46.4 0.4,47 C0.5,47.8 0.9,48.2 1.7,48.5 C6.3,50.4 11,52.4 15.6,54.3 C16.6,54.7 17.6,54.4 18.2,53.6 C18.6,53 18.7,52.5 18.1,52 C17.5,51.6 17.2,51 16.9,50.4 C16.7,50 16.5,49.7 16.3,49.4 C16,49 15.6,48.6 15.3,48.2 C14.4,47 14.1,45.7 14.8,44.4 C16.1,41.8 17.4,39.2 18.6,36.6 C18.8,36.2 19,35.9 19.1,35.5 C19.2,34.9 19.5,34.9 20,35 C22.5,35.8 25,36.7 27.4,37.5 C29.4,38.2 31.5,38.8 33.5,39.5 C34.2,39.7 34.7,39.3 34.6,38.5 C34.6,38.4 34.5,38.2 34.4,38.1 C34,37.3 33.8,36.4 33.8,35.5 C33.8,33.4 34.3,31.5 35.5,29.7 C36,29 36.4,28.2 37.4,28.4 C37.5,28.4 37.6,28.3 37.8,28.3 C39.8,27.6 41.8,27 43.8,26.3 C44.4,26.1 45.1,26 45.8,26 C56.9,26 67.9,26 79,26 C80,26 80.9,26.2 81.8,26.7 C82.4,27.1 83,27.5 83.7,27.5 C85.2,27.5 86.8,27.5 88.3,27.5 C88.7,27.5 89,27.5 89.1,27 C89.2,26.5 88.9,26.3 88.5,26.1 C87.8,25.8 87,25.5 86.3,25.2 C85.6,24.9 85.4,24.2 86,23.6 C86.6,23 87.1,22.5 87.7,21.9 C88,21.6 88.3,21.5 88.7,21.5 C89.4,21.5 90,21.5 90.7,21.5 C91.2,21.5 91.4,21.3 91.4,20.8 C91.4,19.9 91.4,19.1 91.4,18.2 C91,17.8 90.8,17.6 90.3,17.6 Z M30.7,36.4 C30,37.1 29.7,37.2 28.8,36.9 C25.9,35.9 23,34.9 20.1,34 C19.5,33.8 19.4,33.6 19.7,33 C20.2,32.2 20.5,31.3 21,30.4 C21.6,29.4 22.6,28.9 23.6,28.6 C24.9,28.2 26.2,28.1 27.5,28.1 C28.2,28.1 28.8,28.1 29.5,28.1 C31.1,28.1 32.1,29 32.4,30.6 C32.4,30.8 32.4,31 32.5,31.4 C32,33.1 32.1,35 30.7,36.4 Z" id="Shape"></path>
        </g>
    </g>
</svg>