<?xml version="1.0" encoding="UTF-8"?>
<svg width="64.0185591px" height="55.2px" viewBox="0 0 64.0185591 55.2" version="1.1" xmlns="http://www.w3.org/2000/svg" xmlns:xlink="http://www.w3.org/1999/xlink">
    <title>staples</title>
    <g id="Page-1" stroke="none" stroke-width="1" fill="none" fill-rule="evenodd">
        <g id="staples" fill="#FFFFFF" fill-rule="nonzero">
            <path d="M64.0185591,5.5 C64.0185591,4.9 64.0185591,4.4 63.2185591,4.3 C62.9185591,4.3 62.9185591,4 62.9185591,3.7 C62.9185591,3.4 62.9185591,3 62.9185591,2.7 C62.9185591,2.2 62.7185591,1.9 62.2185591,1.9 C61.6185591,1.9 60.9185591,2.1 60.4185591,1.8 C59.9185591,1.4 60.3185591,0.6 60.1185591,0 C57.8185591,0 55.5185591,0 53.2185591,0 C53.2185591,0.1 53.2185591,0.2 53.2185591,0.3 C53.1185591,2 53.1185591,2 51.5185591,2 C42.6185591,2 33.7185591,2 24.8185591,2 C24.2185591,2 23.5185591,2.2 23.3185591,1.3 C23.3185591,1 22.9185591,1 22.6185591,0.9 C21.7185591,0.6 20.8185591,0.4 19.9185591,0.1 C18.8185591,0.1 17.6185591,0.1 16.5185591,0.1 C15.5185591,1.4 14.5185591,2.5 12.6185591,2.1 C12.3185591,2 11.9185591,2.1 11.8185591,2.4 C11.3185591,3.6 10.4185591,4.7 10.5185591,6.1 C10.5185591,8.9 10.5185591,11.8 10.6185591,14.6 C10.6185591,14.9 10.7185591,15.3 10.4185591,15.5 C9.71855913,15.9 9.71855913,16.5 9.81855913,17.2 C9.81855913,19.7 9.41855913,22.1 8.91855913,24.4 C8.41855913,26.7 7.41855913,28.9 6.51855913,31 C6.01855913,32.2 5.61855913,33.5 4.61855913,34.6 C3.91855913,35.3 3.11855913,35.9 2.91855913,37 C2.51855913,38.9 1.81855913,40.8 1.01855913,42.7 C0.218559127,44.4 -0.0814408729,46.2 0.0185591271,48.1 C0.118559127,50.1 1.01855913,51.7 2.31855913,53 C4.01855913,54.6 6.21855913,55.2 8.51855913,55.2 C21.1185591,55.2 33.7185591,55.2 46.2185591,55.2 C47.4185591,55.2 48.6185591,54.2 48.4185591,53 C48.3185591,52.2 48.6185591,51.6 48.9185591,51 C51.2185591,45.8 53.4185591,40.5 55.7185591,35.2 C57.3185591,31.5 58.9185591,27.8 60.4185591,24.1 C60.5185591,23.8 60.6185591,23.4 60.9185591,23.3 C61.4185591,23.1 61.5185591,22.7 61.7185591,22.3 C62.1185591,21.5 62.1185591,20.4 63.3185591,20.2 C63.4185591,20.2 63.5185591,20.1 63.5185591,20 C63.5185591,19.4 63.9185591,18.8 63.9185591,18.2 C64.0185591,13.8 64.0185591,9.7 64.0185591,5.5 Z M38.4185591,41.4 C36.2185591,45.1 32.9185591,47.2 28.7185591,48.1 C27.3185591,48.4 25.8185591,48.5 24.1185591,48.4 C21.8185591,48.8 19.7185591,47.7 17.8185591,46.4 C16.8185591,45.7 15.6185591,45.2 15.0185591,44 C14.5185591,42.9 14.1185591,41.7 14.4185591,40.5 C15.0185591,37.5 16.3185591,34.7 17.3185591,31.9 C17.7185591,30.8 18.2185591,29.7 18.8185591,28.6 C19.2185591,27.9 19.7185591,27.3 20.6185591,27.1 C21.4185591,26.9 22.2185591,26.6 22.3185591,25.5 C22.4185591,24.9 24.1185591,24.7 24.5185591,25.3 C24.8185591,25.7 25.0185591,26 25.3185591,26.4 C25.5185591,26.6 25.6185591,27 26.0185591,26.7 C26.3185591,26.5 26.7185591,26.3 26.5185591,25.8 C26.3185591,25.1 26.2185591,24.5 26.0185591,23.8 C25.7185591,22.1 26.3185591,20.6 27.2185591,19.2 C27.7185591,18.5 28.5185591,18.9 29.0185591,19 C32.9185591,20 36.1185591,22.1 38.2185591,25.6 C41.7185591,30.8 41.6185591,36.1 38.4185591,41.4 Z" id="Shape"></path>
        </g>
    </g>
</svg>