<svg xmlns="http://www.w3.org/2000/svg" xml:space="preserve" viewBox="0 0 41.02 34.32"><path fill-opacity=".7" d="M32.61 6.86c.08-.03.1.04.18.02.83-1.82 1.67-3.63 2.43-5.42.15-.3-.05-.4-.3-.4-.85.03-1.72-.01-2.57.02-.33.03-.36.21-.35.46.26 1.78.45 3.59.61 5.32zM10.67 1.62a11.58 11.58 0 0 0-2.44.33 9.43 9.43 0 0 0-3.13 1.5A9.37 9.37 0 0 0 3 5.58 12.05 12.05 0 0 0 1.95 7.3a8.62 8.62 0 0 0-.84 3.3l-.03.7c-.02.8-.02 1.59-.02 2.38l.02 2.38a251.61 251.61 0 0 1 0 4.76 7.16 7.16 0 0 0 .06 1.09 4.07 4.07 0 0 0 .4 1.18 3.13 3.13 0 0 0 .8.92 4.28 4.28 0 0 0 .84.56l.69.32 1.35.47a27.36 27.36 0 0 0 1.58.5 1.1 1.1 0 0 1 .32.2.8.8 0 0 1 .19.3l.05.16c.02.13.03.26.03.4v4.23a3.38 3.38 0 0 0 .2 1.12l.04.07L18.5 21.23l-.07-.12a2.05 2.05 0 0 1-.16-1.2 2.25 2.25 0 0 1 .5-1.12l1.24-1.22a1.29 1.29 0 0 0 .23-.25.53.53 0 0 0 .05-.12.4.4 0 0 0 0-.24.53.53 0 0 0-.05-.13 1.26 1.26 0 0 0-.23-.24 6.5 6.5 0 0 1-.7-.65c-.2-.22-.41-.45-.62-.65a2.4 2.4 0 0 1-.4-.71 1.98 1.98 0 0 1 .3-1.82 2.5 2.5 0 0 1 .94-.8 2.09 2.09 0 0 1 .73-.18h.2a2 2 0 0 1 .92.26c.12.07.24.15.35.24a10.15 10.15 0 0 1 1.43 1.43.8.8 0 0 0 .13.1l.12.06a.41.41 0 0 0 .24 0 .53.53 0 0 0 .13-.06 1.27 1.27 0 0 0 .25-.23 4.34 4.34 0 0 1 .53-.56c.18-.17.37-.33.53-.5a2.73 2.73 0 0 1 .77-.49 2.08 2.08 0 0 1 1.22-.08c.13.03.26.08.38.13l3.95-4.04c0-.04-.02-.07-.03-.11a8.62 8.62 0 0 0-1.33-2.35 11.3 11.3 0 0 0-1.64-1.77 9.37 9.37 0 0 0-3.58-1.86 9.77 9.77 0 0 0-2.45-.33H10.67zm1.94 10.16h.18a2.02 2.02 0 0 1 1.09.4 2.5 2.5 0 0 1 .8.92 2.05 2.05 0 0 1 .17 1.1 1.98 1.98 0 0 1-.25.74 2.4 2.4 0 0 1-.24.35l-.62.65a11.62 11.62 0 0 1-.82.77.8.8 0 0 0-.1.12.53.53 0 0 0-.06.13.4.4 0 0 0 0 .24l.06.12a1.28 1.28 0 0 0 .23.24l1.23 1.23a2.4 2.4 0 0 1 .51 1.13 2.22 2.22 0 0 1-.16 1.19 2.06 2.06 0 0 1-.51.69 2.2 2.2 0 0 1-.68.45 2 2 0 0 1-1.55 0 2.32 2.32 0 0 1-.72-.45l-.54-.5a7.75 7.75 0 0 1-.68-.7l-.15-.1a.74.74 0 0 0-.14-.07.45.45 0 0 0-.28-.01.56.56 0 0 0-.13.06 1.5 1.5 0 0 0-.3.26 33.8 33.8 0 0 1-1.23 1.14 2.79 2.79 0 0 1-.61.36 1.75 1.75 0 0 1-.62.13 3.54 3.54 0 0 1-.72-.08 2.27 2.27 0 0 1-.59-.23 1.86 1.86 0 0 1-.65-.63 2.74 2.74 0 0 1-.17-.28 2.37 2.37 0 0 1-.16-.92 1.96 1.96 0 0 1 .25-.88 2.65 2.65 0 0 1 .4-.56 3.56 3.56 0 0 1 .55-.64l.6-.58c.08-.09.15-.16.2-.24a.59.59 0 0 0 .05-.1.34.34 0 0 0-.03-.32.68.68 0 0 0-.09-.12 4.33 4.33 0 0 1-.7-.65l-.5-.53a2.49 2.49 0 0 1-.5-.73 2.14 2.14 0 0 1-.15-1.2 1.98 1.98 0 0 1 .57-1.08 2.78 2.78 0 0 1 .73-.51 2.15 2.15 0 0 1 .8-.2 2 2 0 0 1 1.2.34c.14.08.26.18.39.3l.53.5a7.76 7.76 0 0 1 .66.68.8.8 0 0 0 .12.1l.12.06a.4.4 0 0 0 .25 0 .53.53 0 0 0 .12-.06 1.27 1.27 0 0 0 .25-.23 10.11 10.11 0 0 1 1.3-1.3 2.4 2.4 0 0 1 .72-.4 2.02 2.02 0 0 1 .57-.1zm21.02-.58c.07-.05.03-.12.1-.16 1.92.57 3.84 1.13 5.68 1.74.33.09.27.3.1.5-.58.61-1.12 1.3-1.7 1.9-.24.24-.4.14-.58-.03a99.06 99.06 0 0 0-3.6-3.96zm1.1-2.1c.06.06 0 .12.06.17 2-.07 4-.14 5.93-.26.34 0 .34-.23.22-.46-.4-.74-.76-1.54-1.17-2.28-.17-.28-.34-.22-.57-.1-1.47 1.03-3 2-4.47 2.93zm-2.78 1.6-3.15 3.22v.16a2.08 2.08 0 0 1-.38 1.18c-.09.12-.19.24-.3.35l-.5.53a7.73 7.73 0 0 1-.7.65.7.7 0 0 0-.08.11.41.41 0 0 0-.05.11.34.34 0 0 0 .01.21l.06.11c.05.08.11.15.2.24l.6.57a5.32 5.32 0 0 1 1.07 1.5 2.07 2.07 0 0 1 .12.9 2.1 2.1 0 0 1-.15.6 2.73 2.73 0 0 1-.36.54 1.95 1.95 0 0 1-1.05.6 2.79 2.79 0 0 1-1.03.05 1.75 1.75 0 0 1-.62-.24 9.72 9.72 0 0 1-.92-.75 33.8 33.8 0 0 1-.91-.87.56.56 0 0 0-.14-.05.45.45 0 0 0-.14-.02c-.04 0-.1.01-.14.03a.74.74 0 0 0-.14.07l-.14.1-.15.14a4.35 4.35 0 0 1-.54.56l-.53.5a2.55 2.55 0 0 1-.72.45c-.13.05-.26.1-.4.12l-.26.02L9.1 34.03a2.2 2.2 0 0 0 1.23.3c2.05 0 4.08-.03 6.11-.04h.06a.08.08 0 0 0 .02-.05c0 .02 0 .04.02.05h.05c2.03.01 4.06.03 6.11.03a3.18 3.18 0 0 0 .88-.13 2.2 2.2 0 0 0 .76-.44 3.98 3.98 0 0 0 .78-.83 3.24 3.24 0 0 0 .53-1.77v-4.23a1.92 1.92 0 0 1 .09-.57.88.88 0 0 1 .18-.29 1.1 1.1 0 0 1 .32-.2l.23-.08a19.5 19.5 0 0 0 1.35-.42l1.36-.47a7.89 7.89 0 0 0 1.27-.68 4.26 4.26 0 0 0 .89-.87 3.12 3.12 0 0 0 .57-1.43 4.57 4.57 0 0 0 .05-1.1c-.02-.78-.02-1.58-.02-2.37l.02-2.38a245.09 245.09 0 0 0 0-4.76c0-.2 0-.4-.02-.6z"/><path fill="#fff" d="M31.55 5.8c.08-.03.1.05.18.02.84-1.81 1.67-3.63 2.43-5.42.15-.3-.05-.4-.3-.4-.85.03-1.72 0-2.57.02-.33.03-.35.21-.35.47.26 1.77.45 3.58.61 5.3zM9.61.56A11.58 11.58 0 0 0 7.17.9a9.43 9.43 0 0 0-3.13 1.5 9.37 9.37 0 0 0-2.1 2.13A12.05 12.05 0 0 0 .9 6.24a8.62 8.62 0 0 0-.84 3.3l-.03.7C0 11.04 0 11.83 0 12.62L.02 15a251.61 251.61 0 0 1 0 4.76 7.16 7.16 0 0 0 .06 1.1 4.07 4.07 0 0 0 .4 1.17 3.13 3.13 0 0 0 .8.92 4.28 4.28 0 0 0 .84.56c.21.11.44.22.69.32l1.35.48a27.36 27.36 0 0 0 1.58.49 1.1 1.1 0 0 1 .32.2.8.8 0 0 1 .19.3c.02.05.04.1.05.17.02.12.04.25.04.4v4.22a3.38 3.38 0 0 0 .2 1.12l.03.08 10.88-11.12-.08-.12a2.05 2.05 0 0 1-.16-1.2 2.25 2.25 0 0 1 .5-1.12l1.24-1.22a1.29 1.29 0 0 0 .23-.25.53.53 0 0 0 .06-.12.4.4 0 0 0 0-.24.53.53 0 0 0-.06-.13 1.26 1.26 0 0 0-.23-.24 6.5 6.5 0 0 1-.69-.65l-.62-.65a2.4 2.4 0 0 1-.4-.7 1.98 1.98 0 0 1 .29-1.83 2.5 2.5 0 0 1 .94-.79 2.09 2.09 0 0 1 .73-.19h.2a2 2 0 0 1 .92.26c.12.07.24.15.35.24a10.15 10.15 0 0 1 1.43 1.43.8.8 0 0 0 .13.1l.12.06a.41.41 0 0 0 .25 0 .53.53 0 0 0 .12-.06 1.27 1.27 0 0 0 .25-.23 4.34 4.34 0 0 1 .53-.56c.18-.17.37-.33.53-.5a2.73 2.73 0 0 1 .78-.49 2.08 2.08 0 0 1 1.21-.08c.13.03.26.08.38.13l3.96-4.04-.04-.1a8.62 8.62 0 0 0-1.33-2.36 11.3 11.3 0 0 0-1.64-1.77A9.37 9.37 0 0 0 23.77.9a9.77 9.77 0 0 0-2.45-.33H9.61zm1.94 10.16h.19a2.02 2.02 0 0 1 1.08.4 2.5 2.5 0 0 1 .8.93 2.05 2.05 0 0 1 .17 1.1 1.98 1.98 0 0 1-.25.73 2.4 2.4 0 0 1-.24.35l-.62.65a11.62 11.62 0 0 1-.82.77.8.8 0 0 0-.1.13.53.53 0 0 0-.06.12.4.4 0 0 0 0 .24l.06.12a1.28 1.28 0 0 0 .23.24l1.23 1.23a2.4 2.4 0 0 1 .51 1.13 2.22 2.22 0 0 1-.16 1.19 2.06 2.06 0 0 1-.51.69 2.2 2.2 0 0 1-.68.46 2 2 0 0 1-1.55 0 2.32 2.32 0 0 1-.72-.46l-.54-.5a7.75 7.75 0 0 1-.68-.7l-.14-.1a.74.74 0 0 0-.14-.07.45.45 0 0 0-.28-.01.56.56 0 0 0-.14.06 1.5 1.5 0 0 0-.3.26 33.8 33.8 0 0 1-1.23 1.14 2.79 2.79 0 0 1-.61.36 1.75 1.75 0 0 1-.62.13 3.54 3.54 0 0 1-.72-.08 2.27 2.27 0 0 1-.59-.23 1.86 1.86 0 0 1-.65-.63 2.74 2.74 0 0 1-.17-.28 2.37 2.37 0 0 1-.16-.91 1.96 1.96 0 0 1 .26-.89 2.65 2.65 0 0 1 .4-.56 3.56 3.56 0 0 1 .54-.64l.6-.58.2-.23a.59.59 0 0 0 .05-.11.34.34 0 0 0-.03-.32.68.68 0 0 0-.09-.12 4.33 4.33 0 0 1-.7-.65c-.17-.18-.33-.36-.5-.52a2.49 2.49 0 0 1-.5-.74 2.14 2.14 0 0 1-.15-1.2 1.98 1.98 0 0 1 .57-1.07 2.78 2.78 0 0 1 .73-.52 2.15 2.15 0 0 1 .8-.2 2 2 0 0 1 1.21.34c.13.09.26.18.38.3l.53.5a7.76 7.76 0 0 1 .66.69.8.8 0 0 0 .12.1l.12.05a.4.4 0 0 0 .25 0 .53.53 0 0 0 .12-.06 1.27 1.27 0 0 0 .25-.23 10.11 10.11 0 0 1 1.31-1.3 2.4 2.4 0 0 1 .71-.4 2.02 2.02 0 0 1 .57-.1zm21.03-.59c.07-.04.02-.1.1-.15 1.91.57 3.83 1.14 5.67 1.74.33.09.27.3.1.5-.58.61-1.12 1.3-1.7 1.91-.24.23-.4.13-.58-.04a99.06 99.06 0 0 0-3.6-3.96zm1.09-2.09c.06.06 0 .12.06.17 2-.07 4-.13 5.93-.26.35 0 .34-.23.23-.46-.41-.74-.77-1.53-1.18-2.27-.17-.29-.34-.23-.57-.11-1.47 1.03-3 2.01-4.47 2.93zm-2.77 1.6-3.16 3.23.01.15a2.08 2.08 0 0 1-.39 1.18c-.08.12-.18.24-.3.35l-.5.53a7.73 7.73 0 0 1-.7.65.7.7 0 0 0-.08.11.41.41 0 0 0-.05.11.34.34 0 0 0 .02.22l.05.1c.05.08.12.16.2.24l.6.58a5.32 5.32 0 0 1 1.08 1.5 2.07 2.07 0 0 1 .11.89 2.1 2.1 0 0 1-.15.6 2.73 2.73 0 0 1-.36.54 1.95 1.95 0 0 1-1.05.61 2.79 2.79 0 0 1-1.03.05 1.75 1.75 0 0 1-.62-.25 9.72 9.72 0 0 1-.92-.75 33.8 33.8 0 0 1-.9-.86.56.56 0 0 0-.15-.06.45.45 0 0 0-.14-.02l-.14.03a.74.74 0 0 0-.14.07l-.14.1-.15.14a4.35 4.35 0 0 1-.53.56l-.54.5a2.55 2.55 0 0 1-.72.45c-.13.06-.26.1-.39.12l-.27.03-11.4 11.63a2.2 2.2 0 0 0 1.24.3c2.05 0 4.07-.03 6.1-.04h.06a.08.08 0 0 0 .02-.05c0 .02 0 .04.02.05h.06c2.03.01 4.05.03 6.1.03a3.18 3.18 0 0 0 .88-.13 2.2 2.2 0 0 0 .76-.44 3.98 3.98 0 0 0 .78-.83 3.24 3.24 0 0 0 .53-1.77v-4.23a1.92 1.92 0 0 1 .1-.57.88.88 0 0 1 .18-.29 1.1 1.1 0 0 1 .32-.2l.22-.08a19.5 19.5 0 0 0 1.36-.41l1.35-.48a7.89 7.89 0 0 0 1.28-.68 4.26 4.26 0 0 0 .88-.87 3.12 3.12 0 0 0 .57-1.43 4.57 4.57 0 0 0 .06-1.09l-.03-2.38c0-.8.02-1.58.03-2.38a245.09 245.09 0 0 0 0-4.76l-.02-.6z"/></svg>