<svg xmlns="http://www.w3.org/2000/svg" xml:space="preserve" viewBox="0 0 657.18 131.35"><path fill-opacity=".7" d="M657.18 6.46 289 43.22l-8.63 6.2-22.41 2.24-10.36-6.31-7.17.71-.51-1.37-29.09 2.9-.1-2.1-7.9.79-.95 1.15-20.52 2.05-.82-1.14-9.45.94-.94 1.15-21.3 2.13-13.5 1.35-1.26 1.54-17.28 1.72-29.26 2.93-1 .1-61.78 6.16L.65 91.5l11.74 12.4 2.76-2.64 10.27 10.03s-.07-.06 6.14-.68c.85.96 1.95 1.97 3.32 3.01 1.37 1.03 3 2.1 4.91 3.15a68.06 68.06 0 0 0 6.57 3.16 100.3 100.3 0 0 0 8.28 3.05c3.06.97 6.4 1.91 10.06 2.79 3.65.87 7.61 1.68 11.89 2.41 4.28.73 8.87 1.37 13.79 1.91 4.91.54 10.16.97 15.74 1.27l38.52-23.83 1.26-2.78L192.58 86l361.5-37.92 77.66-21.02zm-534.02 72.1c.13.36.1.76-.03 1.18-.13.42-.36.85-.62 1.24-.27.4-.58.75-.86 1.03-6.78 6.6-25.6 24.61-28.38 27.19-.45.4-.86.7-1.17.9l-3.25 5.09-5.7.57a140.17 140.17 0 0 1-11.93-1.44 119.45 119.45 0 0 1-10.42-2.25 103.36 103.36 0 0 1-8.97-2.84 90.44 90.44 0 0 1-9.85-4.37 76.87 76.87 0 0 1-7.6-4.57 65.75 65.75 0 0 1-4.33-3.27 54.9 54.9 0 0 1-4.09-3.75 40.57 40.57 0 0 1-2.32-2.61c-.5-.63-.73-.98-.73-.98l8.9-.89 1.81-2.22 4.8-.48 2.22 1.82 3.88-.39 1.82-2.22 4.8-.48 2.22 1.82 4.3-.43 1.82-2.22 5.44-.54 2.22 1.81 3.12-.3 1.82-2.23 6.13-.61 2.22 1.82 3.69-.37 1.82-2.22 2.68-.27 1-.1 2.19-.22 2.22 1.82 3.7-.37 1.8-2.21 5.24-.52 2.22 1.81 4.69-.46 1.81-2.22 8.75-.88c.5.2.78.5.9.85z"/><path fill="#fff" d="m656.54 0-368.2 36.76-8.62 6.2-22.42 2.24-10.35-6.32-7.17.72-.52-1.38-29.08 2.9-.11-2.1-7.9.8-.95 1.15-20.52 2.05-.82-1.15-9.44.95-.95 1.15-21.3 2.13-13.5 1.34-1.26 1.54-17.28 1.73-29.26 2.92-1 .1-61.78 6.17L0 85.03l11.74 12.4 2.77-2.64 10.27 10.03s-.07-.07 6.13-.69c.85.97 1.95 1.98 3.32 3.02 1.37 1.03 3 2.09 4.92 3.15a68.06 68.06 0 0 0 6.57 3.16A100.3 100.3 0 0 0 54 116.5c3.05.98 6.4 1.92 10.05 2.8 3.66.87 7.62 1.68 11.9 2.4 4.27.74 8.86 1.38 13.78 1.92 4.92.53 10.16.97 15.74 1.27L144 101.05l1.25-2.78 46.68-18.73 361.5-37.93 77.66-21.01zM122.5 72.1c.13.35.1.76-.03 1.18-.13.42-.35.85-.62 1.24-.27.4-.57.75-.86 1.03a3932.2 3932.2 0 0 1-28.38 27.18c-.44.41-.86.7-1.17.91l-3.24 5.09-5.71.57a140.17 140.17 0 0 1-11.93-1.44 119.45 119.45 0 0 1-10.41-2.25 103.36 103.36 0 0 1-8.97-2.84 90.44 90.44 0 0 1-9.85-4.37 76.87 76.87 0 0 1-7.6-4.57 65.75 65.75 0 0 1-4.33-3.27 54.9 54.9 0 0 1-4.1-3.75 40.57 40.57 0 0 1-2.3-2.62c-.5-.62-.74-.97-.74-.97l8.9-.9 1.82-2.21 4.8-.48L40 81.45l3.87-.4 1.82-2.21 4.8-.48 2.22 1.82 4.3-.43 1.82-2.22 5.44-.55 2.22 1.82 3.13-.31 1.82-2.22 6.12-.61 2.22 1.81 3.7-.37 1.81-2.22 2.69-.26 1-.1 2.18-.22 2.22 1.82 3.7-.37 1.82-2.22 5.23-.53 2.23 1.82 4.68-.47 1.82-2.22 8.74-.87c.5.2.79.49.91.84z"/></svg>