<?xml version="1.0" encoding="UTF-8" standalone="no"?>
<!-- Created with Inkscape (http://www.inkscape.org/) -->

<svg
   width="2483.844"
   height="496.45831"
   viewBox="0 0 657.18371 131.35459"
   version="1.1"
   id="svg1"
   xml:space="preserve"
   xmlns="http://www.w3.org/2000/svg"
   xmlns:svg="http://www.w3.org/2000/svg"><defs
     id="defs1" /><g
     id="layer6"
     style="display:inline"
     transform="translate(294.55133,-27.288378)"><g
       id="shocks-charged"
       fill="#ffffff"
       fill-rule="nonzero"
       style="display:none;fill:#000000;stroke:none;stroke-width:1"
       transform="matrix(2.4849357,-6.4786704e-8,6.4786704e-8,2.4849357,-117.38021,27.42536)"><path
         d="m 96.7,14 c -3,-0.7 -5.9,-1.4 -8.9,-1.7 0,0 0,-0.1 0,-0.1 C 89.9,10.6 92,9 94.1,7.4 95,6.7 96,6.1 96.9,5.4 97.3,5.1 97.3,4.8 96.8,4.6 96.4,4.4 95.9,4.3 95.4,4.2 93.6,3.7 91.9,3.2 90.1,2.7 88.8,2.3 87.6,2 86.3,1.7 85.8,1.6 85.6,1.4 85.6,0.9 85.6,0 85.5,0 84.6,0 c -2.7,0 -5.4,0 -8.1,0 -0.5,0 -0.9,0.1 -1,0.6 -0.3,0.9 -0.9,1.1 -1.7,1.1 -3.7,-0.1 -7.4,0 -11.1,0 -0.4,0 -0.9,-0.1 -1.2,0.2 -0.5,0.4 -1,0.4 -1.6,0.4 -8.1,0 -16.2,0 -24.2,0 -3.4,0 -6.8,0 -10.2,0 -0.9,0 -0.9,-0.1 -1,-0.9 -0.1,-1.2 -0.2,-1.3 -1.4,-1.3 -2.2,0 -4.4,0 -6.6,0 -0.4,0 -0.6,0.2 -0.8,0.5 C 15.5,1.1 15.3,1.5 15,2 12.9,5.3 10.8,8.7 8.6,12 c -0.2,0.3 -0.4,0.5 -0.4,0.8 -0.1,1.3 -0.1,2.6 0,3.8 0,0.4 0.3,0.7 0.8,0.6 2,-0.2 4,0 6,-0.1 0.8,0 1.2,0.3 1.5,1 0.3,0.7 0.3,1.5 -0.1,2.2 -0.5,0.9 -1.3,1.5 -2.1,2.1 -1.7,1.2 -3.5,2.1 -5.1,3.4 -1.7,1.4 -3.3,2.7 -5,4.1 -1.5,1.3 -2.8,2.7 -3.6,4.6 -0.1,0.3 -0.4,0.7 -0.6,1 0,1.3 0,2.6 0,4 0.3,0.4 0.5,0.9 1.2,0.7 0.3,-0.1 0.4,0.2 0.6,0.4 0.3,0.3 0.6,0.6 0.9,0.9 0.7,0.6 0.9,1.9 0.4,2.6 -1.2,1.6 -0.5,3.9 0.7,5.2 0.8,0.9 1.8,1.7 2.6,2.7 1.9,2.1 4.2,2.9 6.9,3 3.6,0 7.3,0 10.9,0 1.4,0 2.8,-0.4 3.9,-1.2 0.8,-0.6 1.6,-1 2.5,-1.5 0.4,-0.2 0.8,-0.1 1.1,0.1 1,0.7 1.1,0.7 1.9,-0.3 0.3,-0.3 0.5,-0.7 1,-0.7 1.2,-0.1 1.7,-1.1 2.1,-1.9 0.3,-0.6 0.5,-1.1 0.9,-1.6 3.4,-4.4 6.7,-8.9 10.2,-13.3 0.6,-0.8 0.8,-1.5 0.4,-2.5 -0.2,-0.4 -0.3,-0.8 -0.5,-1.3 -0.1,-0.5 0,-0.7 0.5,-0.7 0.6,0 1.1,0 1.7,0 0.4,0 0.5,0.2 0.6,0.5 0.2,0.9 0.2,0.9 1,0.9 1.4,0 2.7,0 4.1,0 0.3,0 0.7,0 0.9,-0.2 0.4,-0.5 0.9,-0.4 1.4,-0.4 0.7,0 1.3,0 2,0 6,0 12,0 18,0 0.4,0 0.9,-0.1 1.3,0.3 0.3,0.4 0.8,0.4 1.2,0.4 0.6,0 1.1,0 1.7,0 2.8,0.1 5.5,-0.1 8.2,-1 2,-0.7 4.1,-1.1 6.1,-1.7 0.3,-0.1 0.6,-0.2 0.7,-0.5 0.1,-0.3 -0.2,-0.5 -0.5,-0.6 -2.1,-1.6 -4.3,-3.2 -6.4,-4.8 -0.9,-0.7 -1.8,-1.3 -2.8,-2.2 1.3,0.1 2.4,-0.2 3.5,-0.4 1.9,-0.4 3.8,-0.8 5.7,-1.2 1.1,-0.2 1.2,-0.3 1.2,-1.5 0,-0.6 0,-1.2 0,-1.8 0,-1.6 -0.1,-1.7 -1.1,-1.9 z M 26.8,48.1 c -0.1,0.7 -0.1,1.4 -0.5,2 -0.2,0.3 -0.5,0.5 -0.9,0.5 -0.6,0.1 -1.2,0.2 -1.7,0.2 -1.7,0 -3.4,0 -5.1,0 -1.5,0 -3,0 -4.6,0 -0.9,0 -1.9,-0.1 -2.8,-0.2 -0.7,0 -1.2,-0.5 -1.7,-1 -1,-1 -1.9,-2 -2.9,-3 C 6.3,46.3 6,46 6.1,45.6 c 0.2,-0.5 0.7,-0.3 1.1,-0.3 0.4,0 0.8,0.2 1.1,0.5 0.5,0.5 1,0.9 1.3,1.4 0.4,0.5 0.8,0.7 1.5,0.8 1.6,0.1 3.1,0 4.6,0 2,-0.1 4,0 6,0 0.7,0 1.1,-0.2 1.6,-0.8 1.1,-1.5 1.1,-1.5 2.5,-0.3 0.5,0.5 1.1,0.7 1,1.2 z m 8.7,-20.7 c -0.9,1.2 -1.9,2.5 -2.8,3.7 -2.8,3.7 -5.6,7.4 -8.5,11.2 -0.5,0.6 -1,1.2 -1.4,1.9 -0.3,0.4 -0.6,0.5 -1.1,0.5 -0.9,0 -1.8,0 -2.7,0 0,0 0,0 0,0 -0.9,0 -1.8,0 -2.7,0 -0.7,0 -0.8,-0.1 -0.8,-0.9 0,-2.2 0.4,-4.3 1.5,-6.3 1.2,-2.3 3,-4 4.7,-5.9 2.2,-2.5 4.4,-4.9 6.6,-7.4 0.3,-0.4 0.7,-0.7 1,-1.1 0.4,-0.4 0.8,-0.7 1.4,-0.7 1,-0.1 1.6,0.2 2.1,1.2 0.3,0.7 0.8,1.4 1.2,2.1 0.3,0.5 0.6,0.7 1.2,0.8 0.8,0 0.8,0.2 0.3,0.9 z m 11,-5.1 c 0,0.8 -0.1,0.9 -0.9,0.9 -3.5,0 -6.9,0 -10.4,0 -0.6,0 -1.5,-0.8 -1.5,-1.5 0,-0.3 0.2,-0.4 0.5,-0.4 0.8,0 1.5,0 2.3,0 0.4,0 0.8,0.1 1.1,-0.1 0,-1.8 0,-3.5 0,-5.2 0,-1.2 1,-2.2 2.2,-2.2 1.2,0 2.4,0 3.5,0 1.2,0 1.2,0 1.2,1.2 0,0.8 0,1.6 0,2.4 0,0.5 0.2,0.8 0.7,0.7 0.1,0 0.3,0 0.4,0 0.8,0 0.9,0.1 0.9,0.9 0,1.1 0,2.2 0,3.3 z"
         id="Shape-81" /><path
         d="m 109.1,9.1 c -0.9,-1.8 -1.8,-3.3 -2.7,-4.9 -0.3,-0.4 -0.5,-0.9 -0.7,-1.4 -0.2,-0.5 0,-0.7 0.5,-0.6 0.6,0.1 1.3,0.3 1.9,0.5 2.4,0.7 4.9,1.4 7.3,2.1 0.3,0.1 0.6,0.3 0.9,0 -0.2,-0.7 -0.8,-1.2 -1.1,-1.8 -0.2,-0.5 -0.6,-0.9 -0.9,-1.4 -0.2,-0.3 -0.4,-0.5 -0.2,-0.9 0.2,-0.3 0.5,-0.2 0.8,-0.1 2.8,0.2 5.3,1.2 7.6,2.6 3.5,2.2 6.4,5 8.2,8.8 1.4,2.9 1.6,5.9 0.2,8.9 -1.3,2.7 -3.3,5 -5.6,6.9 -3.6,2.9 -7.6,5 -12.1,6.3 -0.2,0.1 -0.4,0.1 -0.6,0.2 -0.4,0.1 -0.6,-0.2 -0.5,-0.5 0.1,-0.4 0.2,-0.9 0.4,-1.3 0.4,-1.3 0.9,-2.6 1.3,-3.9 -0.4,-0.2 -0.8,-0.2 -1.1,-0.1 -2.7,0.3 -5.3,0.4 -8,0.6 -0.7,0 -1.4,0.2 -2.2,0.2 -0.9,0 -1.1,-0.3 -0.6,-1 1,-1.6 2,-3.2 3,-4.8 0.1,-0.1 0.2,-0.3 0.3,-0.5 -0.4,-0.3 -0.9,-0.4 -1.4,-0.5 -0.8,-0.2 -1.5,-0.4 -2.3,-0.6 -0.9,-0.3 -0.9,-0.5 -0.4,-1.2 1,-1.2 2,-2.4 3,-3.6 0.4,-0.4 0.4,-0.7 0.1,-1.2 -0.6,-0.9 -1.3,-1.8 -1.9,-2.8 -0.6,-0.9 -0.5,-1.1 0.4,-1.4 1.9,-0.7 3.8,-1.4 5.7,-2.2 0.3,-0.2 0.5,-0.3 0.7,-0.4 z"
         id="Path" /></g><g
       id="g18"
       transform="matrix(0.60973951,6.1075803,-6.1075803,0.60973951,537.39042,67.715783)"
       style="display:inline"><path
         d="m -8.334376,27.78125 v 60.284171 l 0.86558,1.49965 v 3.67006 l -1.191142,1.57614 v 1.17408 l -0.23151,0.061 v 4.762499 l -0.342615,-0.0165 v 1.29397 l 0.172083,0.17157 v 3.36 l -0.198438,0.11421 v 1.54616 l 0.171566,0.17208 v 3.48661 2.21071 l 0.229443,0.22945 v 2.8298 4.79092 0.1633 10.11514 l 3.684013,4.31602 2.199349,-1.70326 -0.382406,-0.49092 1.791622,-1.50224 c 0,0 -0.01137,0.01 -0.01137,-1.00562 0.170587,-0.12198 0.352159,-0.28462 0.542086,-0.48989 0.189928,-0.20527 0.388022,-0.45316 0.590662,-0.74569 0.202639,-0.29254 0.409845,-0.63011 0.618567,-1.01389 0.208722,-0.38379 0.419177,-0.81393 0.627352,-1.29295 0.208175,-0.47902 0.414467,-1.00668 0.615466,-1.58492 0.200999,-0.57823 0.396751,-1.20733 0.583944,-1.88877 0.187193,-0.68144 0.365509,-1.41538 0.532267,-2.204 0.166758,-0.78862 0.321777,-1.63184 0.46147,-2.53163 l -3.241145,-6.63112 -0.429948,-0.24804 -2.282032,-7.87136 -0.297656,-59.217054 -2.149739,-12.93151 z m 3.045809,87.74038 c 0.05908,-0.0149 0.124458,-0.003 0.190169,0.0243 0.06571,0.0277 0.13174,0.0713 0.191203,0.12092 0.05946,0.0496 0.112625,0.10481 0.152962,0.15555 0.958471,1.20572 3.575169,4.54917 3.947563,5.04103 0.0596,0.0787 0.09874,0.15052 0.128674,0.20412 l 0.771529,0.60824 v 0.93534 c -0.04031,0.22715 -0.08293,0.44953 -0.128157,0.66663 -0.04523,0.21708 -0.09287,0.42889 -0.142627,0.63613 -0.04976,0.20724 -0.101667,0.40963 -0.155546,0.6072 -0.05388,0.19757 -0.109822,0.39069 -0.167432,0.57878 -0.05761,0.18809 -0.116827,0.37103 -0.177767,0.54983 -0.06094,0.1788 -0.123716,0.35327 -0.187586,0.52297 -0.06387,0.1697 -0.128937,0.33478 -0.195336,0.49558 -0.0664,0.16079 -0.134042,0.31714 -0.202572,0.46922 -0.06853,0.15207 -0.137996,0.29983 -0.208256,0.44338 -0.07026,0.14355 -0.141307,0.28285 -0.212907,0.41806 -0.0716,0.13522 -0.143478,0.26671 -0.216007,0.39378 -0.07253,0.12707 -0.145522,0.24986 -0.218592,0.36897 -0.07307,0.11911 -0.146425,0.23437 -0.219625,0.34571 -0.0732,0.11135 -0.146168,0.21869 -0.219108,0.32246 -0.07294,0.10378 -0.145794,0.20384 -0.218074,0.30024 -0.07228,0.0964 -0.144271,0.18934 -0.215491,0.27854 -0.07122,0.0892 -0.141597,0.17463 -0.211357,0.25683 -0.06976,0.0822 -0.138805,0.16128 -0.206705,0.23668 -0.135805,0.15076 -0.267279,0.28773 -0.393258,0.41238 -0.125979,0.12465 -0.246706,0.23686 -0.359668,0.33693 -0.112961,0.10006 -0.218476,0.1881 -0.315226,0.2651 -0.09675,0.077 -0.18465,0.14294 -0.262,0.19844 -0.07735,0.0555 -0.144194,0.10041 -0.198954,0.13591 -0.109522,0.071 -0.170532,0.10335 -0.170532,0.10335 v -1.45728 l -0.330729,-0.33073 v -0.78548 l 0.330729,-0.33073 v -0.63458 l -0.330729,-0.33073 v -0.78548 l 0.330729,-0.33073 v -0.70435 l -0.330729,-0.33073 v -0.8909 l 0.330729,-0.33073 v -0.5116 l -0.330729,-0.33073 v -1.00252 l 0.330729,-0.33073 v -0.60462 l -0.330729,-0.33072 v -0.43977 -0.1633 -0.35812 l 0.330729,-0.33073 v -0.60461 l -0.330729,-0.33073 v -0.85783 l 0.330729,-0.33073 v -0.76688 l -0.330729,-0.33072 V 115.656 c 0.03957,-0.0782 0.09233,-0.11944 0.151412,-0.13436 z"
         style="display:inline;fill:#000000;fill-opacity:0.7;stroke-width:2;stroke-linecap:square;stroke-linejoin:round"
         id="path15-1" /><path
         d="m -9.39271,27.78125 v 60.284171 l 0.86558,1.49965 v 3.67006 l -1.191142,1.57614 v 1.17408 l -0.23151,0.061 v 4.762499 l -0.342615,-0.0165 v 1.29397 l 0.172083,0.17157 v 3.36 l -0.198438,0.11421 v 1.54616 l 0.171566,0.17208 v 3.48661 2.21071 l 0.229443,0.22945 v 2.8298 4.79092 0.1633 10.11514 l 3.684013,4.31602 2.199349,-1.70326 -0.382406,-0.49092 1.791622,-1.50224 c 0,0 -0.01137,0.01 -0.01137,-1.00562 0.170587,-0.12198 0.352159,-0.28462 0.542086,-0.48989 0.189928,-0.20527 0.388022,-0.45316 0.590662,-0.74569 0.202639,-0.29254 0.409845,-0.63011 0.618567,-1.01389 0.208722,-0.38379 0.419177,-0.81393 0.627352,-1.29295 0.208175,-0.47902 0.414467,-1.00668 0.615466,-1.58492 0.200999,-0.57823 0.396751,-1.20733 0.583944,-1.88877 0.187193,-0.68144 0.365509,-1.41538 0.532267,-2.204 0.166758,-0.78862 0.321777,-1.63184 0.46147,-2.53163 l -3.241145,-6.63112 -0.429948,-0.24804 -2.282032,-7.87136 -0.297656,-59.217054 -2.149739,-12.93151 z m 3.045809,87.74038 c 0.05908,-0.0149 0.124458,-0.003 0.190169,0.0243 0.06571,0.0277 0.13174,0.0713 0.191203,0.12092 0.05946,0.0496 0.112625,0.10481 0.152962,0.15555 0.958471,1.20572 3.575169,4.54917 3.947563,5.04103 0.0596,0.0787 0.09874,0.15052 0.128674,0.20412 l 0.771529,0.60824 v 0.93534 c -0.04031,0.22715 -0.08293,0.44953 -0.128157,0.66663 -0.04523,0.21708 -0.09287,0.42889 -0.142627,0.63613 -0.04976,0.20724 -0.101667,0.40963 -0.155546,0.6072 -0.05388,0.19757 -0.109822,0.39069 -0.167432,0.57878 -0.05761,0.18809 -0.116827,0.37103 -0.177767,0.54983 -0.06094,0.1788 -0.123716,0.35327 -0.187586,0.52297 -0.06387,0.1697 -0.128937,0.33478 -0.195336,0.49558 -0.0664,0.16079 -0.134042,0.31714 -0.202572,0.46922 -0.06853,0.15207 -0.137996,0.29983 -0.208256,0.44338 -0.07026,0.14355 -0.141307,0.28285 -0.212907,0.41806 -0.0716,0.13522 -0.143478,0.26671 -0.216007,0.39378 -0.07253,0.12707 -0.145522,0.24986 -0.218592,0.36897 -0.07307,0.11911 -0.146425,0.23437 -0.219625,0.34571 -0.0732,0.11135 -0.146168,0.21869 -0.219108,0.32246 -0.07294,0.10378 -0.145794,0.20384 -0.218074,0.30024 -0.07228,0.0964 -0.144271,0.18934 -0.215491,0.27854 -0.07122,0.0892 -0.141597,0.17463 -0.211357,0.25683 -0.06976,0.0822 -0.138805,0.16128 -0.206705,0.23668 -0.135805,0.15076 -0.267279,0.28773 -0.393258,0.41238 -0.125979,0.12465 -0.246706,0.23686 -0.359668,0.33693 -0.112961,0.10006 -0.218476,0.1881 -0.315226,0.2651 -0.09675,0.077 -0.18465,0.14294 -0.262,0.19844 -0.07735,0.0555 -0.144194,0.10041 -0.198954,0.13591 -0.109522,0.071 -0.170532,0.10335 -0.170532,0.10335 v -1.45728 l -0.330729,-0.33073 v -0.78548 l 0.330729,-0.33073 v -0.63458 l -0.330729,-0.33073 v -0.78548 l 0.330729,-0.33073 v -0.70435 l -0.330729,-0.33073 v -0.8909 l 0.330729,-0.33073 v -0.5116 l -0.330729,-0.33073 v -1.00252 l 0.330729,-0.33073 v -0.60462 l -0.330729,-0.33072 v -0.43977 -0.1633 -0.35812 l 0.330729,-0.33073 v -0.60461 l -0.330729,-0.33073 v -0.85783 l 0.330729,-0.33073 v -0.76688 l -0.330729,-0.33072 V 115.656 c 0.03957,-0.0782 0.09233,-0.11944 0.151412,-0.13436 z"
         style="display:inline;fill:#ffffff;fill-opacity:1;stroke-width:2;stroke-linecap:square;stroke-linejoin:round"
         id="path14-3" /></g></g></svg>
