<svg xmlns="http://www.w3.org/2000/svg" xml:space="preserve" viewBox="0 0 92.32 58.83"><path fill-opacity=".7" d="M92.32.92 40.1 31.06l-.87 1.5-3.18 1.83-1.96-.24-1.01.59-.17-.17-4.13 2.38-.15-.3-1.12.64-.07.23-2.9 1.68-.2-.11-1.34.77-.07.24-3.02 1.74-1.91 1.1-.08.32-2.45 1.41-4.15 2.4-.15.08-8.76 5.06-1.9 5.35L3.1 58.6l.24-.58 2.2.8s-.02 0 .86-.5a5.33 5.33 0 0 0 1.64.36 16.34 16.34 0 0 0 4.3-.33 29.8 29.8 0 0 0 4.1-1.09 56.1 56.1 0 0 0 2.42-.86L23 50.28v-.5l5.67-5.9L79.8 14l10.12-8.33zm-74.47 46.5a.3.3 0 0 1 .08.18l-.01.23a633.84 633.84 0 0 1-2.45 6.15l-.11.21-.14.97-.81.47a22.84 22.84 0 0 1-3.02.85 17.65 17.65 0 0 1-2.99.31 13.56 13.56 0 0 1-2.58-.25 9.91 9.91 0 0 1-1.93-.65l-.18-.1 1.26-.72.13-.45.68-.4.45.12.55-.31.12-.46.68-.39.45.12.61-.35.12-.45.77-.45.46.12.44-.25.12-.45.87-.5.45.12.52-.3.12-.46.38-.22.15-.08.3-.18.46.12.52-.3.12-.45.75-.43.45.12.66-.38.12-.45 1.24-.72a.3.3 0 0 1 .2.06z"/><path fill="#fff" d="M91.79 0 39.58 30.14l-.87 1.5-3.17 1.84-1.96-.25-1.02.59-.17-.17-4.12 2.38-.16-.3-1.12.64-.06.24-2.91 1.68-.2-.12-1.34.78-.07.23-3.01 1.74-1.92 1.11-.08.31-2.45 1.42-4.15 2.4-.14.08-8.76 5.05L0 56.64l2.57 1.05.24-.57 2.2.8s-.02 0 .86-.51c.2.08.42.16.7.22.27.06.58.1.94.14a16.34 16.34 0 0 0 4.3-.33 29.8 29.8 0 0 0 4.1-1.08c.77-.25 1.57-.54 2.42-.87l4.13-6.12v-.5l5.67-5.91 51.14-29.87 10.12-8.33zM17.33 46.5c.04.05.06.11.07.18l-.01.23a633.84 633.84 0 0 1-2.45 6.15c-.04.1-.08.16-.11.21l-.14.98-.81.46a22.84 22.84 0 0 1-3.02.85 17.65 17.65 0 0 1-2.99.32 13.56 13.56 0 0 1-2.58-.25 9.91 9.91 0 0 1-1.93-.65l-.18-.1 1.27-.73.12-.45.68-.4.45.13.55-.32.12-.45.68-.4.45.13.61-.36.12-.45.77-.44.46.12.44-.26.12-.45.87-.5.45.12.52-.3.12-.45.39-.22.14-.09.3-.17.46.12.52-.3.12-.46.75-.43.45.12.66-.38.12-.45 1.24-.72c.1 0 .15.02.2.07z"/></svg>