<?xml version="1.0" encoding="UTF-8"?>
<svg width="18px" height="20px" viewBox="0 0 18 20" version="1.1" xmlns="http://www.w3.org/2000/svg" xmlns:xlink="http://www.w3.org/1999/xlink">
    <title>tombstone-solid</title>
    <g id="Page-1" stroke="none" stroke-width="1" fill="none" fill-rule="evenodd">
        <g id="tombstone-solid" fill="#FFFFFF" fill-rule="nonzero">
            <path d="M1.25,7.5 C1.25,3.359375 4.609375,0 8.75,0 C12.890625,0 16.25,3.359375 16.25,7.5 L16.25,16.25 L1.25,16.25 L1.25,7.5 Z M0,18.75 C0,18.0585938 0.55859375,17.5 1.25,17.5 L16.25,17.5 C16.9414062,17.5 17.5,18.0585938 17.5,18.75 C17.5,19.4414062 16.9414062,20 16.25,20 L1.25,20 C0.55859375,20 0,19.4414062 0,18.75 Z M9.6875,4.6875 C9.6875,4.16796875 9.26953125,3.75 8.75,3.75 C8.23046875,3.75 7.8125,4.16796875 7.8125,4.6875 L7.8125,6.25 L5.9375,6.25 C5.41796875,6.25 5,6.66796875 5,7.1875 C5,7.70703125 5.41796875,8.125 5.9375,8.125 L7.8125,8.125 L7.8125,12.8125 C7.8125,13.3320312 8.23046875,13.75 8.75,13.75 C9.26953125,13.75 9.6875,13.3320312 9.6875,12.8125 L9.6875,8.125 L11.5625,8.125 C12.0820312,8.125 12.5,7.70703125 12.5,7.1875 C12.5,6.66796875 12.0820312,6.25 11.5625,6.25 L9.6875,6.25 L9.6875,4.6875 Z" id="Shape"></path>
        </g>
    </g>
</svg>