<?xml version="1.0" encoding="UTF-8"?>
<svg width="523px" height="107px" viewBox="0 0 523 107" version="1.1" xmlns="http://www.w3.org/2000/svg" xmlns:xlink="http://www.w3.org/1999/xlink">
    <title>Header</title>
    <g id="Page-1" stroke="none" stroke-width="1" fill="none" fill-rule="evenodd">
        <g id="dln-ui" transform="translate(-699.000000, -19.000000)">
            <g id="UI" transform="translate(-55.708529, -0.000000)">
                <g id="Header" transform="translate(755.000000, 19.085751)">
                    <path d="M305.292977,0 L299.526,14.914 L387.53268,14.9142492 L400.693,26.914 L522,26.9142492 L512,70.9142492 L343.341,70.914 L317,106.914249 L204,106.914249 L177.659,70.914 L10,70.9142492 L0,26.9142492 L120.306,26.914 L133.46732,14.9142492 L225.613,14.914 L226.354996,13.2080307 L219.321598,0 L305.292977,0 Z" id="Combined-Shape" fill-opacity="0.7" fill="#000000"></path>
                    <text id="M0ST" font-family="Roboto-Black, Roboto" font-size="29.5" font-weight="800" fill="#FFFFFF">
                        <tspan x="25.4992676" y="58.9142492">M0ST</tspan>
                    </text>
                    <text id="HAXX" font-family="Roboto-Black, Roboto" font-size="29.5" font-weight="800" fill="#FFFFFF">
                        <tspan x="417.133057" y="58.9142492">HAXX</tspan>
                    </text>
                    <g id="Time" transform="translate(222.000000, 70.914249)" fill="#FFFFFF" font-family="Roboto-Black, Roboto" font-size="29.5" font-weight="800">
                        <text id="00:20">
                            <tspan x="0.403686523" y="27">00:20</tspan>
                        </text>
                    </g>
                    <g id="Scores" transform="translate(123.000000, 17.914249)">
                        <g id="Score---Blue">
                            <polygon id="Blue" fill="#0045FF" points="11.9564669 -6.32129133e-15 3.76865771e-13 11 10.9564669 37.134552 88.5174978 37 101.502733 -8.88970871e-15"></polygon>
                            <text id="182" font-family="Roboto-Bold, Roboto" font-size="24" font-weight="bold" fill="#FFFFFF">
                                <tspan x="30.3457031" y="27">182</tspan>
                            </text>
                        </g>
                        <g id="Score---Red" transform="translate(168.698946, 0.134552)">
                            <polygon id="Red" fill="#FF0000" transform="translate(53.273271, 18.500000) scale(-1, 1) translate(-53.273271, -18.500000) " points="11.9131442 -6.298387e-15 3.7550025e-13 10.960143 10.9167676 37 89.5092574 37 82.7686285 16.865448 105.650347 16.9156342 106.546542 16.9156342 100.094446 -9.59596003e-15"></polygon>
                            <text id="295" font-family="Roboto-Bold, Roboto" font-size="24" font-weight="bold" fill="#FFFFFF">
                                <tspan x="35.1409319" y="27.865448">295</tspan>
                            </text>
                        </g>
                    </g>
                    <g id="DL-Logo" transform="translate(211.000000, 3.964733)" fill="#FFFFFF" fill-rule="nonzero">
                        <g id="Group" transform="translate(3.940978, 0.000000)">
                            <path d="M77.3667963,11.2466846 L75.739385,11.6112903 L74.5005252,13.8101434 L70.919094,13.3445699 L70.6656909,12.5985305 L64.4319735,16.9064875 L61.9824097,17.5347312 L59.8087738,18.3817384 L54.9209087,16.5531004 L52.0658999,24.2546953 L50.6355799,23.7666846 L48.2648527,27.3678674 L48.4225258,28.7084946 L51.198698,29.5274552 L58.6656441,36.5503226 L57.1621187,39.3381541 L57.7815487,41.3967742 L56.9931833,43.5283154 L59.3695417,45.0540502 C59.3695417,45.0540502 57.0044457,45.7103405 53.8960337,45.5588889 C50.793253,45.4074373 49.2840965,42.4176703 49.2840965,42.4176703 L46.4853995,42.1540323 L33.685725,46.7200179 L32.8354166,50.5287455 L33.561839,51.8244982 L88.9388733,51.8244982 L94.8741382,35.0750717 L79.2250861,35.080681 L76.0322064,42.6252151 L67.4728112,42.5803405 L80.064132,10.4725986 L77.7778725,10.831595 L77.3667963,11.2466846 Z" id="Path"></path>
                            <polygon id="Path" points="28.5163008 44.8128495 24.045143 44.6613978 10.6035139 48.3298925 4.65698672 51.8301075 29.8227348 51.8301075 26.438395 45.9178853"></polygon>
                            <polygon id="Path" points="40.2404197 39.512043 46.1813157 35.74819 44.1822464 34.6712007"></polygon>
                            <path d="M10.1980689,0.011218638 L14.9733104,8.74492832 L0,50.7250717 L0.754578259,51.0840681 L7.59646322,44.9362545 L9.94466572,44.4033692 L11.8254802,45.2223297 C11.8254802,45.2223297 27.1479238,39.8149462 30.6111001,37.9750896 C31.5008267,35.5855197 34.5529269,31.1205018 35.3525546,29.7237814 C36.1521823,28.3270609 38.4328106,26.4759857 38.8100997,26.094552 C39.1873889,25.7131183 40.3474122,21.893172 40.3474122,21.893172 C39.5083662,18.9931541 43.174265,13.5689427 43.8669003,12.6938889 C44.5539044,11.8188351 46.2770458,10.5399104 46.2038404,9.68729391 C46.1306351,8.83467742 47.1611412,7.65111111 47.1611412,7.65111111 L43.6867025,6.66387097 C43.6867025,6.66387097 46.8852133,5.46908602 49.5769179,5.2278853 C52.2686224,4.98107527 56.4188028,5.13252688 56.4188028,5.13252688 L56.1541373,7.06213262 L57.6351379,7.31455197 L61.3291927,6.48998208 L61.5375464,5.98514337 L61.6726948,5.08204301 L63.4014673,4.41453405 L64.4319735,3.22535842 L73.7966275,3.48899642 L73.0364181,5.32885305 L67.3658188,5.3737276 L67.0166856,5.69345878 L65.9017117,6.69752688 L65.4906355,9.54145161 L64.2686692,10.4950358 L60.5971392,11.6112903 L56.1879244,13.0416667 L59.5835266,14.3374194 L60.4507285,14.5786201 L61.4023981,13.5296774 L69.8716943,10.8428136 L70.8064704,10.0126344 L72.8111708,9.97897849 L74.3146962,10.0070251 L75.2044228,8.75053763 L80.841235,8.63835125 L84.3044114,0 L10.1980689,0 L10.1980689,0.011218638 Z M25.5261437,31.7319176 L18.0423041,34.6712007 L27.1479238,10.7418459 L34.2826302,10.7418459 L25.5261437,31.7319176 Z" id="Shape"></path>
                        </g>
                        <g id="Group" transform="translate(0.000000, 54.006379)">
                            <path d="M11.0712456,1.23352941 L8.83575939,6.54352941 C8.69045278,6.89823529 8.45013801,7.21588235 8.12599251,7.48588235 C7.76272599,7.78235294 7.38828205,7.93058824 6.99707195,7.93058824 L0,7.93058824 L1.74367927,6.28941176 L3.86180249,1.22823529 L2.72170451,0.0105882353 L9.89761536,0.0105882353 L11.0712456,1.23352941 Z M8.11481508,1.60411765 L6.56115213,1.60411765 L4.5436258,6.24176471 L6.14199846,6.24176471 L8.11481508,1.60411765 Z" id="Shape"></path>
                            <path d="M20.2982151,0.00529411765 L19.6834564,1.59882353 L18.8563265,1.59882353 L18.0515514,6.32647059 L18.9178024,6.32647059 L18.727786,6.76058824 C18.5377697,7.19470588 18.3142211,7.48588235 18.0459627,7.62882353 C17.6938736,7.82470588 17.0679375,7.92529412 16.1793317,7.92529412 L14.6983221,7.92529412 L15.1789516,5.86058824 L13.5694015,5.86058824 L12.3398841,7.92529412 L8.32159755,7.92529412 L10.1099866,6.60705882 L13.776184,1.21764706 L12.79257,0 L20.2982151,0 L20.2982151,0.00529411765 Z M16.1849204,1.51941176 L14.5250719,4.29882353 L15.5478068,4.29882353 L16.1849204,1.51941176 Z" id="Shape"></path>
                            <path d="M28.966313,0.00529411765 L27.9826991,2.32941176 L25.5404304,2.32941176 L25.8254549,1.65705882 L24.2159048,1.65705882 L23.5564363,3.16058824 L26.5966976,3.16058824 C27.2282225,3.16058824 27.5467793,3.39882353 27.5467793,3.87529412 C27.5467793,4.05529412 27.5076583,4.24058824 27.4238275,4.43117647 L26.5128669,6.54352941 C26.3507941,6.91941176 26.1104794,7.23705882 25.7919226,7.49647059 C25.4342448,7.78764706 25.0653895,7.93058824 24.6741794,7.93058824 L18.9569234,7.93058824 L19.9796583,5.49529412 L22.6622418,5.49529412 L22.3492738,6.25764706 L23.8638157,6.25764706 L24.5512277,4.62705882 L21.8351119,4.62705882 L20.6558929,3.37235294 L21.5724423,1.16470588 C21.7177489,0.820588235 22.0363057,0.54 22.5337014,0.312352941 C22.9807986,0.105882353 23.4167184,0.00529411765 23.8470495,0.00529411765 L28.966313,0.00529411765 Z" id="Path"></path>
                            <path d="M38.4335973,0.00529411765 L37.7853063,1.53 L37.220846,1.53 L35.2033197,6.32647059 L36.1142803,6.32647059 L35.9186753,6.76588235 C35.5777636,7.54411765 34.9294726,7.93058824 33.9682135,7.93058824 L31.7215498,7.93058824 L33.1746159,4.44705882 L31.5538884,4.44705882 L30.7602908,6.32647059 L31.6712514,6.32647059 L31.4756464,6.76588235 C31.1347347,7.54411765 30.4864437,7.93058824 29.5251846,7.93058824 L26.3172618,7.93058824 L28.0609411,6.28941176 L30.1790643,1.22823529 L29.6760799,0.0105882353 L33.4596404,0.0105882353 L32.1239374,2.94882353 L33.7502536,2.94882353 L34.7115127,0.762352941 L34.0241007,0.0105882353 L38.4335973,0.0105882353 L38.4335973,0.00529411765 Z" id="Path"></path>
                            <path d="M47.2581793,5.23588235 C47.1072839,5.61705882 46.928445,6.05117647 46.7272513,6.54352941 C46.5819447,6.89823529 46.3472186,7.21058824 46.0174844,7.48058824 C45.6542179,7.77705882 45.2797739,7.92529412 44.8885638,7.92529412 L38.1876938,7.92529412 L39.9313731,6.28411765 L42.0494963,1.22294118 L40.9093983,0.00529411765 L45.9615972,0.00529411765 L45.2853626,1.57764706 L44.7097249,1.57764706 L42.6921986,6.22588235 L44.2905713,6.22588235 L44.7823782,5.23588235 L47.2581793,5.23588235 L47.2581793,5.23588235 Z" id="Path"></path>
                            <path d="M57.3569884,0.00529411765 L56.3454308,2.45117647 L53.9422831,2.45117647 L54.3055496,1.58823529 L52.6904108,1.58823529 L52.0644747,3.09176471 L54.2552512,3.09176471 L53.6293151,4.57411765 L51.4273611,4.57411765 L50.7175942,6.26823529 L52.3383218,6.26823529 L52.7798303,5.22 L55.182978,5.22 L54.691171,6.38470588 C54.4676224,6.91411765 54.160243,7.28470588 53.7746217,7.50176471 C53.3107583,7.77176471 52.5954027,7.90941176 51.645321,7.90941176 L46.1851459,7.93058824 L47.9288251,6.28941176 L50.0469483,1.22823529 L48.9068504,0.0105882353 L57.3569884,0.0105882353 L57.3569884,0.00529411765 Z" id="Path"></path>
                            <path d="M66.0865622,0.00529411765 L65.4718035,1.59882353 L64.6446735,1.59882353 L63.8398985,6.32647059 L64.7061494,6.32647059 L64.5161331,6.76058824 C64.3261168,7.19470588 64.1025681,7.48588235 63.8343098,7.62882353 C63.4822207,7.82470588 62.8562845,7.92529412 61.9676788,7.92529412 L60.4866691,7.92529412 L60.9672987,5.86058824 L59.3577486,5.86058824 L58.1282311,7.92529412 L54.1099446,7.92529412 L55.8983336,6.60705882 L59.564531,1.21764706 L58.5809171,0 L66.0865622,0 L66.0865622,0.00529411765 Z M61.9732675,1.51941176 L60.3134189,4.29882353 L61.3361539,4.29882353 L61.9732675,1.51941176 Z" id="Shape"></path>
                            <path d="M74.7434827,1.20176471 L74.2013772,2.45647059 L71.4126082,2.45647059 L71.7591085,1.62529412 L70.2222117,1.62529412 L68.2493951,6.30529412 L69.7862919,6.30529412 L70.3172199,5.05058824 L69.5571546,5.05058824 L70.1942681,3.56823529 L73.75428,3.56823529 L72.5024077,6.48529412 C72.3403349,6.86117647 72.0720766,7.19470588 71.6864552,7.47529412 C71.278479,7.77705882 70.8537366,7.93058824 70.4234055,7.93058824 L66.3492318,7.93058824 L65.2929646,6.69176471 L67.623459,1.16470588 C67.7631769,0.825882353 68.0761449,0.545294118 68.5735406,0.312352941 C69.0150492,0.105882353 69.4565577,0.00529411765 69.8980662,0.00529411765 L73.676038,0.00529411765 L74.7434827,1.20176471 Z" id="Path"></path>
                            <path d="M84.1828233,0.00529411765 L83.4730565,1.62529412 L82.8694752,1.62529412 L80.8351827,6.48 C80.6451664,6.85588235 80.3713193,7.18411765 80.0080528,7.45941176 C79.5944878,7.77176471 79.1809229,7.92529412 78.7561805,7.92529412 L74.7378939,7.92529412 L73.6816267,6.71823529 L75.9674114,1.24411765 L75.0285072,0.00529411765 L79.275931,0.00529411765 L76.604525,6.30529412 L78.1302443,6.30529412 L80.5501582,0.767647059 L79.8515687,0.00529411765 L84.1828233,0.00529411765 L84.1828233,0.00529411765 Z" id="Path"></path>
                            <path d="M92.7894454,0.00529411765 L91.7778879,2.45117647 L89.3747401,2.45117647 L89.7380067,1.58823529 L88.1228678,1.58823529 L87.4969317,3.09176471 L89.6877082,3.09176471 L89.0617721,4.57411765 L86.8598181,4.57411765 L86.1500512,6.26823529 L87.7707788,6.26823529 L88.2122873,5.22 L90.615435,5.22 L90.123628,6.38470588 C89.9000794,6.91411765 89.5927001,7.28470588 89.2070787,7.50176471 C88.7432153,7.77176471 88.0278597,7.90941176 87.077778,7.90941176 L81.6176029,7.93058824 L83.3612821,6.28941176 L85.4794054,1.22823529 L84.3393074,0.0105882353 L92.7894454,0.0105882353 L92.7894454,0.00529411765 Z" id="Path"></path>
                        </g>
                    </g>
                </g>
            </g>
        </g>
    </g>
</svg>