<?xml version="1.0" encoding="UTF-8"?>
<svg width="523px" height="93px" viewBox="0 0 523 93" version="1.1" xmlns="http://www.w3.org/2000/svg" xmlns:xlink="http://www.w3.org/1999/xlink">
    <title>Player Bar</title>
    <g id="Page-1" stroke="none" stroke-width="1" fill="none" fill-rule="evenodd">
        <g id="dln-ui" transform="translate(-698.000000, -947.000000)">
            <g id="UI" transform="translate(-55.708529, -0.000000)">
                <g id="Player-Bar" transform="translate(754.000000, 947.992966)">
                    <path d="M344,56 L330.909091,92.0070335 L191.090909,92.0070335 L178,56.001949 L344,56 Z M417.53268,0 L430.693,12 L522,12 L512,56 L10,56 L0,12 L90.306,12 L103.46732,0 L417.53268,0 Z" id="Combined-Shape" fill-opacity="0.7" fill="#000000" transform="translate(261.000000, 46.003517) scale(1, -1) translate(-261.000000, -46.003517) "></path>
                    <polygon id="Path-3" fill="#0045FF" transform="translate(260.622744, 69.507034) scale(1, -1) translate(-260.622744, -69.507034) " points="93 61.8724816 105.024286 51.0070335 416.332343 51.0070335 428.245488 61.8724816 417.32872 88.0070335 103.956467 88.0070335"></polygon>
                    <text id="MOST-BottomFeeder" font-family="Roboto-Black, Roboto" font-size="29.5" font-weight="800" fill="#FFFFFF">
                        <tspan x="122.530396" y="81.0070335">MOST BottomFeeder</tspan>
                    </text>
                    <g id="Deaths" transform="translate(441.000000, 46.007034)" fill="#FFFFFF">
                        <text id="14" font-family="Roboto-Bold, Roboto" font-size="24" font-weight="bold" line-spacing="20">
                            <tspan x="0" y="22">14</tspan>
                        </text>
                        <path d="M52.1692525,5.05351563 L48.3794088,1.33046875 C48.1649556,1.11865234 47.8731588,1 47.5672994,1 L43.9356588,1 C43.6323658,1 43.3380025,1.11865234 43.1224947,1.32958984 L39.332651,5.05263672 C39.0513306,5.32949219 38.9371431,5.73396484 39.0337525,6.12068359 L42.0972681,18.1476367 C42.2281197,18.6484375 42.6840963,19 43.21144,19 L48.2985494,19 C48.8216744,19 49.2787056,18.6800781 49.4063228,18.1474609 L52.4698385,6.12050781 C52.5665181,5.73203125 52.4505025,5.32773437 52.1692525,5.05351563 Z M49.1282369,8.3125 C49.1282369,8.62539062 48.8786275,8.875 48.5340963,8.875 L46.8782369,8.875 L46.8782369,12.8125 C46.8782369,13.1245117 46.6276783,13.375 46.3153853,13.375 L45.1907369,13.375 C44.8778463,13.375 44.6282369,13.1253906 44.6282369,12.8125 L44.6282369,8.875 L42.9372213,8.875 C42.6243306,8.875 42.3754244,8.62539062 42.3754244,8.3125 L42.3754244,7.1875 C42.3754244,6.87548828 42.625983,6.625 42.938276,6.625 L44.6282369,6.625 L44.6282369,4.9375 C44.6282369,4.62460938 44.8778463,4.375 45.1907369,4.375 L46.3153853,4.375 C46.6286275,4.375 46.8782369,4.62460938 46.8782369,4.9375 L46.8782369,6.625 L48.5653853,6.625 C48.8786275,6.625 49.1282369,6.87460937 49.1282369,7.1875 L49.1282369,8.3125 Z" id="Shape" fill-opacity="0.9" fill-rule="nonzero"></path>
                    </g>
                    <g id="Kills" transform="translate(20.000000, 49.007034)" fill="#FFFFFF">
                        <text id="15" font-family="Roboto-Bold, Roboto" font-size="24" font-weight="bold" line-spacing="19">
                            <tspan x="29" y="22">15</tspan>
                        </text>
                        <path d="M15.4375,14.84375 L15.4375,17.21875 C15.4375,18.2021484 14.6396484,19 13.65625,19 L11.875,19 L11.875,17.21875 C11.875,16.8921875 11.6078125,16.625 11.28125,16.625 C10.9546875,16.625 10.6875,16.8921875 10.6875,17.21875 L10.6875,19 L8.3125,19 L8.3125,17.21875 C8.3125,16.8921875 8.0453125,16.625 7.71875,16.625 C7.3921875,16.625 7.125,16.8921875 7.125,17.21875 L7.125,19 L5.34375,19 C4.36035156,19 3.5625,18.2021484 3.5625,17.21875 L3.5625,14.84375 C3.5625,14.8289063 3.5625,14.8177734 3.56287109,14.8029297 C1.39085937,13.2777344 0,10.9361328 0,8.3125 C0,3.72207031 4.25273438,0 9.5,0 C14.7472656,0 19,3.72207031 19,8.3125 C19,10.9361328 17.6083984,13.2777344 15.4041016,14.8029297 C15.4041016,14.8177734 15.4375,14.8289063 15.4375,14.84375 L15.4375,14.84375 Z M5.9375,7.125 C4.62753906,7.125 3.5625,8.19003906 3.5625,9.5 C3.5625,10.8099609 4.62753906,11.875 5.9375,11.875 C7.24746094,11.875 8.3125,10.8099609 8.3125,9.5 C8.3125,8.19003906 7.24746094,7.125 5.9375,7.125 Z M13.0625,11.875 C14.3724609,11.875 15.4375,10.8099609 15.4375,9.5 C15.4375,8.19003906 14.3724609,7.125 13.0625,7.125 C11.7525391,7.125 10.6875,8.19003906 10.6875,9.5 C10.6875,10.8099609 11.7525391,11.875 13.0625,11.875 Z" id="Skull" fill-opacity="0.9" fill-rule="nonzero"></path>
                    </g>
                    <text id="2,892" font-family="Roboto-Bold, Roboto" font-size="29.5" font-weight="bold" line-spacing="23" fill="#FFFFFF">
                        <tspan x="221" y="37">2,892</tspan>
                    </text>
                    <g id="Dashes-5" transform="translate(50.000000, 7.000000)">
                        <path d="M128.14155,-1.5 L119.050641,23.5 L-2.14154999,23.5 L6.9493591,-1.5 L128.14155,-1.5 Z" id="Dash-3" stroke-opacity="0.2" stroke="#000000" stroke-width="3"></path>
                        <polygon id="Dash-5" fill-opacity="0.5" fill="#FFFFFF" points="104 0.00703352984 126 0.00703352984 118 22.0070335 96 22.0070335"></polygon>
                        <polygon id="Dash-4" fill-opacity="0.5" fill="#FFFFFF" points="80 0.00703352984 102 0.00703352984 94 22.0070335 72 22.0070335"></polygon>
                        <polygon id="Dash-3" fill-opacity="0.95" fill="#FFFFFF" points="56 0.00703352984 78 0.00703352984 70 22.0070335 48 22.0070335"></polygon>
                        <polygon id="Dash-2" fill-opacity="0.95" fill="#FFFFFF" points="32 0.00703352984 54 0.00703352984 46 22.0070335 24 22.0070335"></polygon>
                        <polygon id="Dash-1" fill-opacity="0.95" fill="#FFFFFF" points="8 0.00703352984 30 0.00703352984 22 22.0070335 0 22.0070335"></polygon>
                    </g>
                    <path d="M472.14155,5.5 L463.050641,30.5 L341.85845,30.5 L350.949359,5.5 L472.14155,5.5 Z" id="Dash-3" stroke-opacity="0.2" stroke="#000000" stroke-width="3" fill-opacity="0.95" fill="#FFFFFF" transform="translate(407.000000, 18.000000) scale(-1, 1) translate(-407.000000, -18.000000) "></path>
                </g>
            </g>
        </g>
    </g>
</svg>