<?xml version="1.0" encoding="utf-8"?>
<!-- Generator: Adobe Illustrator 19.0.0, SVG Export Plug-In . SVG Version: 6.00 Build 0)  -->
<svg version="1.1" id="Livello_1" xmlns="http://www.w3.org/2000/svg" xmlns:xlink="http://www.w3.org/1999/xlink" x="0px" y="0px"
	 viewBox="-246 369.7 117.4 55.3" style="enable-background:new -246 369.7 117.4 55.3;" xml:space="preserve">
<style type="text/css">
	.st0{fill:#FFFFFF;stroke:#000000;stroke-width:0.25;stroke-miterlimit:10;}
</style>
<path class="st0" d="M-138.1,385.1c0-0.6-0.2-0.9-0.8-1c-1.7-0.4-3.5-0.7-5.2-1.1c-1.4-0.3-2.7-0.7-4.1-0.6c0.2-0.3,0.4-0.4,0.5-0.6
	c2.8-2.1,5.5-4.2,8.3-6.3c0.2-0.2,0.7-0.3,0.5-0.7c-0.1-0.4-0.5-0.3-0.8-0.4c-3.1-0.9-6.2-1.7-9.3-2.7c-0.5-0.1-1.2,0.1-1.4-0.4
	c-0.2-0.4-0.1-1-0.2-1.5c-3.3,0-6.5,0-9.8,0c-0.7,1.8-0.7,1.8-2.6,1.8c-3.6,0-7.2,0-10.8,0c-0.4,0-0.8-0.1-1.1,0.1
	c-0.5,0.5-1.2,0.4-1.8,0.4c-11.3,0-22.6,0-33.9,0c-0.2,0-0.5,0-0.7,0c-0.7,0-1-0.3-0.9-0.9c0.1-0.9-0.3-1.3-1.2-1.4
	c-2.4,0-4.8,0-7.3,0c-0.1,0.6-0.4,1.2-0.8,1.7c-1.7,2.7-3.4,5.3-5.1,7.9c-1.9,3-1.9,2.9-1.8,6.5c0,1,0.2,1.2,1.2,1.1
	c1.8-0.1,3.6-0.1,5.3-0.2c1.5,0,2.5,1.5,1.9,2.9c-0.3,0.8-0.8,1.4-1.5,1.9c-3.5,2.3-6.9,4.6-10.1,7.3c-2.3,1.9-4.1,4.1-5.1,6.9
	c0,1,0,2.1,0,3.1c0.2,0.4,0.2,1,0.7,1.1c0.9,0,1.3,0.6,1.8,1.1c1.1,1.1,1.2,1.9,0.5,3.3c-0.1,0.3-0.3,0.5-0.3,0.8
	c-0.2,1.7,0.4,3.1,1.5,4.3c0.6,0.6,1.2,1.2,1.8,1.8c1.8,2.2,4.1,3.4,7,3.5c3.9,0,7.9,0.1,11.8,0c1.5,0,3.1-0.4,4.3-1.6
	c0.6-0.6,1.5-0.9,2.3-1.2c0.4-0.2,0.8,0.4,1.2,0.7c0.3,0.2,0.6,0.2,0.9-0.1c0.2-0.3,0.5-0.5,0.7-0.8c0.3-0.4,0.7-0.7,1.1-0.5
	c0.4,0.1,0.5-0.1,0.7-0.3c0.7-0.7,0.9-1.8,1.5-2.5c3.3-4.4,6.5-8.8,10-13.1c1.2-1.5,1.5-2.7,0.7-4.4c-0.2-0.4-0.5-0.9,0.3-1.1
	c1.2-0.3,2.5,0,2.6,0.5c0,0,0,0.1,0,0.1c-0.1,0.7,0.3,0.9,0.9,0.9c1.2,0,2.4,0,3.5,0c0.7,0,1.4,0.1,1.9-0.6c0.2-0.3,0.6-0.2,0.9-0.2
	c6.8,0,13.5,0,20.3,0c0.3,0,0.7-0.1,0.9,0.2c0.6,0.6,1.3,0.6,2,0.6c1.4,0,2.9,0,4.3,0c0.8,0,1.7-0.1,2.5-0.3
	c2.9-0.8,5.7-1.6,8.6-2.4c0.3-0.1,0.7-0.1,0.8-0.4c0.1-0.4-0.3-0.6-0.5-0.8c-2.3-1.7-4.6-3.4-6.9-5.2c-0.7-0.6-1.5-1-2.2-1.8
	c3.2-0.3,6.3-1.3,9.4-1.8c0.7-0.1,1-0.5,0.9-1.2C-138.2,386.6-138.2,385.9-138.1,385.1z M-209.5,418.7c0,0.1-0.1,0.2-0.1,0.3
	c-0.3,1.8-0.7,2.2-2.6,2.2c-1.9,0-3.7,0-6,0c-1.8-0.1-4,0.1-6.3-0.1c-0.9-0.1-1.6-0.4-2.2-1c-1.1-1.1-2.1-2.2-3.1-3.3
	c-0.2-0.2-0.5-0.5-0.3-0.8c0.2-0.3,0.5-0.2,0.7-0.2c1.3-0.2,2,0.9,2.6,1.7c0.6,0.8,1.3,1.1,2.3,1c3.5-0.2,6.9-0.2,10.4-0.2
	c0.8,0,1.1-0.5,1.5-1c0.9-1.2,0.9-1.2,2-0.2c0.2,0.2,0.4,0.3,0.6,0.5C-209.5,417.9-209.3,418.3-209.5,418.7z M-200.7,397.5
	c-1.1,1.5-2.3,2.9-3.4,4.4c-3,4-6.1,8-9.1,12.1c-0.5,0.7-1,1-1.8,0.9c-0.8-0.1-1.5,0-2.3,0c-0.9,0-1.8,0-2.7,0
	c-0.6,0-0.8-0.2-0.8-0.8c0-2.5,0.5-4.7,1.8-6.9c1.3-2.1,3.1-3.7,4.6-5.6c1.6-2,3.4-3.7,5-5.7c0.8-1,1.6-1.9,2.5-2.8
	c1-0.9,2.4-0.7,3.1,0.4c0.5,0.8,1,1.5,1.4,2.3c0.3,0.5,0.6,0.8,1.2,0.7c0.2,0,0.5-0.1,0.6,0.2C-200.3,397.1-200.5,397.3-200.7,397.5
	z M-189.7,392.3c0,0.6-0.2,0.9-0.9,0.9c-3.5,0-6.9,0-10.4,0c-1.1,0-1.1-1-1.6-1.5c0-0.1,0.1-0.1,0.1-0.2c1.1,0,2.1,0,3.2,0
	c0.5,0,0.8,0,0.6-0.8c-0.2-1.7-0.1-3.4-0.1-5.1c0-0.8,1.3-1.8,2.1-1.8c1.4,0,2.7,0,4.1,0c0.6,0,0.8,0.2,0.8,0.8
	c-0.1,0.9,0,1.8,0,2.7c0,0.6,0.1,0.8,0.8,0.8c1.2-0.1,1.4,0,1.4,1.2C-189.7,390.4-189.7,391.4-189.7,392.3z"/>
</svg>
