<?xml version="1.0" encoding="utf-8"?>
<!-- Generator: Adobe Illustrator 19.0.0, SVG Export Plug-In . SVG Version: 6.00 Build 0)  -->
<svg version="1.1" id="Livello_1" xmlns="http://www.w3.org/2000/svg" xmlns:xlink="http://www.w3.org/1999/xlink" x="0px" y="0px"
	 viewBox="-259 375.9 95.7 49.1" style="enable-background:new -259 375.9 95.7 49.1;" xml:space="preserve">
<style type="text/css">
	.st0{fill:#FFFFFF;stroke:#000000;stroke-width:0.25;stroke-miterlimit:10;}
</style>
<path class="st0" d="M-165.4,382.7c0-1.2,0-1.3-1.2-1.3c-9.2,0-18.4,0-27.6,0c-0.9,0-1.7,0.1-2.2,0.9c-0.1,0.1-0.2,0.3-0.5,0.1
	c0-0.7,0-1.4,0-2.1c0-0.5-0.2-0.8-0.6-1.2c-0.7-0.7-1.5-0.5-2.2-0.5c-0.8,0-0.9-0.1-0.9-0.9c0-0.6,0.3-1.1-0.1-1.7
	c-0.6,0-1.2,0-1.7,0c-0.4,1.1-0.4,1.1-1.6,1.1c-7.9,0-15.9,0-23.8,0c-0.9,0-1.2-0.2-1.4-1.1c-0.5,0-1.1,0-1.6,0
	c0,0.5,0.2,1.2-0.7,1.2c-0.3,0-0.3,0.3-0.1,0.5c0.2,0.3,0.6,0.5,0.8,0.9c-0.4,0-0.7,0-1,0c-5.5,0-11,0-16.5,0
	c-1.2,0-1.9,0.7-1.9,1.9c0,1.7,0,3.3,0,5c0,0.4,0,0.7,0,1.1c0,0.4-0.3,0.4-0.6,0.4c-0.3,0-0.4-0.1-0.4-0.4c-0.1-1.2-0.2-2.5-0.3-3.7
	c-0.1-1.7-0.1-1.7-1.7-1.7c-0.1,0-0.2,0-0.4,0c-1,0-1.2,0.2-1.2,1.2c0,3.4,0,6.9,0,10.3c0,0.3,0,0.6-0.1,0.9c-0.6,1.3-1.2,2.6-2,3.7
	c0,0.4,0,0.9,0,1.3c0.7,0.3,1.4,1.3,2.2,0.1c0,0,0.1-0.1,0.1-0.1c1,0.1,1.3-0.7,1.6-1.3c0.8-1.7,2.1-3.3,1.8-5.4
	c-0.1-0.3-0.1-0.7,0.4-0.7c0.4,0,0.7,0.2,0.7,0.7c0,0.6,0.3,0.8,0.9,0.9c1.1,0.1,2.2,0.1,3.2,0.4c1.8,0.6,3.6,1.4,5.1,2.6
	c1.8,1.5,2.3,3.1,1.7,5.2c-0.8,2.5-1.6,5-2.4,7.5c-0.7,2.2-1.4,4.4-2.1,6.7c-0.3,0.8-0.2,0.9,0.6,1.1c0.4,0.1,0.9,0.2,1.3,0.4
	c9,2.7,17.9,5.3,26.9,8c0.6,0.2,0.9,0.1,1.1-0.6c0.9-2.4,1.8-4.8,2.7-7.2c2.1-5.6,4.1-11.3,6.3-16.9c1.2-3.2,3.5-5.2,7-5.7
	c0.7-0.1,1-0.4,1-1.1c0-1.6-0.2-3.3,0.2-5c0.4,0.2,0.5,0.5,0.8,0.8c0.2,0.3,0.5,0.4,0.9,0.4c9.6,0,19.2,0,28.8,0
	c0.7,0,0.9-0.3,0.9-0.9C-165.4,386.5-165.4,384.6-165.4,382.7z M-218.2,399.9c-0.9,2.4-1.8,4.8-2.7,7.2c-1.2,3.2-2.4,6.5-3.6,9.7
	c-0.4,1-0.5,1.1-1.6,0.8c-1.9-0.6-3.7-1.1-5.6-1.7c-0.9-0.3-0.9-0.3-0.6-1.2c1-2.7,2-5.3,3-8c0.2-0.5,0.5-0.9,1-1.2
	c0.8-0.5,0.9-0.8,0.4-1.6c-0.9-1.4-0.8-3.2,0.8-4.1c0.3-0.2,0.7-0.4,0.8-0.8c0.1-0.3,0.5-0.3,0.8-0.3c1.1,0,2.3,0,3.4,0c0,0,0,0,0,0
	c1,0,2.1,0,3.1,0C-217.9,398.8-217.9,398.9-218.2,399.9z M-216.1,394.1c-0.4,1.1-0.9,2.2-1.3,3.3c-0.1,0.4-0.4,0.4-0.7,0.4
	c-3,0-6,0-8.9,0c-0.7,0-1-0.4-0.8-1.1c0.3-1,0.7-1.9,1-2.8c0.2-0.5,0.6-0.6,1-0.6c1.5,0,3,0,4.5,0c1.5,0,3,0,4.5,0
	C-216.1,393.3-215.9,393.5-216.1,394.1z"/>
</svg>
