<?xml version="1.0" encoding="utf-8"?>
<!-- Generator: Adobe Illustrator 19.0.0, SVG Export Plug-In . SVG Version: 6.00 Build 0)  -->
<svg version="1.1" id="Livello_1" xmlns="http://www.w3.org/2000/svg" xmlns:xlink="http://www.w3.org/1999/xlink" x="0px" y="0px"
	 viewBox="-259 369.7 91.3 55.3" style="enable-background:new -259 369.7 91.3 55.3;" xml:space="preserve">
<style type="text/css">
	.st0{fill:#FFFFFF;stroke:#000000;stroke-width:0.25;stroke-miterlimit:10;}
</style>
<path class="st0" d="M-168.4,387.6c-0.4,0-0.6-0.3-0.6-0.7c0-0.3,0-0.6,0-0.9c0-0.4,0.1-0.7,0.6-0.6c0.6,0,0.7-0.3,0.7-0.8
	c0-0.2,0-0.5,0-0.7c0.1-0.7-0.2-0.9-0.9-0.9c-1.3,0-2.5,0-3.8,0c-0.7,0-1-0.2-0.9-0.9c0.1-0.6-0.2-0.9-0.8-0.8c-0.3,0-0.5,0-0.8,0
	c-13.7,0-27.4,0-41.1,0c-0.3,0-0.5,0-0.8,0c-0.2,0-0.4,0-0.5-0.3c-0.1-0.5-0.4-0.5-0.8-0.5c-0.5,0.1-0.6-0.2-0.6-0.6
	c0-0.8,0-1.7,0-2.5c0-2.5,0-4.9,0-7.4c-0.7,0-1.5,0-2.2,0c-0.1,0.2-0.2,0.5-0.2,0.7c-0.7,2.9-1.4,5.9-2,8.8c-0.1,0.6-0.4,0.9-1,0.8
	c-0.6-0.1-1.1,0-1.7,0c-0.3,0-0.6,0-0.7,0.3c-0.1,0.6-0.5,0.5-0.9,0.5c-3.8,0-7.6,0-11.3,0c-1,0-1,0-1,1c0,0.6-0.3,0.7-0.8,0.7
	c-1.6,0-3.1,0-4.7,0c-0.8,0-1.6,0-2.3,0c-0.3,0-0.6,0.2-0.7,0.5c-0.1,0.3,0,0.6,0.3,0.8c0.5,0.3,1,0.7,1.7,0.7
	c1.1,0,1.3,0.3,0.7,1.2c-0.7,1-1.4,2.1-1.5,3.4c0,0.4-0.3,0.6-0.8,0.6c-1.4,0-2.8,0.2-4.2,0.2c-1,0-1.6,0.6-1.6,1.6
	c0,0.6,0,1.3,0,1.9c0,0.4,0.1,0.8,0.4,1.2c0.5,0.7,1.1,1.2,2,1.3c0.9,0.1,1.1,0.5,1.3,1.4c0.1,0.8-0.2,1.5-0.6,2.1
	c-1.9,2.7-3.7,5.5-5.6,8.2c-0.9,1.4-2.2,2.7-2.6,4.4c0,1,0,2.1,0,3.1c0.1,0.5,0.3,1,0.4,1.6c0.1,0.8,0.5,1.2,1.3,1.5
	c4.6,1.9,9.3,3.9,13.9,5.8c1,0.4,2,0.1,2.6-0.7c0.4-0.6,0.5-1.1-0.1-1.6c-0.6-0.4-0.9-1-1.2-1.6c-0.2-0.4-0.4-0.7-0.6-1
	c-0.3-0.4-0.7-0.8-1-1.2c-0.9-1.2-1.2-2.5-0.5-3.8c1.3-2.6,2.6-5.2,3.8-7.8c0.2-0.4,0.4-0.7,0.5-1.1c0.1-0.6,0.4-0.6,0.9-0.5
	c2.5,0.8,5,1.7,7.4,2.5c2,0.7,4.1,1.3,6.1,2c0.7,0.2,1.2-0.2,1.1-1c0-0.1-0.1-0.3-0.2-0.4c-0.4-0.8-0.6-1.7-0.6-2.6
	c0-2.1,0.5-4,1.7-5.8c0.5-0.7,0.9-1.5,1.9-1.3c0.1,0,0.2-0.1,0.4-0.1c2-0.7,4-1.3,6-2c0.6-0.2,1.3-0.3,2-0.3c11.1,0,22.1,0,33.2,0
	c1,0,1.9,0.2,2.8,0.7c0.6,0.4,1.2,0.8,1.9,0.8c1.5,0,3.1,0,4.6,0c0.4,0,0.7,0,0.8-0.5c0.1-0.5-0.2-0.7-0.6-0.9
	c-0.7-0.3-1.5-0.6-2.2-0.9c-0.7-0.3-0.9-1-0.3-1.6c0.6-0.6,1.1-1.1,1.7-1.7c0.3-0.3,0.6-0.4,1-0.4c0.7,0,1.3,0,2,0
	c0.5,0,0.7-0.2,0.7-0.7c0-0.9,0-1.7,0-2.6C-167.7,387.8-167.9,387.6-168.4,387.6z M-228,406.4c-0.7,0.7-1,0.8-1.9,0.5
	c-2.9-1-5.8-2-8.7-2.9c-0.6-0.2-0.7-0.4-0.4-1c0.5-0.8,0.8-1.7,1.3-2.6c0.6-1,1.6-1.5,2.6-1.8c1.3-0.4,2.6-0.5,3.9-0.5
	c0.7,0,1.3,0,2,0c1.6,0,2.6,0.9,2.9,2.5c0,0.2,0,0.4,0.1,0.8C-226.7,403.1-226.6,405-228,406.4z"/>
</svg>
