<?xml version="1.0" encoding="utf-8"?>
<!-- Generator: Adobe Illustrator 19.0.0, SVG Export Plug-In . SVG Version: 6.00 Build 0)  -->
<svg version="1.1" id="Livello_1" xmlns="http://www.w3.org/2000/svg" xmlns:xlink="http://www.w3.org/1999/xlink" x="0px" y="0px"
	 viewBox="-246 369.7 117.4 55.3" style="enable-background:new -246 369.7 117.4 55.3;" xml:space="preserve">
<style type="text/css">
	.st0{fill:#FFFFFF;stroke:#000000;stroke-width:0.25;stroke-miterlimit:10;}
</style>
<path class="st0" d="M-155.3,375.3c0-0.6,0-1.1-0.8-1.2c-0.3,0-0.3-0.3-0.3-0.6c0-0.3,0-0.7,0-1c0-0.5-0.2-0.8-0.7-0.8
	c-0.6,0-1.3,0.2-1.8-0.1c-0.5-0.4-0.1-1.2-0.3-1.8c-2.3,0-4.6,0-6.9,0c0,0.1,0,0.2,0,0.3c-0.1,1.7-0.1,1.7-1.7,1.7
	c-8.9,0-17.8,0-26.7,0c-0.6,0-1.3,0.2-1.5-0.7c0-0.3-0.4-0.3-0.7-0.4c-0.9-0.3-1.8-0.5-2.7-0.8c-1.1,0-2.3,0-3.4,0
	c-1,1.3-2,2.4-3.9,2c-0.3-0.1-0.7,0-0.8,0.3c-0.5,1.2-1.4,2.3-1.3,3.7c0,2.8,0,5.7,0.1,8.5c0,0.3,0.1,0.7-0.2,0.9
	c-0.7,0.4-0.7,1-0.6,1.7c0,2.5-0.4,4.9-0.9,7.2c-0.5,2.3-1.5,4.5-2.4,6.6c-0.5,1.2-0.9,2.5-1.9,3.6c-0.7,0.7-1.5,1.3-1.7,2.4
	c-0.4,1.9-1.1,3.8-1.9,5.7c-0.8,1.7-1.1,3.5-1,5.4c0.1,2,1,3.6,2.3,4.9c1.7,1.6,3.9,2.2,6.2,2.2c12.6,0,25.2,0,37.7,0
	c1.2,0,2.4-1,2.2-2.2c-0.1-0.8,0.2-1.4,0.5-2c2.3-5.2,4.5-10.5,6.8-15.8c1.6-3.7,3.2-7.4,4.7-11.1c0.1-0.3,0.2-0.7,0.5-0.8
	c0.5-0.2,0.6-0.6,0.8-1c0.4-0.8,0.4-1.9,1.6-2.1c0.1,0,0.2-0.1,0.2-0.2c0-0.6,0.4-1.2,0.4-1.8C-155.3,383.6-155.3,379.5-155.3,375.3
	z M-180.9,411.2c-2.2,3.7-5.5,5.8-9.7,6.7c-1.4,0.3-2.9,0.4-4.6,0.3c-2.3,0.4-4.4-0.7-6.3-2c-1-0.7-2.2-1.2-2.8-2.4
	c-0.5-1.1-0.9-2.3-0.6-3.5c0.6-3,1.9-5.8,2.9-8.6c0.4-1.1,0.9-2.2,1.5-3.3c0.4-0.7,0.9-1.3,1.8-1.5c0.8-0.2,1.6-0.5,1.7-1.6
	c0.1-0.6,1.8-0.8,2.2-0.2c0.3,0.4,0.5,0.7,0.8,1.1c0.2,0.2,0.3,0.6,0.7,0.3c0.3-0.2,0.7-0.4,0.5-0.9c-0.2-0.7-0.3-1.3-0.5-2
	c-0.3-1.7,0.3-3.2,1.2-4.6c0.5-0.7,1.3-0.3,1.8-0.2c3.9,1,7.1,3.1,9.2,6.6C-177.6,400.6-177.7,405.9-180.9,411.2z"/>
</svg>
